<?xml version="1.0" encoding="UTF-8"?><svg id="Layer_2" xmlns="http://www.w3.org/2000/svg" xmlns:xlink="http://www.w3.org/1999/xlink" viewBox="0 0 270.38 243.58"><defs><style>.cls-1{fill:url(#New_Gradient_Swatch_copy);}.cls-2{fill:#043a25;}.cls-3{fill:#fff;}</style><linearGradient id="New_Gradient_Swatch_copy" x1="11.04" y1="51.1" x2="90.52" y2="51.1" gradientTransform="translate(0 0)" gradientUnits="userSpaceOnUse"><stop offset="0" stop-color="#f1e5b3"/><stop offset=".29" stop-color="#decb7c"/><stop offset="1" stop-color="#bba16b"/></linearGradient></defs><g id="kopyto"><path class="cls-2" d="M204.86,217.09c-13.44,0-81.67-.86-104.9-17.77-5.68-4.13-12.1-17.54-18.91-31.74-5.37-11.19-12.72-26.52-16.3-27.79-1.59-.57-4-1.29-6.79-2.13-13.25-3.98-35.43-10.65-44.39-21.73-5.81-7.19-12.33-21.35-10.45-47.99,1.05-14.9,4.81-30.51,8.04-33.41,1.44-1.29,3.18-1,4.18-.05,3.63,2.64,42.2,10.77,66.7,10.77,8.41,0,17.67,17.1,30.84,43.19,6.26,12.39,12.73,25.21,16.59,28.69,2.94,2.65,11.23,8.98,21.74,16.98,48.78,37.18,65.7,51.89,67.05,58.29,1,4.73,.85,14.38-3.82,20.15-2.4,2.97-5.72,4.54-9.58,4.54ZM13.94,39.48c-3.87,8.44-12.98,52.71,3.61,73.24,7.96,9.85,30.03,16.48,41.88,20.05,2.86,.86,5.32,1.6,7.04,2.21,5.3,1.89,10.75,12.78,19.2,30.4,5.94,12.39,12.68,26.44,17.31,29.81,9.41,6.85,29.12,11.92,56.98,14.64,19.83,1.94,38.01,2.15,44.91,2.15,2.33,0,4.16-.86,5.6-2.64,3.33-4.11,3.64-11.9,2.79-15.86-.26-1.24-3.04-5.91-23.07-22.41-13.05-10.74-29.14-23.01-42.08-32.87-10.6-8.08-18.97-14.46-22.06-17.25-4.57-4.13-10.66-16.2-17.72-30.19-5.02-9.94-10.21-20.22-15.11-28.1-6.89-11.08-10.1-12.27-11.16-12.27-11.03,0-26.59-1.67-42.69-4.58-6.24-1.13-19.74-3.76-25.41-6.31Zm1.43-4.96s.02,.01,.02,.02c0,0-.01-.01-.02-.02Z"/><g><path class="cls-1" d="M12.39,36.19c-5.18,7.48,5.22,23.41,20.02,28.77,20.56,7.45,49.61,2,57.14-7.91,6.69-8.81-22.23-14.26-46.87-18.01-13.73-2.09-26.13-8.86-30.28-2.85Z"/><path class="cls-2" d="M53.96,70.76c-7.59,0-15.35-1.11-22.33-3.64-10.15-3.68-19.22-12.44-22.05-21.3-1.37-4.3-1.05-8.08,.93-10.94,3.74-5.4,11.32-3.35,20.11-.97,3.8,1.03,8.11,2.2,12.42,2.85,33.01,5.02,46.85,9.4,49.39,15.64,.56,1.39,.84,3.57-1.03,6.03-5.44,7.16-21.05,12.32-37.42,12.32ZM18.06,36.07c-1.75,0-3.07,.4-3.78,1.43h0c-1.43,2.07-.97,4.9-.33,6.92,2.05,6.41,9.31,14.78,19.23,18.37,9.16,3.32,20.94,4.21,32.32,2.44,10.43-1.62,18.94-5.29,22.2-9.58,.68-.9,.51-1.31,.43-1.52-.41-1.02-2.75-3.75-15.41-7.05-9.38-2.44-21.17-4.36-30.39-5.77-4.57-.69-9.01-1.9-12.93-2.96-4.42-1.2-8.46-2.29-11.33-2.29Zm-5.67,.12h0Z"/></g><path class="cls-2" d="M162.88,194.33c-.13,0-.26-.01-.39-.04-1.24-.28-30.4-6.81-39.56-11.83-13.26-7.26-22.3-18.59-23.32-50.24-1.24-38.58-20.56-67.09-20.76-67.38-.56-.82-.35-1.93,.46-2.49,.81-.56,1.93-.35,2.49,.46,.2,.29,20.11,29.68,21.38,69.29,1.07,33.31,11.64,41.83,21.46,47.21,8.71,4.77,38.32,11.4,38.62,11.47,.97,.22,1.57,1.17,1.36,2.14-.19,.83-.93,1.4-1.75,1.4Z"/><path class="cls-2" d="M218.76,243.58H2.79c-1.54,0-2.79-1.25-2.79-2.79s1.25-2.79,2.79-2.79H218.76c1.54,0,2.79,1.25,2.79,2.79s-1.25,2.79-2.79,2.79Z"/><g><circle class="cls-2" cx="211.86" cy="58.52" r="58.52"/><g><path class="cls-3" d="M219.93,27.14h-10.24l-.57,4.06c.57-.08,1.06-.08,1.71-.08,2.52,0,5.08,.57,6.95,1.91,1.99,1.34,3.21,3.54,3.21,6.62,0,4.92-4.23,9.27-11.34,9.27-3.21,0-5.89-.73-7.36-1.5l1.1-4.63c1.18,.57,3.58,1.3,5.98,1.3,2.56,0,5.28-1.22,5.28-4.02s-2.15-4.39-7.44-4.39c-1.46,0-2.48,.08-3.58,.24l1.75-13.86h14.55v5.08Z"/><path class="cls-3" d="M175.38,62.19v3.36h2.62v2.69h-2.62v4.25c0,1.42,.34,2.06,1.44,2.06,.46,0,.82-.05,1.08-.1l.02,2.76c-.48,.19-1.34,.31-2.38,.31-1.18,0-2.16-.41-2.74-1.01-.67-.7-1.01-1.82-1.01-3.48v-4.8h-1.56v-2.69h1.56v-2.54l3.58-.82Z"/><path class="cls-3" d="M182.97,65.55l1.75,5.76c.19,.7,.43,1.56,.58,2.18h.07c.17-.62,.36-1.51,.53-2.18l1.44-5.76h3.91l-2.74,7.73c-1.68,4.66-2.81,6.53-4.13,7.71-1.27,1.1-2.62,1.49-3.53,1.61l-.77-3.1c.46-.07,1.03-.29,1.58-.62,.55-.29,1.15-.86,1.51-1.46,.12-.17,.19-.36,.19-.53,0-.12-.02-.31-.17-.6l-4.3-10.73h4.06Z"/><path class="cls-3" d="M203.66,65.55c-.05,.74-.1,1.73-.1,3.48v6.55c0,2.26-.46,4.1-1.78,5.28-1.3,1.1-3.05,1.44-4.78,1.44-1.54,0-3.17-.31-4.22-.91l.72-2.76c.74,.43,2.04,.89,3.41,.89,1.73,0,3.05-.94,3.05-3.1v-.77h-.05c-.7,.98-1.82,1.54-3.17,1.54-2.9,0-4.97-2.35-4.97-5.74,0-3.77,2.45-6.17,5.33-6.17,1.61,0,2.62,.7,3.22,1.66h.05l.12-1.39h3.17Zm-3.74,4.78c0-.24-.02-.48-.07-.67-.26-.96-.96-1.61-1.97-1.61-1.32,0-2.4,1.2-2.4,3.34,0,1.75,.86,3.12,2.4,3.12,.94,0,1.68-.62,1.92-1.49,.1-.26,.12-.65,.12-.96v-1.73Z"/><path class="cls-3" d="M218.08,71.28c0,4.3-3.05,6.26-6.19,6.26-3.43,0-6.07-2.26-6.07-6.05s2.5-6.22,6.26-6.22,6,2.47,6,6Zm-8.5,.12c0,2.02,.84,3.53,2.4,3.53,1.42,0,2.33-1.42,2.33-3.53,0-1.75-.67-3.53-2.33-3.53-1.75,0-2.4,1.8-2.4,3.53Z"/><path class="cls-3" d="M231.78,60.24v13.54c0,1.32,.05,2.71,.1,3.5h-3.24l-.17-1.73h-.05c-.74,1.32-2.16,1.99-3.67,1.99-2.78,0-5.02-2.38-5.02-6.02-.02-3.96,2.45-6.24,5.26-6.24,1.44,0,2.57,.5,3.1,1.32h.05v-6.36h3.65Zm-3.65,10.27c0-.19-.02-.46-.05-.65-.22-.98-1.01-1.8-2.14-1.8-1.66,0-2.52,1.49-2.52,3.34,0,1.99,.98,3.24,2.5,3.24,1.06,0,1.9-.72,2.11-1.75,.07-.26,.1-.53,.1-.84v-1.54Z"/><path class="cls-3" d="M234.71,69.29c0-1.46-.05-2.71-.1-3.74h3.17l.17,1.61h.07c.48-.74,1.68-1.87,3.62-1.87,2.4,0,4.2,1.58,4.2,5.04v6.96h-3.65v-6.5c0-1.51-.53-2.54-1.85-2.54-1.01,0-1.61,.7-1.85,1.37-.1,.22-.14,.58-.14,.91v6.77h-3.65v-7.99Z"/><path class="cls-3" d="M252.54,62.28c0,1.01-.77,1.82-1.97,1.82s-1.92-.82-1.9-1.82c-.02-1.06,.74-1.85,1.92-1.85s1.92,.79,1.94,1.85Zm-3.77,15v-11.74h3.65v11.74h-3.65Z"/></g></g></g></svg>