<?xml version="1.0" encoding="UTF-8"?><svg id="Layer_2" xmlns="http://www.w3.org/2000/svg" xmlns:xlink="http://www.w3.org/1999/xlink" viewBox="0 0 298.08 266.4"><defs><style>.cls-1{fill:url(#New_Gradient_Swatch_copy);}.cls-2{fill:#043a25;}.cls-3{fill:url(#New_Gradient_Swatch_copy-2);}</style><linearGradient id="New_Gradient_Swatch_copy" x1="5.31" y1="247.99" x2="293.48" y2="247.99" gradientUnits="userSpaceOnUse"><stop offset="0" stop-color="#f1e5b3"/><stop offset=".29" stop-color="#decb7c"/><stop offset="1" stop-color="#bba16b"/></linearGradient><linearGradient id="New_Gradient_Swatch_copy-2" x1="122.79" y1="54.37" x2="175.28" y2="54.37" xlink:href="#New_Gradient_Swatch_copy"/></defs><g id="Layer_14"><g><rect class="cls-1" x="5.31" y="237.53" width="288.17" height="20.93"/><g><path class="cls-2" d="M102.51,58.57H33.8c-12.06,0-21.86,9.81-21.86,21.86V232.55H5.45c-3.01,0-5.45,2.45-5.45,5.46v7.33c0,11.61,9.45,21.06,21.06,21.06h255.96c11.61,0,21.06-9.45,21.06-21.06v-7.33c0-3.01-2.45-5.46-5.45-5.46h0s-6.48,0-6.48,0V125.56c0-2.41-1.96-4.37-4.37-4.37s-4.37,1.96-4.37,4.37v106.99H38.28c-2.41,0-2.41,8.74,0,8.74h251.06v4.05c0,6.8-5.53,12.32-12.32,12.32H21.06c-6.8,0-12.32-5.53-12.32-12.32v-4.05h31.85c2.41,0,2.41-8.74,0-8.74H20.67V80.43c0-7.24,5.89-13.12,13.12-13.12H106.66"/><path class="cls-2" d="M200.28,67.31h14.89s49.12,0,49.12,0c7.24,0,13.12,5.89,13.12,13.12v26.5c0,2.41,1.96,4.37,4.37,4.37s4.37-1.96,4.37-4.37v-26.5c0-12.05-9.81-21.86-21.86-21.86h-62.81"/><path class="cls-2" d="M105.02,76.06H33.78c-2.41,0-4.37,1.96-4.37,4.37h0s0,139.01,0,139.01c0,2.41,1.96,4.37,4.37,4.37h230.52c1.16,0,2.27-.46,3.09-1.28s1.28-1.93,1.28-3.09V80.42c-.01-2.41-1.97-4.37-4.38-4.37h-69.14c-2.41,0-5.14,8.74-2.73,8.74h67.49s.01,130.28,.01,130.28H38.15V84.8H105.59"/><path class="cls-2" d="M149.33,106.83c29.45,0,53.41-23.96,53.41-53.41,0-8.52-1.96-16.67-5.82-24.24-1.1-2.15-8.88,1.82-7.78,3.97,3.23,6.33,4.87,13.15,4.87,20.27,0,24.63-20.04,44.67-44.67,44.67s-44.67-20.04-44.67-44.67S124.7,8.74,149.33,8.74c10.75,0,21.15,3.89,29.27,10.94,1.82,1.58,7.55-5.02,5.73-6.6C174.62,4.65,162.19,0,149.33,0c-29.45,0-53.41,23.96-53.41,53.41s23.96,53.41,53.41,53.41h0Z"/><g><path class="cls-2" d="M183.57,37.3c1.09,1.08,1.69,2.53,1.69,4.06s-.6,2.99-1.69,4.08l-33.02,33.02c-2.48,2.48-5.77,3.84-9.27,3.84s-6.8-1.36-9.27-3.84l-17.51-17.5c-1.09-1.09-1.68-2.53-1.68-4.07s.59-2.98,1.68-4.07l10.4-10.4c2.25-2.24,5.9-2.24,8.14,0l8.24,8.24,23.76-23.76c2.24-2.25,5.89-2.25,8.13-.01l10.4,10.41Zm-39.2,34.98l30.91-30.92-6.17-6.17-23.76,23.76c-2.25,2.24-5.9,2.24-8.14,0l-8.24-8.24-6.18,6.18,15.4,15.39c.82,.83,1.92,1.28,3.09,1.28s2.26-.45,3.09-1.28Z"/><path class="cls-3" d="M175.28,41.36l-30.91,30.92c-.83,.83-1.93,1.28-3.09,1.28s-2.27-.45-3.09-1.28l-15.4-15.39,6.18-6.18,8.24,8.24c2.24,2.24,5.89,2.24,8.14,0l23.76-23.76,6.17,6.17Z"/></g></g><g><path class="cls-2" d="M49.54,159.72l10.84-15.61v-.13h-9.83v-4.26h16.52v2.97l-10.61,15.41v.13h10.78v4.26h-17.7v-2.77Z"/><path class="cls-2" d="M76.06,156.64l-1.62,5.84h-5.34l6.96-22.77h6.76l7.06,22.77h-5.54l-1.76-5.84h-6.52Zm5.78-3.85l-1.42-4.83c-.41-1.35-.81-3.04-1.15-4.39h-.07c-.34,1.35-.68,3.07-1.05,4.39l-1.35,4.83h5.03Z"/><path class="cls-2" d="M112.16,153.77c-.1-2.74-.2-6.05-.2-9.36h-.1c-.71,2.91-1.66,6.15-2.53,8.82l-2.77,8.88h-4.02l-2.43-8.82c-.74-2.67-1.52-5.91-2.06-8.88h-.07c-.13,3.07-.24,6.59-.41,9.43l-.41,8.65h-4.76l1.45-22.77h6.86l2.23,7.6c.71,2.64,1.42,5.47,1.92,8.14h.1c.64-2.63,1.42-5.64,2.16-8.17l2.43-7.57h6.72l1.25,22.77h-5.03l-.34-8.72Z"/><path class="cls-2" d="M142.33,150.86c0,7.47-4.53,11.99-11.18,11.99s-10.71-5.1-10.71-11.59c0-6.82,4.36-11.93,11.08-11.93s10.81,5.24,10.81,11.52Zm-16.45,.3c0,4.46,2.09,7.6,5.54,7.6s5.47-3.31,5.47-7.74c0-4.09-1.96-7.6-5.51-7.6s-5.51,3.31-5.51,7.74Zm11.38-16.86l-4.12,4.16h-4.12l2.84-4.16h5.41Z"/><path class="cls-2" d="M149.14,162.49l-5.41-22.77h5.51l1.72,9.39c.51,2.7,.98,5.64,1.35,7.94h.07c.37-2.47,.91-5.2,1.49-8.01l1.93-9.32h5.47l1.82,9.59c.51,2.67,.88,5.1,1.22,7.64h.07c.34-2.53,.84-5.2,1.32-7.91l1.86-9.32h5.24l-5.88,22.77h-5.57l-1.93-9.8c-.44-2.3-.81-4.43-1.08-7.03h-.07c-.41,2.57-.78,4.73-1.32,7.03l-2.16,9.8h-5.64Z"/><path class="cls-2" d="M180.62,139.72v22.77h-5.17v-22.77h5.17Z"/><path class="cls-2" d="M198.63,152.86h-8.38v5.41h9.36v4.22h-14.53v-22.77h14.05v4.22h-8.88v4.73h8.38v4.19Z"/><path class="cls-2" d="M203.12,162.49v-22.77h6.01l4.73,8.34c1.35,2.4,2.7,5.24,3.72,7.8h.1c-.34-3.01-.44-6.08-.44-9.49v-6.66h4.73v22.77h-5.4l-4.87-8.78c-1.35-2.43-2.84-5.37-3.95-8.04l-.1,.03c.13,3.01,.2,6.22,.2,9.93v6.86h-4.73Z"/><path class="cls-2" d="M231.59,139.72v22.77h-5.17v-22.77h5.17Z"/><path class="cls-2" d="M249.59,152.86h-8.38v5.41h9.36v4.22h-14.53v-22.77h14.05v4.22h-8.88v4.73h8.38v4.19Z"/></g></g></g></svg>