<?xml version="1.0" encoding="UTF-8"?><svg id="Layer_2" xmlns="http://www.w3.org/2000/svg" xmlns:xlink="http://www.w3.org/1999/xlink" viewBox="0 0 473.18 251.3"><defs><style>.cls-1{fill:url(#New_Gradient_Swatch_copy);}.cls-2{letter-spacing:.02em;}.cls-3{font-family:MyriadPro-Regular, 'Myriad Pro';font-size:20.34px;}.cls-3,.cls-4{fill:#fff;}.cls-5{fill:#043a25;}.cls-6{letter-spacing:0em;}.cls-7{fill:url(#New_Gradient_Swatch_copy-3);}.cls-8{fill:url(#New_Gradient_Swatch_copy-5);}.cls-9{fill:url(#New_Gradient_Swatch_copy-4);}.cls-10{fill:url(#New_Gradient_Swatch_copy-2);}.cls-4{font-family:MyriadPro-Bold, 'Myriad Pro';font-size:40.65px;}.cls-11{letter-spacing:0em;}</style><linearGradient id="New_Gradient_Swatch_copy" x1="13.27" y1="134.93" x2="219.56" y2="134.93" gradientUnits="userSpaceOnUse"><stop offset="0" stop-color="#f1e5b3"/><stop offset=".29" stop-color="#decb7c"/><stop offset="1" stop-color="#bba16b"/></linearGradient><linearGradient id="New_Gradient_Swatch_copy-2" x1="311.23" y1="111.87" x2="333.66" y2="111.87" xlink:href="#New_Gradient_Swatch_copy"/><linearGradient id="New_Gradient_Swatch_copy-3" x1="311.23" y1="156.33" x2="333.66" y2="156.33" xlink:href="#New_Gradient_Swatch_copy"/><linearGradient id="New_Gradient_Swatch_copy-4" x1="310.84" y1="200.08" x2="333.26" y2="200.08" xlink:href="#New_Gradient_Swatch_copy"/><linearGradient id="New_Gradient_Swatch_copy-5" x1="-1098.6" y1="693.78" x2="-1016.78" y2="693.78" gradientTransform="translate(1479.1 -529.5)" xlink:href="#New_Gradient_Swatch_copy"/></defs><g id="Layer_14"><g><path class="cls-1" d="M13.46,203.48c-4.4-13.25,69.92-40.51,69.92-40.51l22.09-.13s61.21-99.01,85.88-104.9c12.54-2.99,28.21,43.18,28.21,43.18,0,0-56.17,36.59-69.21,58.03-13.04,21.45-13.66,38.5-23.6,44.88-19.96,12.82-110.3,8.42-113.28-.57Z"/><path class="cls-5" d="M238.11,213.04c-2.11,0-3.81-1.71-3.81-3.82V52.77c0-2.11,1.71-3.82,3.82-3.82,2.11,0,3.82,1.71,3.82,3.82V209.22s0,0,0,0c0,2.11-1.71,3.81-3.82,3.81h0Z"/><path class="cls-5" d="M226.67,68.03c-1.01,0-1.98-.4-2.7-1.12-1.49-1.49-1.49-3.91,0-5.4l11.45-11.45c1.51-1.43,3.88-1.43,5.4,0l11.45,11.45c1.47,1.49,1.47,3.88,0,5.36-1.48,1.5-3.9,1.51-5.4,.03l-8.75-8.75-8.75,8.75c-.71,.72-1.69,1.12-2.7,1.12h0Z"/><path class="cls-5" d="M24.51,251.3c-1.01,0-1.98-.4-2.7-1.12l-11.54-11.54c-1.49-1.49-1.49-3.91,0-5.4,1.49-1.49,3.91-1.49,5.4,0l11.54,11.54c.72,.72,1.12,1.69,1.12,2.7,0,2.11-1.71,3.82-3.82,3.82h0Z"/><path class="cls-5" d="M9.15,235.95c0-2.11,1.71-3.82,3.82-3.82H211.4c2.11,0,3.82,1.71,3.82,3.82s-1.71,3.82-3.82,3.82H12.97c-2.11,0-3.82-1.71-3.82-3.82Z"/><path class="cls-5" d="M199.95,251.21c-1.01,0-1.98-.4-2.7-1.12-1.49-1.49-1.49-3.91,0-5.4l8.75-8.75-8.75-8.75c-1.49-1.49-1.49-3.91,0-5.4,1.49-1.49,3.91-1.49,5.4,0l11.45,11.45s0,0,0,0c1.49,1.49,1.49,3.91,0,5.39l-11.45,11.45c-.71,.72-1.69,1.12-2.7,1.12h0Z"/><path class="cls-5" d="M12.97,239.76c-1.01,0-1.98-.4-2.7-1.12-1.49-1.49-1.49-3.91,0-5.4l11.45-11.45c1.49-1.49,3.91-1.49,5.4,0s1.49,3.91,0,5.4l-11.45,11.45c-.71,.72-1.69,1.12-2.7,1.12h0Z"/><path class="cls-5" d="M238.11,213.02c-1.01,0-1.98-.4-2.7-1.11l-11.45-11.43c-1.48-1.49-1.49-3.9,0-5.39,1.49-1.5,3.9-1.5,5.4-.02l8.75,8.74,8.75-8.74s.02-.02,.03-.03c1.5-1.48,3.92-1.47,5.4,.03,1.48,1.5,1.47,3.92-.03,5.4l-11.45,11.43c-.71,.72-1.69,1.12-2.7,1.12h0Z"/><path class="cls-5" d="M92.63,163.44h-11.07c-2.11,0-3.82-1.71-3.82-3.82s1.71-3.82,3.82-3.82h8.45c4.48,.28,8.98,.17,13.44-.32,4.66-2,8.33-5.78,10.18-10.49,.06-.12,.13-.23,.19-.34l13.81-21.85c9.45-14.89,20.21-28.91,32.15-41.9l28.35-30.72c1.33-1.44,3.52-1.64,5.09-.47,3.46,2.59,6.69,5.47,9.66,8.6,4.16,4.44,7.78,9.37,10.78,14.66,5.23,9.79,8.38,20.56,9.27,31.62,.17,2.09-1.38,3.93-3.47,4.11-2.1,.18-3.95-1.37-4.13-3.47-.79-9.98-3.62-19.69-8.32-28.53-4.02-7.16-9.33-13.53-15.66-18.77l-25.95,28.12c-11.63,12.64-22.11,26.3-31.31,40.81l-13.71,21.68c-3.92,7.84-8.94,12.65-14.91,14.28-4.24,.77-8.55,.97-12.84,.59h0Z"/><path class="cls-5" d="M20.72,213.04c-6.46-.03-11.68-5.28-11.65-11.74,0-4.28,2.44-8.19,6.28-10.08l64.4-34.95h0c1.85-1,4.17-.32,5.17,1.54s.32,4.17-1.54,5.17L18.85,197.99c-1.38,.67-2.22,2.09-2.16,3.62,.11,2.2,1.97,3.89,4.17,3.8H104.79c10.65,.11,20.46-5.79,25.36-15.25l5.87-11.77c7.34-14.79,16.99-28.31,28.6-40.05,2.71-2.7,5.68-5.14,8.87-7.26l3.69-2.5c1.74-1.17,4.09-.72,5.28,1.01,1.19,1.74,.75,4.11-.99,5.3l-3.69,2.5c-2.77,1.84-5.36,3.96-7.72,6.31-11.04,11.16-20.22,24.02-27.2,38.08l-5.87,11.77c-6.19,12.05-18.64,19.59-32.19,19.49H20.87c-.05,0-.1,0-.15,0Z"/><path class="cls-5" d="M199.86,213.05c-2.02,0-3.69-1.58-3.8-3.6-.64-11.05-1.29-22.11-1.95-33.18l-.3-5.01c-.87-14.15-6.2-27.66-15.23-38.58-1.35-1.62-1.12-4.03,.5-5.37,1.62-1.35,4.03-1.12,5.37,.5,10.07,12.17,16.01,27.23,16.98,43l.3,5c.67,11.06,1.32,22.12,1.95,33.2,0,0,0,0,0,0,.12,2.1-1.49,3.9-3.59,4.02-.07,0-.15,0-.22,0h0Z"/><path class="cls-5" d="M199.87,213.05c-2.11,0-3.82-1.7-3.82-3.81s1.7-3.82,3.81-3.82h4.21s10.34-92.74,10.34-92.74l-32.97,22.2h0c-1.74,1.19-4.12,.73-5.3-1.01s-.73-4.12,1.01-5.3l39.84-26.81c.75-.5,1.66-.73,2.56-.63,2.09,.24,3.6,2.12,3.37,4.22l-11.64,104.3c-.22,1.93-1.85,3.39-3.79,3.39h-7.62s0,0,0,0h0Z"/></g><g><path class="cls-5" d="M413.52,239.85h-119.31c-6.59,0-11.93-5.34-11.93-11.93V76.79c0-1.05,.42-2.07,1.17-2.81l23.86-23.86c.75-.75,1.76-1.17,2.81-1.17h103.4c6.59,0,11.93,5.34,11.93,11.93v67.61h-7.95V60.88c0-2.2-1.78-3.98-3.98-3.98h-101.76l-21.53,21.53V227.92c0,2.2,1.78,3.98,3.98,3.98h119.31c2.2,0,3.98-1.78,3.98-3.98v-27.84h7.95v27.84c0,6.59-5.34,11.93-11.93,11.93Z"/><path class="cls-5" d="M310.12,80.77h-23.86v-7.95h19.88v-15.91h7.95v19.89c0,2.2-1.78,3.98-3.98,3.98Z"/><rect class="cls-10" x="311.23" y="100.65" width="22.42" height="22.42"/><rect class="cls-7" x="311.23" y="145.12" width="22.42" height="22.42"/><rect class="cls-9" x="310.84" y="188.87" width="22.42" height="22.42"/><rect class="cls-8" x="380.5" y="154.67" width="81.82" height="19.22" transform="translate(7.26 346.1) rotate(-45)"/><path class="cls-5" d="M333.98,128.49h-23.86c-2.2,0-3.98-1.78-3.98-3.98v-23.86c0-2.2,1.78-3.98,3.98-3.98h23.86c2.2,0,3.98,1.78,3.98,3.98v23.86c0,2.2-1.78,3.98-3.98,3.98Zm-19.89-7.95h15.91v-15.91h-15.91v15.91Z"/><path class="cls-5" d="M333.98,172.24h-23.86c-2.2,0-3.98-1.78-3.98-3.98v-23.86c0-2.2,1.78-3.98,3.98-3.98h23.86c2.2,0,3.98,1.78,3.98,3.98v23.86c0,2.2-1.78,3.98-3.98,3.98Zm-19.89-7.96h15.91v-15.91h-15.91v15.91Z"/><path class="cls-5" d="M333.98,215.99h-23.86c-2.2,0-3.98-1.78-3.98-3.98v-23.86c0-2.2,1.78-3.98,3.98-3.98h23.86c2.2,0,3.98,1.78,3.98,3.98v23.86c0,2.2-1.78,3.98-3.98,3.98Zm-19.89-7.95h15.91v-15.91h-15.91v15.91Z"/><path class="cls-5" d="M349.89,100.65h51.7v7.95h-51.7v-7.95Z"/><path class="cls-5" d="M349.89,116.56h51.7v7.96h-51.7v-7.96Z"/><path class="cls-5" d="M349.89,144.4h51.7v7.95h-51.7v-7.95Z"/><path class="cls-5" d="M349.89,160.31h35.79v7.95h-35.79v-7.95Z"/><path class="cls-5" d="M349.89,188.15h15.91v7.96h-15.91v-7.96Z"/><path class="cls-5" d="M349.89,204.06h15.91v7.95h-15.91v-7.95Z"/><path class="cls-5" d="M399.6,207.37c-1.05,0-2.07-.42-2.81-1.17l-17.23-17.23c-1.55-1.55-1.55-4.07,0-5.62l66.04-66.02c6.31-6.31,16.54-6.31,22.85,0,6.3,6.32,6.3,16.54,0,22.85l-66.04,66.02c-.75,.75-1.76,1.17-2.81,1.17Zm-11.61-21.21l11.61,11.61,63.23-63.24c3.2-3.21,3.2-8.4,0-11.6-3.25-3.09-8.35-3.09-11.6,0l-63.25,63.23Z"/><path class="cls-5" d="M373.75,215.99c-1.28,0-2.48-.62-3.22-1.65-.75-1.04-.95-2.37-.55-3.58l8.61-25.85,7.56,2.52-6.1,18.29,18.3-6.1,2.51,7.56-25.85,8.61c-.41,.13-.83,.2-1.26,.2Z"/><path class="cls-5" d="M439.85,128.69l5.62-5.62,17.23,17.23-5.62,5.62-17.23-17.23Z"/><path class="cls-5" d="M396.78,183.36l51.68-51.68,5.62,5.62-51.68,51.68-5.62-5.62Z"/></g></g><g id="TEST"><g><circle class="cls-5" cx="58.52" cy="58.52" r="58.52"/><text class="cls-4" transform="translate(12.97 60.5)"><tspan x="0" y="0">7 dni</tspan></text><text class="cls-3" transform="translate(13.2 78.91)"><tspan class="cls-11" x="0" y="0">r</tspan><tspan class="cls-6" x="6.45" y="0">oboc</tspan><tspan class="cls-2" x="49.46" y="0">z</tspan><tspan class="cls-11" x="58.66" y="0">y</tspan><tspan x="68.03" y="0">ch</tspan></text></g></g></svg>