<?xml version="1.0" encoding="UTF-8"?><svg id="Layer_2" xmlns="http://www.w3.org/2000/svg" xmlns:xlink="http://www.w3.org/1999/xlink" viewBox="0 0 230.61 272.65"><defs><style>.cls-1{fill:url(#New_Gradient_Swatch_copy);}.cls-2{fill:#043a25;}</style><linearGradient id="New_Gradient_Swatch_copy" x1="39.09" y1="31.89" x2="200.83" y2="31.89" gradientUnits="userSpaceOnUse"><stop offset="0" stop-color="#f1e5b3"/><stop offset=".29" stop-color="#decb7c"/><stop offset="1" stop-color="#bba16b"/></linearGradient></defs><g id="WYBOR"><g><path class="cls-2" d="M30.27,249.81c1.59-.27,3.82-.47,6.96-.47s5.44,.61,6.96,1.82c1.45,1.15,2.43,3.04,2.43,5.27s-.74,4.12-2.09,5.41c-1.76,1.66-4.36,2.4-7.4,2.4-.68,0-1.28-.03-1.76-.1v8.14h-5.1v-22.47Zm5.1,10.34c.44,.1,.98,.13,1.72,.13,2.74,0,4.43-1.38,4.43-3.72,0-2.09-1.45-3.34-4.02-3.34-1.05,0-1.76,.1-2.13,.2v6.72Z"/><path class="cls-2" d="M50.13,272.28v-7.94l-2.57,1.72v-3.55l2.57-1.76v-11.25h5.14v7.84l4.26-2.87v3.58l-4.26,2.87v7.03h9.05v4.32h-14.19Z"/><path class="cls-2" d="M72.86,266.43l-1.62,5.84h-5.34l6.96-22.77h6.76l7.06,22.77h-5.54l-1.76-5.84h-6.52Zm5.78-3.85l-1.42-4.83c-.41-1.35-.81-3.04-1.15-4.39h-.07c-.34,1.35-.68,3.07-1.05,4.39l-1.35,4.83h5.03Z"/><path class="cls-2" d="M91.3,253.83h-6.11v-4.32h17.5v4.32h-6.22v18.45h-5.17v-18.45Z"/><path class="cls-2" d="M105.42,272.28v-22.77h6.01l4.73,8.34c1.35,2.4,2.7,5.24,3.72,7.8h.1c-.34-3.01-.44-6.08-.44-9.49v-6.66h4.73v22.77h-5.41l-4.86-8.78c-1.35-2.43-2.84-5.37-3.95-8.04l-.1,.03c.13,3.01,.2,6.22,.2,9.93v6.86h-4.73Z"/><path class="cls-2" d="M149.57,260.66c0,7.47-4.53,11.99-11.18,11.99s-10.71-5.1-10.71-11.59c0-6.82,4.36-11.93,11.08-11.93s10.81,5.24,10.81,11.52Zm-16.45,.3c0,4.46,2.09,7.6,5.54,7.6s5.47-3.31,5.47-7.74c0-4.09-1.96-7.6-5.51-7.6s-5.51,3.31-5.51,7.74Z"/><path class="cls-2" d="M153.11,266.97c1.39,.71,3.51,1.42,5.71,1.42,2.36,0,3.61-.98,3.61-2.47s-1.08-2.23-3.82-3.21c-3.78-1.32-6.25-3.41-6.25-6.72,0-3.88,3.24-6.86,8.62-6.86,2.57,0,4.46,.54,5.81,1.15l-1.15,4.16c-.91-.44-2.53-1.08-4.76-1.08s-3.31,1.01-3.31,2.2c0,1.45,1.28,2.09,4.22,3.21,4.02,1.49,5.91,3.58,5.91,6.79,0,3.82-2.94,7.06-9.19,7.06-2.6,0-5.17-.68-6.45-1.38l1.05-4.26Zm12.91-22.87l-4.16,4.16h-4.12l2.87-4.16h5.41Z"/><path class="cls-2" d="M187.9,271.64c-.95,.47-3.07,.98-5.84,.98-7.87,0-11.92-4.9-11.92-11.38,0-7.77,5.54-12.09,12.43-12.09,2.67,0,4.7,.54,5.61,1.01l-1.05,4.09c-1.05-.44-2.5-.84-4.32-.84-4.09,0-7.26,2.47-7.26,7.53,0,4.56,2.7,7.43,7.3,7.43,1.55,0,3.28-.34,4.29-.74l.78,4.02Zm-.81-27.53l-4.12,4.16h-4.12l2.84-4.16h5.41Z"/></g></g><g id="platnosc"><g><polygon class="cls-1" points="39.09 62.9 158.05 .71 200.83 63.07 39.09 62.9"/><g><path class="cls-2" d="M220.13,116.27v-32.41c0-10.99-8.53-19.93-19.3-20.8l-30.1-52.58c-2.79-4.86-7.29-8.34-12.68-9.78-5.36-1.43-10.97-.68-15.77,2.11L39.09,62.9H20.96c-11.56,0-20.96,9.4-20.96,20.96v125.79c0,11.56,9.4,20.96,20.96,20.96H199.16c11.56,0,20.96-9.4,20.96-20.96v-32.41c6.09-2.17,10.48-7.93,10.48-14.76v-31.45c0-6.82-4.39-12.59-10.48-14.76Zm-31.48-53.38h-45.68l34.26-19.95,11.42,19.95Zm-16.63-29.04l-49.89,29.04h-20.69L166.85,24.82l5.17,9.04Zm-24.47-21.97c2.37-1.39,5.14-1.76,7.79-1.05,2.68,.72,4.91,2.45,6.3,4.87v.02S80.61,62.9,80.61,62.9h-20.69L147.55,11.88Zm62.1,197.77c0,5.78-4.7,10.48-10.48,10.48H20.96c-5.78,0-10.48-4.7-10.48-10.48V83.86c0-5.78,4.7-10.48,10.48-10.48H199.16c5.78,0,10.48,4.7,10.48,10.48v31.45h-31.45c-17.34,0-31.45,14.11-31.45,31.45s14.11,31.45,31.45,31.45h31.45v31.45h0Zm10.48-47.17c0,2.89-2.35,5.24-5.24,5.24h-36.69c-11.56,0-20.96-9.4-20.96-20.96s9.4-20.96,20.96-20.96h36.69c2.89,0,5.24,2.35,5.24,5.24v31.45Z"/><path class="cls-2" d="M178.2,136.27c-5.78,0-10.48,4.7-10.48,10.48s4.7,10.48,10.48,10.48,10.48-4.7,10.48-10.48c0-5.78-4.7-10.48-10.48-10.48Z"/></g></g></g></svg>