<?xml version="1.0" encoding="UTF-8"?><svg id="Layer_2" xmlns="http://www.w3.org/2000/svg" xmlns:xlink="http://www.w3.org/1999/xlink" viewBox="0 0 290.97 324.2"><defs><style>.cls-1{fill:url(#New_Gradient_Swatch_copy);}.cls-2{fill:#043a25;}.cls-3{fill:#fff;}</style><linearGradient id="New_Gradient_Swatch_copy" x1="31.63" y1="51.1" x2="111.11" y2="51.1" gradientTransform="translate(0 0)" gradientUnits="userSpaceOnUse"><stop offset="0" stop-color="#f1e5b3"/><stop offset=".29" stop-color="#decb7c"/><stop offset="1" stop-color="#bba16b"/></linearGradient></defs><g id="WYBOR"><g><path class="cls-2" d="M0,260.83c1.59-.27,3.82-.47,6.96-.47s5.44,.61,6.96,1.82c1.45,1.15,2.43,3.04,2.43,5.27s-.74,4.12-2.09,5.41c-1.76,1.66-4.36,2.4-7.4,2.4-.68,0-1.28-.03-1.76-.1v8.14H0v-22.47Zm5.1,10.34c.44,.1,.98,.13,1.72,.13,2.74,0,4.43-1.38,4.43-3.72,0-2.09-1.45-3.34-4.02-3.34-1.05,0-1.76,.1-2.13,.2v6.72Z"/><path class="cls-2" d="M19.62,260.83c1.66-.27,4.12-.47,6.86-.47,3.38,0,5.74,.51,7.36,1.79,1.35,1.08,2.09,2.67,2.09,4.76,0,2.91-2.06,4.9-4.02,5.61v.1c1.59,.64,2.47,2.16,3.04,4.26,.71,2.57,1.42,5.54,1.86,6.42h-5.27c-.37-.64-.91-2.5-1.59-5.3-.61-2.84-1.59-3.62-3.68-3.65h-1.55v8.95h-5.1v-22.47Zm5.1,9.8h2.03c2.57,0,4.09-1.28,4.09-3.28,0-2.09-1.42-3.14-3.78-3.18-1.25,0-1.96,.1-2.33,.17v6.28Z"/><path class="cls-2" d="M38.2,280.52l10.84-15.61v-.13h-9.83v-4.26h16.52v2.97l-10.61,15.41v.13h10.78v4.26h-17.7v-2.77Z"/><path class="cls-2" d="M64.61,283.29v-9.32l-7.2-13.45h5.88l2.33,5.47c.71,1.66,1.18,2.87,1.76,4.36h.07c.51-1.42,1.05-2.74,1.72-4.36l2.3-5.47h5.78l-7.5,13.28v9.49h-5.13Z"/><path class="cls-2" d="M97.14,282.25c-1.59,.54-4.59,1.28-7.6,1.28-4.16,0-7.16-1.05-9.26-3.07-2.09-1.96-3.24-4.93-3.21-8.28,.03-7.57,5.54-11.89,13.01-11.89,2.94,0,5.2,.57,6.32,1.11l-1.08,4.12c-1.25-.54-2.8-.98-5.3-.98-4.29,0-7.53,2.43-7.53,7.37s2.94,7.47,7.16,7.47c1.18,0,2.13-.13,2.53-.34v-4.76h-3.51v-4.02h8.48v11.99Z"/><path class="cls-2" d="M122,271.67c0,7.47-4.53,11.99-11.18,11.99s-10.71-5.1-10.71-11.59c0-6.82,4.36-11.93,11.08-11.93s10.81,5.24,10.81,11.52Zm-16.45,.3c0,4.46,2.09,7.6,5.54,7.6s5.47-3.31,5.47-7.74c0-4.09-1.96-7.6-5.51-7.6s-5.51,3.31-5.51,7.74Z"/><path class="cls-2" d="M128.82,264.85h-6.11v-4.32h17.5v4.32h-6.22v18.45h-5.17v-18.45Z"/><path class="cls-2" d="M162.8,271.67c0,7.47-4.53,11.99-11.18,11.99s-10.71-5.1-10.71-11.59c0-6.82,4.36-11.93,11.08-11.93s10.81,5.24,10.81,11.52Zm-16.45,.3c0,4.46,2.09,7.6,5.54,7.6s5.47-3.31,5.47-7.74c0-4.09-1.96-7.6-5.51-7.6s-5.51,3.31-5.51,7.74Z"/><path class="cls-2" d="M169.62,283.29l-5.41-22.77h5.51l1.72,9.39c.51,2.7,.98,5.64,1.35,7.94h.07c.37-2.47,.91-5.2,1.49-8.01l1.93-9.32h5.47l1.82,9.59c.51,2.67,.88,5.1,1.22,7.64h.07c.34-2.53,.84-5.2,1.32-7.91l1.86-9.32h5.24l-5.88,22.77h-5.57l-1.93-9.8c-.44-2.3-.81-4.43-1.08-7.03h-.07c-.41,2.57-.78,4.73-1.32,7.03l-2.16,9.8h-5.64Z"/><path class="cls-2" d="M199.41,277.45l-1.62,5.84h-5.34l6.96-22.77h6.76l7.06,22.77h-5.54l-1.76-5.84h-6.52Zm5.78-3.85l-1.42-4.83c-.41-1.35-.81-3.04-1.15-4.39h-.07c-.34,1.35-.68,3.07-1.05,4.39l-1.35,4.83h5.03Z"/><path class="cls-2" d="M216.26,283.29v-22.77h6.01l4.73,8.34c1.35,2.4,2.7,5.24,3.72,7.8h.1c-.34-3.01-.44-6.08-.44-9.49v-6.66h4.73v22.77h-5.4l-4.87-8.78c-1.35-2.43-2.84-5.37-3.95-8.04l-.1,.03c.13,3.01,.2,6.22,.2,9.93v6.86h-4.73Z"/><path class="cls-2" d="M244.74,260.52v22.77h-5.17v-22.77h5.17Z"/><path class="cls-2" d="M262.74,273.67h-8.38v5.41h9.36v4.22h-14.53v-22.77h14.05v4.22h-8.88v4.73h8.38v4.19Z"/><path class="cls-2" d="M12.04,301.36c1.35-.27,4.09-.47,6.66-.47,3.14,0,5.07,.3,6.72,1.28,1.59,.84,2.74,2.4,2.74,4.46s-1.18,3.92-3.75,4.86v.07c2.6,.71,4.53,2.67,4.53,5.61,0,2.06-.95,3.68-2.36,4.83-1.66,1.32-4.43,2.06-8.95,2.06-2.53,0-4.43-.17-5.57-.34v-22.36Zm5.1,8.72h1.69c2.7,0,4.16-1.11,4.16-2.8s-1.32-2.63-3.65-2.63c-1.11,0-1.76,.07-2.2,.13v5.3Zm0,10.1c.51,.07,1.11,.07,1.99,.07,2.33,0,4.39-.88,4.39-3.28s-2.06-3.21-4.63-3.21h-1.76v6.42Z"/><path class="cls-2" d="M37.58,301.06v13.11c0,3.92,1.49,5.91,4.12,5.91s4.19-1.89,4.19-5.91v-13.11h5.13v12.77c0,7.03-3.55,10.37-9.49,10.37s-9.12-3.18-9.12-10.44v-12.7h5.17Z"/><path class="cls-2" d="M59.87,305.38h-6.11v-4.32h17.5v4.32h-6.22v18.45h-5.17v-18.45Z"/><path class="cls-2" d="M76.86,317.98l-1.62,5.84h-5.34l6.96-22.77h6.76l7.06,22.77h-5.54l-1.76-5.84h-6.52Zm5.78-3.85l-1.42-4.83c-.41-1.35-.81-3.04-1.15-4.39h-.07c-.34,1.35-.68,3.07-1.05,4.39l-1.35,4.83h5.03Z"/><path class="cls-2" d="M100.53,301.36c1.89-.3,4.36-.47,6.96-.47,4.32,0,7.13,.78,9.32,2.43,2.37,1.76,3.85,4.56,3.85,8.58,0,4.36-1.59,7.37-3.78,9.22-2.4,1.99-6.05,2.94-10.51,2.94-2.67,0-4.56-.17-5.84-.34v-22.36Zm5.17,18.58c.44,.1,1.15,.1,1.79,.1,4.66,.03,7.7-2.53,7.7-7.97,.03-4.73-2.74-7.23-7.16-7.23-1.15,0-1.89,.1-2.33,.2v14.9Z"/><path class="cls-2" d="M144.88,312.2c0,7.47-4.53,11.99-11.18,11.99s-10.71-5.1-10.71-11.59c0-6.82,4.36-11.93,11.08-11.93s10.81,5.24,10.81,11.52Zm-16.45,.3c0,4.46,2.09,7.6,5.54,7.6s5.47-3.31,5.47-7.74c0-4.09-1.96-7.6-5.51-7.6s-5.51,3.31-5.51,7.74Z"/><path class="cls-2" d="M174.34,315.11c-.1-2.74-.2-6.05-.2-9.36h-.1c-.71,2.91-1.66,6.15-2.53,8.82l-2.77,8.88h-4.02l-2.43-8.82c-.74-2.67-1.52-5.91-2.06-8.88h-.07c-.13,3.07-.24,6.59-.41,9.43l-.41,8.65h-4.76l1.45-22.77h6.86l2.23,7.6c.71,2.64,1.42,5.47,1.92,8.14h.1c.64-2.63,1.42-5.64,2.16-8.17l2.43-7.57h6.72l1.25,22.77h-5.03l-.34-8.72Z"/><path class="cls-2" d="M188.82,301.06v22.77h-5.17v-22.77h5.17Z"/><path class="cls-2" d="M198.58,317.98l-1.62,5.84h-5.34l6.96-22.77h6.76l7.06,22.77h-5.54l-1.76-5.84h-6.52Zm5.78-3.85l-1.42-4.83c-.41-1.35-.81-3.04-1.15-4.39h-.07c-.34,1.35-.68,3.07-1.05,4.39l-1.35,4.83h5.03Z"/><path class="cls-2" d="M215.44,301.36c1.66-.27,4.12-.47,6.86-.47,3.38,0,5.74,.51,7.36,1.79,1.35,1.08,2.09,2.67,2.09,4.76,0,2.91-2.06,4.9-4.02,5.61v.1c1.59,.64,2.47,2.16,3.04,4.26,.71,2.57,1.42,5.54,1.86,6.42h-5.27c-.37-.64-.91-2.5-1.59-5.3-.61-2.84-1.59-3.62-3.68-3.65h-1.55v8.95h-5.1v-22.47Zm5.1,9.8h2.03c2.57,0,4.09-1.28,4.09-3.28,0-2.09-1.42-3.14-3.78-3.18-1.25,0-1.96,.1-2.33,.17v6.28Z"/><path class="cls-2" d="M240.09,323.82v-9.32l-7.2-13.45h5.88l2.33,5.47c.71,1.66,1.18,2.87,1.76,4.36h.07c.51-1.42,1.05-2.74,1.72-4.36l2.3-5.47h5.78l-7.5,13.28v9.49h-5.13Z"/></g></g><g id="kopyto"><path class="cls-2" d="M225.45,217.09c-13.44,0-81.67-.86-104.9-17.77-5.68-4.13-12.1-17.54-18.91-31.74-5.37-11.19-12.72-26.52-16.3-27.79-1.59-.57-4-1.29-6.79-2.13-13.25-3.98-35.43-10.65-44.39-21.73-5.81-7.19-12.33-21.35-10.45-47.99,1.05-14.9,4.81-30.51,8.04-33.41,1.44-1.29,3.18-1,4.18-.05,3.63,2.64,42.2,10.77,66.7,10.77,8.41,0,17.67,17.1,30.84,43.19,6.26,12.39,12.73,25.21,16.59,28.69,2.94,2.65,11.23,8.98,21.74,16.98,48.78,37.18,65.7,51.89,67.05,58.29,1,4.73,.85,14.38-3.82,20.15-2.4,2.97-5.72,4.54-9.58,4.54ZM34.53,39.48c-3.87,8.44-12.98,52.71,3.61,73.24,7.96,9.85,30.03,16.48,41.88,20.05,2.86,.86,5.32,1.6,7.04,2.21,5.3,1.89,10.75,12.78,19.2,30.4,5.94,12.39,12.68,26.44,17.31,29.81,9.41,6.85,29.12,11.92,56.98,14.64,19.83,1.94,38.01,2.15,44.91,2.15,2.33,0,4.16-.86,5.6-2.64,3.33-4.11,3.64-11.9,2.79-15.86-.26-1.24-3.04-5.91-23.07-22.41-13.05-10.74-29.14-23.01-42.08-32.87-10.6-8.08-18.97-14.46-22.06-17.25-4.57-4.13-10.66-16.2-17.72-30.19-5.02-9.94-10.21-20.22-15.11-28.1-6.89-11.08-10.1-12.27-11.16-12.27-11.03,0-26.59-1.67-42.69-4.58-6.24-1.13-19.74-3.76-25.41-6.31Zm1.43-4.96s.02,.01,.02,.02c0,0-.01-.01-.02-.02Z"/><g><path class="cls-1" d="M32.98,36.19c-5.18,7.48,5.22,23.41,20.02,28.77,20.56,7.45,49.61,2,57.14-7.91,6.69-8.81-22.23-14.26-46.87-18.01-13.73-2.09-26.13-8.86-30.28-2.85Z"/><path class="cls-2" d="M74.54,70.76c-7.59,0-15.35-1.11-22.33-3.64-10.15-3.68-19.22-12.44-22.05-21.3-1.37-4.3-1.05-8.08,.93-10.94,3.74-5.4,11.32-3.35,20.11-.97,3.8,1.03,8.11,2.2,12.42,2.85,33.01,5.02,46.85,9.4,49.39,15.64,.56,1.39,.84,3.57-1.03,6.03-5.44,7.16-21.05,12.32-37.42,12.32ZM38.65,36.07c-1.75,0-3.07,.4-3.78,1.43h0c-1.43,2.07-.97,4.9-.33,6.92,2.05,6.41,9.31,14.78,19.23,18.37,9.16,3.32,20.94,4.21,32.32,2.44,10.43-1.62,18.94-5.29,22.2-9.58,.68-.9,.51-1.31,.43-1.52-.41-1.02-2.75-3.75-15.41-7.05-9.38-2.44-21.17-4.36-30.39-5.77-4.57-.69-9.01-1.9-12.93-2.96-4.42-1.2-8.46-2.29-11.33-2.29Zm-5.67,.12h0Z"/></g><path class="cls-2" d="M183.47,194.33c-.13,0-.26-.01-.39-.04-1.24-.28-30.4-6.81-39.56-11.83-13.26-7.26-22.3-18.59-23.32-50.24-1.24-38.58-20.56-67.09-20.76-67.38-.56-.82-.35-1.93,.46-2.49,.81-.56,1.93-.35,2.49,.46,.2,.29,20.11,29.68,21.38,69.29,1.07,33.31,11.64,41.83,21.46,47.21,8.71,4.77,38.32,11.4,38.62,11.47,.97,.22,1.57,1.17,1.36,2.14-.19,.83-.93,1.4-1.75,1.4Z"/><path class="cls-2" d="M239.35,243.58H23.38c-1.54,0-2.79-1.25-2.79-2.79s1.25-2.79,2.79-2.79H239.35c1.54,0,2.79,1.25,2.79,2.79s-1.25,2.79-2.79,2.79Z"/><g><circle class="cls-2" cx="232.45" cy="58.52" r="58.52"/><g><path class="cls-3" d="M240.52,27.14h-10.24l-.57,4.06c.57-.08,1.06-.08,1.71-.08,2.52,0,5.08,.57,6.95,1.91,1.99,1.34,3.21,3.54,3.21,6.62,0,4.92-4.23,9.27-11.34,9.27-3.21,0-5.89-.73-7.36-1.5l1.1-4.63c1.18,.57,3.58,1.3,5.98,1.3,2.56,0,5.28-1.22,5.28-4.02s-2.15-4.39-7.44-4.39c-1.46,0-2.48,.08-3.58,.24l1.75-13.86h14.55v5.08Z"/><path class="cls-3" d="M195.97,62.19v3.36h2.62v2.69h-2.62v4.25c0,1.42,.34,2.06,1.44,2.06,.46,0,.82-.05,1.08-.1l.02,2.76c-.48,.19-1.34,.31-2.38,.31-1.18,0-2.16-.41-2.74-1.01-.67-.7-1.01-1.82-1.01-3.48v-4.8h-1.56v-2.69h1.56v-2.54l3.58-.82Z"/><path class="cls-3" d="M203.56,65.55l1.75,5.76c.19,.7,.43,1.56,.58,2.18h.07c.17-.62,.36-1.51,.53-2.18l1.44-5.76h3.91l-2.74,7.73c-1.68,4.66-2.81,6.53-4.13,7.71-1.27,1.1-2.62,1.49-3.53,1.61l-.77-3.1c.46-.07,1.03-.29,1.58-.62,.55-.29,1.15-.86,1.51-1.46,.12-.17,.19-.36,.19-.53,0-.12-.02-.31-.17-.6l-4.3-10.73h4.06Z"/><path class="cls-3" d="M224.24,65.55c-.05,.74-.1,1.73-.1,3.48v6.55c0,2.26-.46,4.1-1.78,5.28-1.3,1.1-3.05,1.44-4.78,1.44-1.54,0-3.17-.31-4.22-.91l.72-2.76c.74,.43,2.04,.89,3.41,.89,1.73,0,3.05-.94,3.05-3.1v-.77h-.05c-.7,.98-1.82,1.54-3.17,1.54-2.9,0-4.97-2.35-4.97-5.74,0-3.77,2.45-6.17,5.33-6.17,1.61,0,2.62,.7,3.22,1.66h.05l.12-1.39h3.17Zm-3.74,4.78c0-.24-.02-.48-.07-.67-.26-.96-.96-1.61-1.97-1.61-1.32,0-2.4,1.2-2.4,3.34,0,1.75,.86,3.12,2.4,3.12,.94,0,1.68-.62,1.92-1.49,.1-.26,.12-.65,.12-.96v-1.73Z"/><path class="cls-3" d="M238.67,71.28c0,4.3-3.05,6.26-6.19,6.26-3.43,0-6.07-2.26-6.07-6.05s2.5-6.22,6.26-6.22,6,2.47,6,6Zm-8.5,.12c0,2.02,.84,3.53,2.4,3.53,1.42,0,2.33-1.42,2.33-3.53,0-1.75-.67-3.53-2.33-3.53-1.75,0-2.4,1.8-2.4,3.53Z"/><path class="cls-3" d="M252.37,60.24v13.54c0,1.32,.05,2.71,.1,3.5h-3.24l-.17-1.73h-.05c-.74,1.32-2.16,1.99-3.67,1.99-2.78,0-5.02-2.38-5.02-6.02-.02-3.96,2.45-6.24,5.26-6.24,1.44,0,2.57,.5,3.1,1.32h.05v-6.36h3.65Zm-3.65,10.27c0-.19-.02-.46-.05-.65-.22-.98-1.01-1.8-2.14-1.8-1.66,0-2.52,1.49-2.52,3.34,0,1.99,.98,3.24,2.5,3.24,1.06,0,1.9-.72,2.11-1.75,.07-.26,.1-.53,.1-.84v-1.54Z"/><path class="cls-3" d="M255.3,69.29c0-1.46-.05-2.71-.1-3.74h3.17l.17,1.61h.07c.48-.74,1.68-1.87,3.62-1.87,2.4,0,4.2,1.58,4.2,5.04v6.96h-3.65v-6.5c0-1.51-.53-2.54-1.85-2.54-1.01,0-1.61,.7-1.85,1.37-.1,.22-.14,.58-.14,.91v6.77h-3.65v-7.99Z"/><path class="cls-3" d="M273.13,62.28c0,1.01-.77,1.82-1.97,1.82s-1.92-.82-1.9-1.82c-.02-1.06,.74-1.85,1.92-1.85s1.92,.79,1.94,1.85Zm-3.77,15v-11.74h3.65v11.74h-3.65Z"/></g></g></g></svg>