<?xml version="1.0" encoding="UTF-8"?><svg id="Layer_2" xmlns="http://www.w3.org/2000/svg" xmlns:xlink="http://www.w3.org/1999/xlink" viewBox="0 0 322.56 292.42"><defs><style>.cls-1{fill:url(#New_Gradient_Swatch_copy);}.cls-2{fill:#043a25;}</style><linearGradient id="New_Gradient_Swatch_copy" x1="35.04" y1="67.62" x2="277.73" y2="67.62" gradientUnits="userSpaceOnUse"><stop offset="0" stop-color="#f1e5b3"/><stop offset=".29" stop-color="#decb7c"/><stop offset="1" stop-color="#bba16b"/></linearGradient></defs><g id="zamowienie"><g><path class="cls-1" d="M55.76,4.09s113.4,85.57,133.39,91.8c22.21,6.93,43.45-4.89,43.45-4.89l35.94,7.99,9.2,17.49s-29.31,14.67-76.81,14.67c-62.72,0-81.08-41.88-99.17-44.56s-55.56-18.92-55.56-18.92c0,0-10.37-10.38-11.14-26.03S55.76,4.09,55.76,4.09Z"/><path class="cls-2" d="M304.64,267.79v-76.92h8.05c5.44,0,9.87-4.43,9.87-9.87v-40c0-5.44-4.43-9.87-9.87-9.87h-50.34c13.31-4.04,21.39-7.98,22.14-8.35,2.66-1.33,3.93-4.41,3-7.23-.32-.97-8.19-23.76-31.9-23.76-16.18,0-21.99-4.81-22-4.81h0c-2.33-2.33-6.11-2.33-8.45,0-3.07,3.07-8.21,5.08-15.27,5.96-12.54,1.55-25.52-1.85-36.61-9.61L55.76,1.08c-2.69-1.89-6.39-1.25-8.28,1.42-30.83,43.16-13.38,66.04-7.17,72.15l11.3,56.49H9.87c-5.44,0-9.87,4.43-9.87,9.87v40c0,5.44,4.43,9.87,9.87,9.87h8.05v76.92c0,13.58,11.05,24.63,24.63,24.63h232.54c23.52,0,29.55-13.93,29.55-24.63Zm7.97-86.86h-123.47v-39.84h123.47v39.84Zm-169.25,0v-39.84h35.84v39.84h-35.84Zm35.84,9.95v89.6h-35.84v-89.6h35.84ZM83.66,83.9c12.48,3.12,35.69,17.94,63.67,40.67,3.08,2.5,6.36,4.67,9.76,6.57H78.61l4.76-47.31c.1,.03,.19,.04,.3,.07h0ZM51.86,12.34l114.56,78.79c13.52,9.46,29.48,13.63,44.94,11.67,7.52-.94,13.68-3.02,18.4-6.22,4.52,2.36,14.66,5.16,27.84,5.16,9.61,0,17.26,10.15,20.14,14.73-12.73,5.16-50.61,16.7-92.48,13.11-11.15-.95-21.66-5.2-30.39-12.29-21.02-17.07-49.94-38.4-68.3-42.99-20.55-5.14-35.34-6.36-40.37-6.64-3.94-4.19-16.72-21.85,3.66-53.32l2-2Zm-2.68,65.78c4.28,.48,18.44,1.4,26.45,3.05l-5.03,49.98h-10.82l-10.61-53.03ZM9.95,141.09h123.47v39.84H9.95v-39.84Zm19.92,126.7v-76.92h103.55v89.6H42.55c-6.99,0-12.68-5.69-12.68-12.68Zm159.28,12.68v-89.6h103.55v76.92c0,6.99-5.69,12.68-12.68,12.68h-90.86Z"/><path class="cls-2" d="M89.6,238.67H47.79c-3.3,0-5.97,2.67-5.97,5.97s2.67,5.97,5.97,5.97h41.81c3.3,0,5.97-2.67,5.97-5.97s-2.67-5.97-5.97-5.97Z"/><path class="cls-2" d="M65.71,256.59h-17.92c-3.3,0-5.97,2.67-5.97,5.97s2.67,5.97,5.97,5.97h17.92c3.3,0,5.97-2.67,5.97-5.97s-2.67-5.97-5.97-5.97Z"/></g></g></svg>