<?xml version="1.0" encoding="UTF-8"?><svg id="Layer_2" xmlns="http://www.w3.org/2000/svg" xmlns:xlink="http://www.w3.org/1999/xlink" viewBox="0 0 400.05 303.42"><defs><style>.cls-1{fill:url(#New_Gradient_Swatch_copy);}.cls-2{font-family:MyriadPro-Regular, 'Myriad Pro';font-size:20.34px;}.cls-2,.cls-3{fill:#fff;}.cls-4{letter-spacing:.02em;}.cls-5{fill:#043a25;}.cls-6{letter-spacing:0em;}.cls-7{fill:url(#New_Gradient_Swatch_copy-3);}.cls-8{fill:url(#New_Gradient_Swatch_copy-4);}.cls-9{fill:url(#New_Gradient_Swatch_copy-2);}.cls-3{font-family:MyriadPro-Bold, 'Myriad Pro';font-size:40.65px;}.cls-10{letter-spacing:0em;}</style><linearGradient id="New_Gradient_Swatch_copy" x1="253.52" y1="182.06" x2="273.81" y2="182.06" gradientUnits="userSpaceOnUse"><stop offset="0" stop-color="#f1e5b3"/><stop offset=".29" stop-color="#decb7c"/><stop offset="1" stop-color="#bba16b"/></linearGradient><linearGradient id="New_Gradient_Swatch_copy-2" y1="222.3" y2="222.3" xlink:href="#New_Gradient_Swatch_copy"/><linearGradient id="New_Gradient_Swatch_copy-3" x1="253.17" y1="261.88" x2="273.46" y2="261.88" xlink:href="#New_Gradient_Swatch_copy"/><linearGradient id="New_Gradient_Swatch_copy-4" x1="84.91" y1="1237.37" x2="158.94" y2="1237.37" gradientTransform="translate(231.28 -1007.87)" xlink:href="#New_Gradient_Swatch_copy"/></defs><g id="Layer_14"><g><path class="cls-5" d="M346.08,297.87h-107.95c-5.96,0-10.8-4.83-10.8-10.8V150.33c0-.95,.38-1.87,1.05-2.54l21.59-21.59c.67-.67,1.59-1.05,2.54-1.05h93.56c5.96,0,10.8,4.83,10.8,10.8v61.17h-7.2v-61.17c0-1.99-1.61-3.6-3.6-3.6h-92.07l-19.48,19.48v135.25c0,1.99,1.61,3.6,3.6,3.6h107.95c1.99,0,3.6-1.61,3.6-3.6v-25.19h7.2v25.19c0,5.96-4.83,10.8-10.8,10.8Z"/><path class="cls-5" d="M252.52,153.93h-21.59v-7.2h17.99v-14.39h7.2v17.99c0,1.99-1.61,3.6-3.6,3.6Z"/><rect class="cls-1" x="253.52" y="171.92" width="20.29" height="20.29"/><rect class="cls-9" x="253.52" y="212.15" width="20.29" height="20.29"/><rect class="cls-7" x="253.17" y="251.74" width="20.29" height="20.29"/><rect class="cls-8" x="316.19" y="220.8" width="74.03" height="17.39" transform="translate(-58.82 316.98) rotate(-45)"/><path class="cls-5" d="M274.11,197.11h-21.59c-1.99,0-3.6-1.61-3.6-3.6v-21.59c0-1.99,1.61-3.6,3.6-3.6h21.59c1.99,0,3.6,1.61,3.6,3.6v21.59c0,1.99-1.61,3.6-3.6,3.6Zm-17.99-7.2h14.39v-14.39h-14.39v14.39Z"/><path class="cls-5" d="M274.11,236.69h-21.59c-1.99,0-3.6-1.61-3.6-3.6v-21.59c0-1.99,1.61-3.6,3.6-3.6h21.59c1.99,0,3.6,1.61,3.6,3.6v21.59c0,1.99-1.61,3.6-3.6,3.6Zm-17.99-7.2h14.39v-14.39h-14.39v14.39Z"/><path class="cls-5" d="M274.11,276.27h-21.59c-1.99,0-3.6-1.61-3.6-3.6v-21.59c0-1.99,1.61-3.6,3.6-3.6h21.59c1.99,0,3.6,1.61,3.6,3.6v21.59c0,1.99-1.61,3.6-3.6,3.6Zm-17.99-7.2h14.39v-14.39h-14.39v14.39Z"/><path class="cls-5" d="M288.5,171.92h46.78v7.2h-46.78v-7.2Z"/><path class="cls-5" d="M288.5,186.31h46.78v7.2h-46.78v-7.2Z"/><path class="cls-5" d="M288.5,211.5h46.78v7.2h-46.78v-7.2Z"/><path class="cls-5" d="M288.5,225.9h32.39v7.2h-32.39v-7.2Z"/><path class="cls-5" d="M288.5,251.09h14.39v7.2h-14.39v-7.2Z"/><path class="cls-5" d="M288.5,265.48h14.39v7.2h-14.39v-7.2Z"/><path class="cls-5" d="M333.48,268.48c-.95,0-1.87-.38-2.54-1.05l-15.59-15.59c-1.4-1.4-1.4-3.68,0-5.09l59.75-59.73c5.71-5.71,14.97-5.71,20.68,0,5.7,5.71,5.7,14.96,0,20.68l-59.75,59.73c-.67,.67-1.59,1.05-2.54,1.05Zm-10.51-19.19l10.51,10.51,57.21-57.22c2.89-2.9,2.89-7.6,0-10.5-2.94-2.8-7.56-2.8-10.5,0l-57.23,57.21Z"/><path class="cls-5" d="M310.09,276.27c-1.16,0-2.24-.56-2.92-1.5-.68-.94-.86-2.14-.49-3.24l7.79-23.39,6.84,2.28-5.52,16.55,16.55-5.52,2.27,6.84-23.39,7.79c-.37,.12-.75,.18-1.14,.18Z"/><path class="cls-5" d="M369.9,197.28l5.09-5.09,15.59,15.59-5.09,5.09-15.59-15.59Z"/><path class="cls-5" d="M330.93,246.75l46.76-46.76,5.09,5.09-46.76,46.76-5.09-5.09Z"/></g><g><path class="cls-5" d="M82.83,231.94c-9.11-29.88-9.75-41.24-3.79-67.54,2.9-12.8,1.8-22.81-3.26-29.74-1.18-1.62-2.45-2.88-3.66-3.84-.65-2.82-1.19-5.5-1.62-7.99-.55-3.17-.07-5.66,.4-8.06,.6-3.09,1.22-6.29-.49-10.05-3.06-6.73-9.42-9.65-16.19-7.44-4.21,1.38-8.18,4.85-9.81,9.53-2.07-.9-4.37-1.05-6.58-.41-3.76,1.09-6.39,4.27-6.97,7.91-1.48-.29-3.03-.23-4.52,.21-4.92,1.43-7.87,6.5-6.72,11.44-1.07-.07-2.15,.05-3.21,.36-4.87,1.42-7.76,6.47-6.54,11.34-1.05-.07-2.12,.05-3.16,.35-4.8,1.4-7.64,6.41-6.38,11.21,.39,1.9,1.73,7.71,4.03,10.12,0,0,4.34,5.23,4.41,5.32-.35,3.33-.05,7.19,.89,11.56,.36,1.63,1.97,2.67,3.6,2.32,1.64-.35,2.68-1.97,2.32-3.6-.89-4.1-1.13-7.55-.72-10.32,.03-.13,.81-3.26,1.5-4.34,3.68-5.8,7.59-11.45,12.88-15.92,.02-.02,.05-.04,.07-.06,7.53-6.33,18.51-11.18,35.91-10.57,.4,.14,2.55,1.39,2.71,1.48,3.75,2.76,9.27,10.01,5.23,27.85-6.18,27.29-5.49,39.83,3.91,70.64,1.06,3.48,3.11,12.57,3.38,13.68,2.01,8.49-3.08,17.07-11.35,19.13-7.78,1.93-15.55-2.48-18.08-10.28-4.34-13.36-11.32-31.48-17.88-42.26-3.1-5.09-8.94-15.18-13.2-25.62-.63-1.55-2.4-2.29-3.95-1.66-1.55,.63-2.29,2.4-1.66,3.95,4.2,10.28,9.73,20.08,13.63,26.48,5.18,8.51,11.97,24.6,17.3,40.98,1.69,5.2,5.2,9.52,9.89,12.18,3.19,1.81,6.75,2.73,10.33,2.73,1.7,0,3.41-.21,5.09-.63,11.48-2.86,18.56-14.7,15.78-26.41-.26-1.09-2.35-10.35-3.48-14.05ZM39.5,112.23c1.89-.55,3.94,.55,4.47,2.46l3.83,14.33c-2.38,.49-4.61,1.1-6.7,1.81l-4.21-14.03c-.53-1.95,.64-3.99,2.6-4.57Zm-11.49,8.12c1.74-.51,3.72,.48,4.29,2.21l3.17,10.57c-2.37,1.14-4.52,2.41-6.49,3.77l-3.45-12.17c-.52-1.87,.59-3.83,2.48-4.38Zm-19.31,34.81c-.67-.69-2.51-7.36-2.53-7.43-.46-1.66,.53-3.4,2.2-3.89,1.55-.45,3.24,.41,3.74,1.95l1.93,6.9c-1.03,1.53-3.08,4.78-3.21,5,0,0-2.05-2.46-2.13-2.53Zm9.9-8.63l-2.86-10.25c-.49-1.76,.56-3.61,2.34-4.13,1.67-.49,3.41,.53,3.88,2.18l1.89,6.66c-1.96,1.8-3.7,3.66-5.25,5.53Zm35.23-18.46l-3.98-14.88c-.98-4.94,2.47-8.9,6.24-10.13,1.81-.59,6.28-1.36,8.8,4.18,.87,1.91,.62,3.5,.06,6.39-.52,2.67-1.16,5.99-.42,10.25,.21,1.22,.45,2.49,.71,3.79-4.11-.14-7.9,0-11.41,.39Z"/><path class="cls-5" d="M189.88,172.99c-1.02-.38-2.08-.57-3.13-.58,1.57-4.77-.96-10.02-5.72-11.78-1.04-.39-2.11-.58-3.18-.59,1.51-4.84-1.07-10.11-5.88-11.9-1.46-.54-2.99-.71-4.49-.53-.32-3.67-2.72-7.03-6.39-8.39-2.16-.8-4.47-.81-6.59-.06-1.29-4.78-5-8.53-9.11-10.21-6.6-2.69-13.15-.23-16.69,6.26-1.97,3.63-1.58,6.86-1.21,9.99,.29,2.43,.59,4.95-.18,8.07-.61,2.45-1.34,5.08-2.19,7.85-1.27,.88-2.63,2.04-3.92,3.57-5.55,6.55-7.36,16.45-5.38,29.43,4.13,27.11,2.73,38.39-8.29,67.04-1.39,3.61-4.14,12.69-4.47,13.76-3.6,11.47,2.61,23.8,13.85,27.47,10.57,3.45,22.13-2.24,26.27-12.44,2.33-5.74,4.76-11.31,7.2-16.54,.71-1.52,.05-3.32-1.46-4.03-1.52-.71-3.32-.05-4.03,1.46-2.49,5.32-4.95,10.98-7.32,16.83-3.09,7.6-11.15,11.45-18.77,8.96-8.1-2.65-12.57-11.57-9.95-19.89,.34-1.09,3.04-10,4.35-13.4,11.38-29.56,12.91-42.01,8.63-70.13-2.75-18.04,3.21-24.88,7.16-27.38,.19-.09,2.45-1.2,2.86-1.31,26.37,.96,37.15,13.41,43.59,24.18,.08,.17,2.35,4.13,3.24,5.8,.61,1.14,1.16,4.29,1.18,4.4,.37,4.84-1.35,11.59-5.09,19.87-5.08,11.23-12.61,22.41-16.65,28.08-2.05,2.88-4.29,6.56-6.68,10.93-.8,1.47-.26,3.31,1.22,4.11,1.47,.8,3.31,.26,4.11-1.21,2.26-4.16,4.38-7.63,6.29-10.31,4.16-5.85,11.94-17.41,17.23-29.1,3.94-8.71,5.83-16.02,5.65-21.85,.08-.09,.15-.17,.23-.25l4.56-4.75c2.46-2.24,4.22-7.93,4.74-9.8,1.61-4.7-.87-9.9-5.56-11.64Zm-8.91-2.39l-3.59,10.02c-1.41-1.97-3.01-3.96-4.84-5.89l2.35-6.48s0,0,0,0c.87-2.48,3.23-2.22,4.04-1.92,1.73,.64,2.65,2.56,2.04,4.28Zm-11.1-16.76c1.84,.68,2.8,2.72,2.16,4.53l-4.32,11.91c-1.86-1.5-3.92-2.92-6.2-4.22l3.92-10.32c1.06-2.74,3.55-2.23,4.44-1.9Zm-10.88-8.92c1.92,.71,2.93,2.83,2.27,4.74l-5.2,13.69c-2.03-.86-4.21-1.63-6.55-2.29,0,0,4.85-14.02,4.85-14.02,1.13-2.86,3.7-2.47,4.63-2.13Zm-25.47-.43c-.35-2.92-.49-4.53,.51-6.37,2.91-5.35,7.31-4.26,9.07-3.54,3.67,1.5,6.83,5.7,5.5,10.55l-5.04,14.56c-3.47-.63-7.24-1.05-11.35-1.21,.36-1.28,.68-2.53,.98-3.73,1.05-4.2,.64-7.56,.32-10.26Zm56.18,38.21c-.02,.07-2.33,6.58-3.05,7.23-.08,.07-2.3,2.38-2.3,2.38-.11-.23-1.93-3.62-2.84-5.22l2.41-6.74c1.08-2.45,3.09-1.97,3.87-1.68,1.63,.6,2.49,2.41,1.91,4.03Z"/></g></g><g id="FORMULARZ_STOPY"><g><circle class="cls-5" cx="205.88" cy="58.52" r="58.52"/><text class="cls-3" transform="translate(160.34 60.5)"><tspan x="0" y="0">7 dni</tspan></text><text class="cls-2" transform="translate(160.56 78.91)"><tspan class="cls-10" x="0" y="0">r</tspan><tspan class="cls-6" x="6.45" y="0">oboc</tspan><tspan class="cls-4" x="49.46" y="0">z</tspan><tspan class="cls-10" x="58.66" y="0">y</tspan><tspan x="68.03" y="0">ch</tspan></text></g></g></svg>