<?xml version="1.0" encoding="UTF-8"?><svg id="Layer_2" xmlns="http://www.w3.org/2000/svg" xmlns:xlink="http://www.w3.org/1999/xlink" viewBox="0 0 322.56 372.37"><defs><style>.cls-1{fill:url(#New_Gradient_Swatch_copy);}.cls-2{fill:#043a25;}</style><linearGradient id="New_Gradient_Swatch_copy" x1="35.04" y1="67.62" x2="277.73" y2="67.62" gradientUnits="userSpaceOnUse"><stop offset="0" stop-color="#f1e5b3"/><stop offset=".29" stop-color="#decb7c"/><stop offset="1" stop-color="#bba16b"/></linearGradient></defs><g id="Layer_14"><g><path class="cls-1" d="M55.76,4.09s113.4,85.57,133.39,91.8c22.21,6.93,43.45-4.89,43.45-4.89l35.94,7.99,9.2,17.49s-29.31,14.67-76.81,14.67c-62.72,0-81.08-41.88-99.17-44.56-18.09-2.68-55.56-18.92-55.56-18.92,0,0-10.37-10.38-11.14-26.03S55.76,4.09,55.76,4.09Z"/><path class="cls-2" d="M304.64,267.79v-76.92h8.05c5.44,0,9.87-4.43,9.87-9.87v-40c0-5.44-4.43-9.87-9.87-9.87h-50.34c13.31-4.04,21.39-7.98,22.14-8.35,2.66-1.33,3.93-4.41,3-7.23-.32-.97-8.19-23.76-31.9-23.76-16.18,0-21.99-4.81-22-4.81h0c-2.33-2.33-6.11-2.33-8.45,0-3.07,3.07-8.21,5.08-15.27,5.96-12.54,1.55-25.52-1.85-36.61-9.61L55.76,1.08c-2.69-1.89-6.39-1.25-8.28,1.42-30.83,43.16-13.38,66.04-7.17,72.15l11.3,56.49H9.87c-5.44,0-9.87,4.43-9.87,9.87v40c0,5.44,4.43,9.87,9.87,9.87h8.05v76.92c0,13.58,11.05,24.63,24.63,24.63h232.54c23.52,0,29.55-13.93,29.55-24.63Zm7.97-86.86h-123.47v-39.84h123.47v39.84Zm-169.25,0v-39.84h35.84v39.84h-35.84Zm35.84,9.95v89.6h-35.84v-89.6h35.84ZM83.66,83.9c12.48,3.12,35.69,17.94,63.67,40.67,3.08,2.5,6.36,4.67,9.76,6.57H78.61l4.76-47.31c.1,.03,.19,.04,.3,.07h0ZM51.86,12.34l114.56,78.79c13.52,9.46,29.48,13.63,44.94,11.67,7.52-.94,13.68-3.02,18.4-6.22,4.52,2.36,14.66,5.16,27.84,5.16,9.61,0,17.26,10.15,20.14,14.73-12.73,5.16-50.61,16.7-92.48,13.11-11.15-.95-21.66-5.2-30.39-12.29-21.02-17.07-49.94-38.4-68.3-42.99-20.55-5.14-35.34-6.36-40.37-6.64-3.94-4.19-16.72-21.85,3.66-53.32l2-2Zm-2.68,65.78c4.28,.48,18.44,1.4,26.45,3.05l-5.03,49.98h-10.82l-10.61-53.03ZM9.95,141.09h123.47v39.84H9.95v-39.84Zm19.92,126.7v-76.92h103.55v89.6H42.55c-6.99,0-12.68-5.69-12.68-12.68Zm159.28,12.68v-89.6h103.55v76.92c0,6.99-5.69,12.68-12.68,12.68h-90.86Z"/><path class="cls-2" d="M89.6,238.67H47.79c-3.3,0-5.97,2.67-5.97,5.97s2.67,5.97,5.97,5.97h41.81c3.3,0,5.97-2.67,5.97-5.97s-2.67-5.97-5.97-5.97Z"/><path class="cls-2" d="M65.71,256.59h-17.92c-3.3,0-5.97,2.67-5.97,5.97s2.67,5.97,5.97,5.97h17.92c3.3,0,5.97-2.67,5.97-5.97s-2.67-5.97-5.97-5.97Z"/></g></g><g id="WYBOR"><g><path class="cls-2" d="M17.56,331.47l-5.41-22.77h5.51l1.72,9.39c.51,2.7,.98,5.64,1.35,7.94h.07c.37-2.47,.91-5.2,1.49-8.01l1.93-9.32h5.47l1.82,9.59c.51,2.67,.88,5.1,1.22,7.64h.07c.34-2.53,.84-5.2,1.32-7.91l1.86-9.32h5.24l-5.88,22.77h-5.57l-1.93-9.8c-.44-2.3-.81-4.43-1.08-7.03h-.07c-.41,2.57-.78,4.73-1.32,7.03l-2.16,9.8h-5.64Z"/><path class="cls-2" d="M49.14,331.47v-9.32l-7.2-13.45h5.88l2.33,5.47c.71,1.66,1.18,2.87,1.76,4.36h.07c.51-1.42,1.05-2.74,1.72-4.36l2.3-5.47h5.78l-7.5,13.28v9.49h-5.13Z"/><path class="cls-2" d="M63.42,326.16c1.39,.71,3.51,1.42,5.71,1.42,2.36,0,3.61-.98,3.61-2.47s-1.08-2.23-3.82-3.21c-3.78-1.32-6.25-3.41-6.25-6.72,0-3.88,3.24-6.86,8.61-6.86,2.57,0,4.46,.54,5.81,1.15l-1.15,4.16c-.91-.44-2.53-1.08-4.76-1.08s-3.31,1.01-3.31,2.2c0,1.45,1.28,2.09,4.22,3.21,4.02,1.49,5.91,3.58,5.91,6.79,0,3.82-2.94,7.06-9.19,7.06-2.6,0-5.17-.68-6.45-1.38l1.05-4.26Z"/><path class="cls-2" d="M86.76,331.47v-9.32l-7.2-13.45h5.88l2.33,5.47c.71,1.66,1.18,2.87,1.76,4.36h.07c.51-1.42,1.05-2.74,1.72-4.36l2.3-5.47h5.78l-7.5,13.28v9.49h-5.13Z"/><path class="cls-2" d="M101.49,331.47v-7.94l-2.57,1.72v-3.55l2.57-1.76v-11.25h5.13v7.84l4.26-2.87v3.58l-4.26,2.87v7.03h9.05v4.32h-14.19Z"/><path class="cls-2" d="M118.71,308.7h5.1v10.07h.1c.51-.88,1.05-1.69,1.55-2.5l5.17-7.57h6.32l-7.53,9.7,7.94,13.07h-6.01l-5.57-9.83-1.96,2.4v7.43h-5.1v-22.77Z"/><path class="cls-2" d="M145.19,325.62l-1.62,5.84h-5.34l6.96-22.77h6.76l7.06,22.77h-5.54l-1.76-5.84h-6.52Zm5.78-3.85l-1.42-4.83c-.41-1.35-.81-3.04-1.15-4.39h-.07c-.34,1.35-.68,3.07-1.05,4.39l-1.35,4.83h5.03Z"/><path class="cls-2" d="M168.87,308.7h13.92v4.22h-8.75v5.2h8.18v4.19h-8.18v9.16h-5.17v-22.77Z"/><path class="cls-2" d="M191.84,308.7v22.77h-5.17v-22.77h5.17Z"/><path class="cls-2" d="M196.29,331.47v-22.77h6.01l4.73,8.34c1.35,2.4,2.7,5.24,3.72,7.8h.1c-.34-3.01-.44-6.08-.44-9.49v-6.66h4.73v22.77h-5.4l-4.87-8.78c-1.35-2.43-2.84-5.37-3.95-8.04l-.1,.03c.13,3.01,.2,6.22,.2,9.93v6.86h-4.73Z"/><path class="cls-2" d="M224.9,325.62l-1.62,5.84h-5.34l6.96-22.77h6.76l7.06,22.77h-5.54l-1.76-5.84h-6.52Zm5.78-3.85l-1.42-4.83c-.41-1.35-.81-3.04-1.15-4.39h-.07c-.34,1.35-.68,3.07-1.05,4.39l-1.35,4.83h5.03Z"/><path class="cls-2" d="M241.75,308.7h5.17v18.45h9.05v4.32h-14.22v-22.77Z"/><path class="cls-2" d="M259.01,331.47v-22.77h6.01l4.73,8.34c1.35,2.4,2.7,5.24,3.72,7.8h.1c-.34-3.01-.44-6.08-.44-9.49v-6.66h4.73v22.77h-5.41l-4.86-8.78c-1.35-2.43-2.84-5.37-3.95-8.04l-.1,.03c.13,3.01,.2,6.22,.2,9.93v6.86h-4.73Z"/><path class="cls-2" d="M295.87,321.84h-8.38v5.41h9.36v4.22h-14.53v-22.77h14.05v4.22h-8.88v4.73h8.38v4.19Z"/><path class="cls-2" d="M305.56,308.7h5.13v14.39c0,6.49-3.11,8.75-8.11,8.75-1.18,0-2.74-.2-3.75-.54l.57-4.16c.71,.24,1.62,.41,2.64,.41,2.16,0,3.51-.98,3.51-4.53v-14.32Z"/><path class="cls-2" d="M56.55,349.53c1.59-.27,3.82-.47,6.96-.47s5.44,.61,6.96,1.82c1.45,1.15,2.43,3.04,2.43,5.27s-.74,4.12-2.09,5.41c-1.76,1.66-4.36,2.4-7.4,2.4-.68,0-1.28-.03-1.76-.1v8.14h-5.1v-22.47Zm5.1,10.34c.44,.1,.98,.13,1.72,.13,2.74,0,4.43-1.38,4.43-3.72,0-2.09-1.45-3.34-4.02-3.34-1.05,0-1.76,.1-2.13,.2v6.72Z"/><path class="cls-2" d="M79.45,366.15l-1.62,5.84h-5.34l6.96-22.77h6.76l7.06,22.77h-5.54l-1.76-5.84h-6.52Zm5.78-3.85l-1.42-4.83c-.41-1.35-.81-3.04-1.15-4.39h-.07c-.34,1.35-.68,3.07-1.05,4.39l-1.35,4.83h5.03Z"/><path class="cls-2" d="M96.3,349.53c1.66-.27,4.12-.47,6.86-.47,3.38,0,5.74,.51,7.36,1.79,1.35,1.08,2.09,2.67,2.09,4.76,0,2.91-2.06,4.9-4.02,5.61v.1c1.59,.64,2.47,2.16,3.04,4.26,.71,2.57,1.42,5.54,1.86,6.42h-5.27c-.37-.64-.91-2.5-1.59-5.3-.61-2.84-1.59-3.62-3.68-3.65h-1.55v8.95h-5.1v-22.47Zm5.1,9.8h2.03c2.57,0,4.09-1.28,4.09-3.28,0-2.09-1.42-3.14-3.78-3.18-1.25,0-1.96,.1-2.33,.17v6.28Z"/><path class="cls-2" d="M120.96,372v-9.32l-7.2-13.45h5.88l2.33,5.47c.71,1.66,1.18,2.87,1.76,4.36h.07c.51-1.42,1.05-2.74,1.72-4.36l2.3-5.47h5.78l-7.5,13.28v9.49h-5.13Z"/><path class="cls-2" d="M163.72,360.38c0,7.47-4.53,11.99-11.18,11.99s-10.71-5.1-10.71-11.59c0-6.82,4.36-11.93,11.08-11.93s10.81,5.24,10.81,11.52Zm-16.45,.3c0,4.46,2.09,7.6,5.54,7.6s5.47-3.31,5.47-7.74c0-4.09-1.96-7.6-5.51-7.6s-5.51,3.31-5.51,7.74Z"/><path class="cls-2" d="M167.09,349.53c1.35-.27,4.09-.47,6.66-.47,3.14,0,5.07,.3,6.72,1.28,1.59,.84,2.74,2.4,2.74,4.46s-1.18,3.92-3.75,4.86v.07c2.6,.71,4.53,2.67,4.53,5.61,0,2.06-.95,3.68-2.37,4.83-1.66,1.32-4.42,2.06-8.95,2.06-2.53,0-4.43-.17-5.57-.34v-22.36Zm5.1,8.72h1.69c2.7,0,4.16-1.11,4.16-2.8s-1.32-2.63-3.65-2.63c-1.11,0-1.76,.07-2.2,.13v5.3Zm0,10.1c.51,.07,1.11,.07,1.99,.07,2.33,0,4.39-.88,4.39-3.28s-2.06-3.21-4.63-3.21h-1.76v6.42Z"/><path class="cls-2" d="M192.63,349.23v13.11c0,3.92,1.49,5.91,4.12,5.91s4.19-1.89,4.19-5.91v-13.11h5.13v12.77c0,7.03-3.55,10.37-9.49,10.37s-9.12-3.18-9.12-10.44v-12.7h5.17Z"/><path class="cls-2" d="M214.21,372l-5.41-22.77h5.51l1.72,9.39c.51,2.7,.98,5.64,1.35,7.94h.07c.37-2.47,.91-5.2,1.49-8.01l1.93-9.32h5.47l1.82,9.59c.51,2.67,.88,5.1,1.22,7.64h.07c.34-2.53,.84-5.2,1.32-7.91l1.86-9.32h5.24l-5.88,22.77h-5.57l-1.93-9.8c-.44-2.3-.81-4.43-1.08-7.03h-.07c-.41,2.57-.78,4.73-1.32,7.03l-2.16,9.8h-5.64Z"/><path class="cls-2" d="M245.69,349.23v22.77h-5.17v-22.77h5.17Z"/><path class="cls-2" d="M255.45,366.15l-1.62,5.84h-5.34l6.96-22.77h6.76l7.06,22.77h-5.54l-1.76-5.84h-6.52Zm5.78-3.85l-1.42-4.83c-.41-1.35-.81-3.04-1.15-4.39h-.07c-.34,1.35-.68,3.07-1.05,4.39l-1.35,4.83h5.03Z"/></g></g></svg>