<?xml version="1.0" encoding="UTF-8"?><svg id="Layer_2" xmlns="http://www.w3.org/2000/svg" xmlns:xlink="http://www.w3.org/1999/xlink" viewBox="0 0 241.59 241.6"><defs><style>.cls-1{fill:url(#New_Gradient_Swatch_copy);}.cls-2{fill:#043a25;}</style><linearGradient id="New_Gradient_Swatch_copy" x1="40.95" y1="33.41" x2="210.4" y2="33.41" gradientUnits="userSpaceOnUse"><stop offset="0" stop-color="#f1e5b3"/><stop offset=".29" stop-color="#decb7c"/><stop offset="1" stop-color="#bba16b"/></linearGradient></defs><g id="platnosc"><g><polygon class="cls-1" points="40.95 65.89 165.58 .74 210.4 66.07 40.95 65.89"/><g><path class="cls-2" d="M230.61,121.81v-33.96c0-11.51-8.93-20.88-20.22-21.79l-31.53-55.08c-2.92-5.09-7.64-8.73-13.29-10.25-5.62-1.5-11.5-.71-16.53,2.21L40.95,65.89H21.96c-12.11,0-21.96,9.85-21.96,21.96V219.63c0,12.11,9.85,21.96,21.96,21.96H208.65c12.11,0,21.96-9.85,21.96-21.96v-33.96c6.38-2.27,10.98-8.31,10.98-15.46v-32.94c0-7.15-4.6-13.19-10.98-15.46Zm-32.98-55.92h-47.86l35.89-20.9,11.96,20.9Zm-17.42-30.43l-52.26,30.43h-21.68L174.8,26l5.42,9.47Zm-25.64-23.02c2.48-1.45,5.38-1.84,8.16-1.1,2.8,.75,5.14,2.56,6.6,5.1v.02s-84.88,49.42-84.88,49.42h-21.68L154.58,12.45Zm65.05,207.19c0,6.05-4.93,10.98-10.98,10.98H21.96c-6.05,0-10.98-4.93-10.98-10.98V87.86c0-6.05,4.93-10.98,10.98-10.98H208.65c6.05,0,10.98,4.93,10.98,10.98v32.94h-32.94c-18.17,0-32.94,14.78-32.94,32.94s14.78,32.94,32.94,32.94h32.94v32.94h0Zm10.98-49.42c0,3.03-2.46,5.49-5.49,5.49h-38.44c-12.11,0-21.96-9.85-21.96-21.96s9.85-21.96,21.96-21.96h38.44c3.03,0,5.49,2.46,5.49,5.49v32.94Z"/><path class="cls-2" d="M186.69,142.76c-6.05,0-10.98,4.93-10.98,10.98s4.93,10.98,10.98,10.98,10.98-4.93,10.98-10.98c0-6.05-4.93-10.98-10.98-10.98Z"/></g></g></g></svg>