<?xml version="1.0" encoding="UTF-8"?><svg id="Layer_2" xmlns="http://www.w3.org/2000/svg" xmlns:xlink="http://www.w3.org/1999/xlink" viewBox="0 0 380.32 366.16"><defs><style>.cls-1{fill:#fff;font-family:MyriadPro-Bold, 'Myriad Pro';}.cls-2{fill:url(#New_Gradient_Swatch_copy);}.cls-3{fill:#043a25;}.cls-4{letter-spacing:0em;}.cls-5{font-size:40.65px;}.cls-6{letter-spacing:-.01em;}.cls-7{font-size:24px;}.cls-8{letter-spacing:0em;}</style><linearGradient id="New_Gradient_Swatch_copy" x1="173.09" y1="247.38" x2="371.88" y2="247.38" gradientUnits="userSpaceOnUse"><stop offset="0" stop-color="#f1e5b3"/><stop offset=".29" stop-color="#decb7c"/><stop offset="1" stop-color="#bba16b"/></linearGradient></defs><g id="Layer_14"><path class="cls-2" d="M191.14,149.8s40.99,14.36,63.07-19.58h39.07s27.08,39.35,62.76,15.77l15.85,30.29s-38.64,27.96-39.37,62.89c-1.06,50.8,39.24,74.03,39.24,74.03l-15.33,26.13s-61.97-17.28-82.71,25.23c0,0-37.57-54.4-83.15-19.35l-14.84-32.01s44.68-27.09,37.66-73.1c-7.02-46.02-40.3-61.34-40.3-61.34l18.05-28.96Z"/><g><path class="cls-3" d="M378.39,180.76c1.92-1.24,2.41-2.9,1.46-4.98l-19.05-32.47c-.97-1.65-3.07-2.24-4.76-1.33-12.06,6.51-25.79,8.04-36.71,4.11-9.32-3.36-16.19-10.35-20.4-20.77-.54-1.34-1.85-2.22-3.3-2.22h-43.76c-1.45,0-2.76,.88-3.3,2.23-3.3,8.16-8.28,14.26-14.81,18.13-3.96,2.35-.32,8.47,3.64,6.12,7.27-4.32,12.92-10.83,16.81-19.36h39.07c5.04,11.03,13.18,18.81,23.63,22.57,11.86,4.27,26.37,3.13,39.43-2.99l15.54,26.48c-56.85,34.27-54.22,107.95-.13,136.92l-15.33,26.13c-11.03-5.86-22.9-8.75-34.52-8.38-4.5,.14-4.17,7.28,.23,7.12,11.38-.36,23.06,2.8,33.79,9.14,1.64,.97,3.87,.46,4.88-1.26l19.05-32.47c.98-2.22,.4-3.92-1.72-5.1-41.8-18.89-56.51-75.17-20.48-111.56,10.23-10.64,20.64-16.01,20.74-16.06h0Z"/><path class="cls-3" d="M217.52,148.18c-8.57,.45-17.83-1.75-26.07-6.2-1.69-.91-3.79-.32-4.76,1.33l-19.05,32.47c-.95,2.08-.46,3.74,1.46,4.98,.41,.21,41.1,21.34,41.1,64.05,.89,29.34-19.38,54.08-40.84,63.56-2.12,1.18-2.7,2.87-1.72,5.1l19.05,32.47c1.28,1.77,2.91,2.19,4.88,1.26,28.73-17,61.3-9.86,79.2,17.35,1.98,2.14,3.97,2.14,5.95,0,7.33-11.14,17.3-19.22,28.84-23.36,4.33-1.55,1.93-8.26-2.4-6.7-11.49,4.12-21.57,11.66-29.4,21.95-9.65-12.72-22.46-21.04-37.29-24.2-14.86-3.16-30.85-.64-45.39,7.08l-15.33-26.13c54.15-29.02,56.66-102.69-.13-136.92l15.54-26.48c8.58,4.01,17.96,5.95,26.75,5.49,4.6-.24,4.22-7.36-.37-7.11h0Z"/><path class="cls-3" d="M273.74,335.66c-3.53-2.58-7.77,2.61-4.46,5.54,.68,.6,1.35,1.22,2,1.84,1.64,1.31,3.27,1.31,4.91,0,.66-.63,1.33-1.24,2-1.84,3.32-2.93-.93-8.13-4.46-5.54Z"/><path class="cls-3" d="M215.86,320.54c.1,1.77,1.97,3.45,3.76,3.35,2.07-.12,4.18-.14,6.23-.08,4.6,.18,4.83-6.97,.23-7.12-2.26-.07-4.58-.04-6.86,.09-1.96,.11-3.46,1.79-3.35,3.76Z"/><path class="cls-3" d="M246.17,327.57c1.95,.68,3.89,1.46,5.77,2.32,4.03,1.84,7.13-4.57,2.96-6.48-2.08-.95-4.22-1.81-6.38-2.56-4.35-1.52-6.7,5.2-2.35,6.72Z"/><path class="cls-3" d="M195.4,329.17c.43,0,.86-.08,1.28-.24,.84-.33,1.71-.64,2.56-.94,4.35-1.51,2.01-8.24-2.34-6.73-.93,.32-1.87,.67-2.79,1.02-3.68,1.42-2.46,6.88,1.29,6.88Z"/><path class="cls-3" d="M195.39,313.01c-1.18-1.58-3.41-1.9-4.98-.72-.73,.54-1.48,1.09-2.22,1.61-3.85,2.7,.44,8.39,4.09,5.83,.8-.56,1.61-1.15,2.39-1.73,1.58-1.18,1.9-3.41,.72-4.98h0Z"/><path class="cls-3" d="M230.25,229.62c-.79-4.53-7.81-3.31-7.01,1.23,.3,1.74,.55,3.51,.74,5.27,.48,4.48,7.57,3.88,7.08-.75-.21-1.92-.48-3.85-.81-5.74Z"/><path class="cls-3" d="M231.07,254.62c.46-4.58-6.62-5.3-7.08-.72-.18,1.77-.42,3.55-.7,5.29-.73,4.42,6.27,5.77,7.03,1.15,.31-1.88,.56-3.81,.76-5.73Z"/><path class="cls-3" d="M206.37,194.08c2.94,3.7,8.39-.88,5.58-4.42-1.18-1.49-2.43-2.97-3.7-4.41-3.05-3.44-8.38,1.28-5.33,4.73,1.19,1.34,2.35,2.73,3.45,4.11h0Z"/><path class="cls-3" d="M207.01,296.19c-1.09,1.39-2.25,2.76-3.44,4.09-3.05,3.4,2.19,8.22,5.3,4.75,1.29-1.43,2.54-2.93,3.73-4.43,2.85-3.62-2.74-8.02-5.59-4.41Z"/><path class="cls-3" d="M221.5,216.06c2.31,0,4.21-2.75,3.28-4.95-.75-1.76-1.57-3.53-2.44-5.26-2.07-4.11-8.43-.91-6.36,3.2,.8,1.59,1.55,3.22,2.24,4.84,.57,1.36,1.89,2.17,3.28,2.17h0Z"/><path class="cls-3" d="M218.07,285.9c1.67,.8,3.94,.01,4.75-1.67,.83-1.73,1.62-3.52,2.33-5.31,1.71-4.27-4.9-6.92-6.61-2.65-.66,1.64-1.38,3.28-2.14,4.87-.85,1.77-.1,3.9,1.67,4.75Z"/><path class="cls-3" d="M194.32,172.06c-.76-.61-1.54-1.21-2.32-1.8-3.67-2.78-7.97,2.9-4.3,5.68,.73,.55,1.46,1.12,2.18,1.69,3.52,2.81,8.09-2.65,4.44-5.56Z"/><path class="cls-3" d="M198.5,167.37c3.98,0,4.9-5.94,.91-7-.86-.23-1.74-.48-2.6-.75-4.4-1.36-6.5,5.44-2.11,6.8,.95,.29,1.92,.57,2.88,.83,.31,.08,.61,.12,.92,.12Z"/><path class="cls-3" d="M248.81,154.81c-1.13-1.61-3.35-2.01-4.96-.88-1.44,1.01-2.96,1.94-4.5,2.77-4.17,2.25-.49,8.35,3.38,6.27,1.79-.96,3.54-2.04,5.21-3.21,1.61-1.13,2-3.35,.88-4.96h0Z"/><path class="cls-3" d="M222.55,162.02c-1.74,.23-3.54,.37-5.34,.43-4.5,.15-4.16,7.27,.23,7.12,2.03-.07,4.06-.23,6.03-.48,4.57-.59,3.65-7.66-.91-7.06h0Z"/><path class="cls-3" d="M259.1,146.86c1.14,0,2.27-.55,2.96-1.57,.19-.27,.37-.55,.55-.83h.88c4.6,0,4.6-7.12,0-7.12h-2.85c-1.25,0-2.4,.65-3.05,1.72-.46,.76-.94,1.52-1.44,2.25-1.51,2.24,.33,5.55,2.95,5.55h0Z"/><path class="cls-3" d="M291.34,141.31c-.49-.73-.98-1.49-1.44-2.25-.64-1.07-1.8-1.72-3.05-1.72h-2.85c-4.6,0-4.6,7.12,0,7.12h.88c.18,.28,.37,.56,.55,.83,2.69,3.99,8.4-.28,5.9-3.98h0Z"/><path class="cls-3" d="M333.71,166.12c.06-1.97-1.48-3.61-3.44-3.67-1.8-.06-3.6-.2-5.34-.43-4.57-.6-5.48,6.47-.92,7.06,1.97,.26,4,.42,6.03,.48,1.79,.06,3.62-1.69,3.67-3.44h0Z"/><path class="cls-3" d="M306.44,163.39c3.76,0,4.61-5.12,1.69-6.7-1.55-.83-3.06-1.77-4.5-2.77-3.77-2.64-7.85,3.2-4.08,5.83,1.67,1.17,3.42,2.25,5.21,3.21,.54,.29,1.12,.43,1.69,.43Z"/><path class="cls-3" d="M350.67,159.62c-.86,.27-1.73,.52-2.59,.75-4.39,1.16-2.43,8.01,1.82,6.88,.96-.25,1.93-.53,2.88-.83,4.4-1.36,2.29-8.16-2.11-6.8h0Z"/><path class="cls-3" d="M352.6,177.07c1.59,1.57,3.26,1.76,5,.56,.71-.57,1.45-1.14,2.18-1.69,3.67-2.78-.63-8.46-4.3-5.68-.78,.59-1.56,1.2-2.32,1.8-1.54,1.23-1.79,3.47-.56,5Z"/><path class="cls-3" d="M329.94,204.24c-1.75-.88-3.9-.18-4.78,1.58-.87,1.73-1.69,3.5-2.44,5.26-1.75,4.13,4.76,7.02,6.56,2.78,.69-1.62,1.44-3.25,2.24-4.84,.88-1.76,.18-3.9-1.58-4.78h0Z"/><path class="cls-3" d="M344.29,184.92c-1.47-1.31-3.72-1.17-5.03,.3-1.28,1.44-2.52,2.92-3.71,4.41-2.81,3.54,2.64,8.13,5.58,4.43,1.1-1.39,2.26-2.77,3.45-4.11,1.31-1.47,1.17-3.72-.3-5.03h0Z"/><path class="cls-3" d="M324.31,274.28c-1.83,.73-2.71,2.8-1.98,4.63,.71,1.79,1.5,3.57,2.33,5.31,1.94,4.05,8.41,1.06,6.42-3.08-.76-1.59-1.48-3.23-2.14-4.88-.73-1.83-2.8-2.71-4.63-1.98h0Z"/><path class="cls-3" d="M341.25,306.19c2.88,0,4.59-3.77,2.65-5.94-1.19-1.33-2.34-2.7-3.43-4.09-2.85-3.62-8.44,.79-5.59,4.41,1.18,1.5,2.44,2.99,3.72,4.43,.7,.79,1.68,1.18,2.65,1.18Z"/><path class="cls-3" d="M317.24,229.59c-.33,1.89-.6,3.82-.81,5.74-.48,4.45,6.58,5.42,7.08,.76,.19-1.76,.44-3.54,.74-5.27,.8-4.53-6.22-5.77-7.01-1.23h0Z"/><path class="cls-3" d="M316.41,254.59c.19,1.92,.45,3.85,.76,5.74,.73,4.46,7.78,3.43,7.03-1.15-.29-1.74-.52-3.53-.7-5.3-.46-4.58-7.55-3.86-7.08,.71h0Z"/><path class="cls-3" d="M355.21,319.72c1.77,1.09,3.43,.8,4.96-.87,1.13-1.61,.74-3.83-.87-4.96-.74-.52-1.49-1.06-2.22-1.61-1.57-1.18-3.81-.85-4.98,.72-1.18,1.58-.85,3.81,.72,4.98,.79,.59,1.59,1.17,2.39,1.73Z"/><path class="cls-3" d="M346.05,323.46c-.65,1.86,.34,3.89,2.19,4.53,1.22,.61,2.5,1,3.84,1.18,1.43,0,2.78-.87,3.32-2.28,.71-1.83-.2-3.9-2.04-4.6-.93-.36-1.87-.7-2.79-1.02-1.86-.65-3.89,.34-4.53,2.19h0Z"/><path class="cls-3" d="M321.64,323.82c2.03-.07,4.15-.04,6.23,.08,4.48,.24,4.87-6.86,.4-7.11-2.29-.13-4.62-.16-6.86-.08-4.6,.15-4.37,7.28,.23,7.12h0Z"/><path class="cls-3" d="M294.07,330.22c.49,0,1-.1,1.47-.32,1.88-.86,3.82-1.64,5.77-2.32,4.35-1.52,2-8.24-2.35-6.72-2.15,.75-4.3,1.61-6.38,2.56-3.5,1.59-2.14,6.8,1.48,6.8h0Z"/></g><g id="outline"><path class="cls-3" d="M63.46,322.53v-77.9c0-11.3-2.97-40.12-4.12-50.83,6.97-2.69,10.44-10.53,7.74-17.5-1.54-3.99-4.88-7.02-9.01-8.16l-3.69-14.74v-21.03l4.53-9.07v-16.55l-9.52-9.52-5.07-20.34H28.19l-5.07,20.35-9.52,9.5v16.55l4.53,9.07v21.03l-3.69,14.74c-7.2,2-11.42,9.45-9.43,16.65,1.14,4.13,4.17,7.47,8.16,9.01-1.14,10.71-4.12,39.54-4.12,50.83v77.9c-7.07,2.49-10.78,10.24-8.29,17.31,1.92,5.44,7.06,9.07,12.82,9.06H58.93c7.49,.01,13.58-6.05,13.59-13.54,.01-5.77-3.62-10.91-9.06-12.82ZM35.27,85.96h1.99l2.27,9.07h-6.52l2.27-9.07Zm-12.61,24.54l6.41-6.41h14.38l6.41,6.41v10.65l-2.8,5.6H25.47l-2.8-5.6v-10.65Zm23.66,47.99l2.27,9.07H23.94l2.27-9.07h20.12Zm-19.13-9.07v-13.6h18.13v13.6H27.2Zm-9.07,27.2H54.4c2.5,0,4.53,2.03,4.53,4.53s-2.03,4.53-4.53,4.53H18.13c-2.5,0-4.53-2.03-4.53-4.53s2.03-4.53,4.53-4.53Zm36.27,68v77.07H18.13v-77.07c0-10.71,2.94-39.26,4.08-49.87h28.11c1.14,10.6,4.08,39.16,4.08,49.87h0Zm4.53,95.2H13.6c-2.5,0-4.53-2.03-4.53-4.53s2.03-4.53,4.53-4.53H58.93c2.5,0,4.53,2.03,4.53,4.53s-2.03,4.53-4.53,4.53Z"/><path class="cls-3" d="M31.73,203.83h9.07v9.07h-9.07v-9.07Z"/><path class="cls-3" d="M31.73,221.96h9.07v9.07h-9.07v-9.07Z"/><path class="cls-3" d="M131.46,274.32v-38.03l8.83-26.5c.38-1.14,.29-2.38-.24-3.46l-8.59-17.18v-21.6h-9.07V85.96c0-2.08-1.42-3.89-3.44-4.4l-18.13-4.53c-2.43-.61-4.89,.87-5.5,3.3-.09,.36-.13,.73-.13,1.1v86.13h-9.07v21.6l-8.61,17.18c-.54,1.08-.62,2.32-.24,3.46l8.85,26.5v38.03c-.47,5.94-1.89,11.77-4.21,17.26-2.78,6.69-4.42,13.8-4.86,21.04,0,31.56,19.88,36.27,31.73,36.27s31.73-4.71,31.73-36.27c-.43-7.24-2.07-14.35-4.86-21.04-2.32-5.49-3.74-11.32-4.21-17.26h0Zm-27.2-187.09l9.07,2.27v78.06h-9.07V87.23Zm-9.07,89.39h27.2v9.07h-27.2v-9.07Zm-1.73,18.13h30.66l6.97,13.95-7.44,22.32h-29.73l-7.44-22.32,6.97-13.95Zm15.33,145.07c-15.25,0-22.67-8.9-22.67-27.2,.46-6.21,1.93-12.3,4.35-18.04,2.69-6.45,4.28-13.29,4.72-20.26v-34.23h27.2v34.23c.44,6.97,2.03,13.82,4.72,20.26,2.42,5.74,3.89,11.83,4.35,18.04,0,18.3-7.42,27.2-22.67,27.2Z"/><path class="cls-3" d="M104.26,249.16h9.07v9.07h-9.07v-9.07Z"/><path class="cls-3" d="M104.26,267.29h9.07v9.07h-9.07v-9.07Z"/></g></g><g id="PRZYGOTOWANIE"><g><circle class="cls-3" cx="196.1" cy="58.52" r="58.52"/><text class="cls-1" transform="translate(184.82 48.48)"><tspan class="cls-5"><tspan x="0" y="0">5</tspan></tspan><tspan class="cls-7"><tspan class="cls-8" x="-30.74" y="28.8">t</tspan><tspan class="cls-6" x="-21.81" y="28.8">y</tspan><tspan x="-9.6" y="28.8">g</tspan><tspan class="cls-4" x="4.44" y="28.8">o</tspan><tspan x="18.36" y="28.8">dni</tspan></tspan></text></g></g></svg>