<?xml version="1.0" encoding="UTF-8"?><svg id="Layer_2" xmlns="http://www.w3.org/2000/svg" xmlns:xlink="http://www.w3.org/1999/xlink" viewBox="0 0 270.38 243.58"><defs><style>.cls-1{fill:#fff;font-family:MyriadPro-Bold, 'Myriad Pro';}.cls-2{fill:url(#New_Gradient_Swatch_copy);}.cls-3{fill:#043a25;}.cls-4{letter-spacing:0em;}.cls-5{font-size:40.65px;}.cls-6{letter-spacing:-.01em;}.cls-7{font-size:24px;}.cls-8{letter-spacing:0em;}</style><linearGradient id="New_Gradient_Swatch_copy" x1="11.04" y1="51.1" x2="90.52" y2="51.1" gradientTransform="translate(0 0)" gradientUnits="userSpaceOnUse"><stop offset="0" stop-color="#f1e5b3"/><stop offset=".29" stop-color="#decb7c"/><stop offset="1" stop-color="#bba16b"/></linearGradient></defs><g id="kopyto"><path class="cls-3" d="M204.86,217.09c-13.44,0-81.67-.86-104.9-17.77-5.68-4.13-12.1-17.54-18.91-31.74-5.37-11.19-12.72-26.52-16.3-27.79-1.59-.57-4-1.29-6.79-2.13-13.25-3.98-35.43-10.65-44.39-21.73-5.81-7.19-12.33-21.35-10.45-47.99,1.05-14.9,4.81-30.51,8.04-33.41,1.44-1.29,3.18-1,4.18-.05,3.63,2.64,42.2,10.77,66.7,10.77,8.41,0,17.67,17.1,30.84,43.19,6.26,12.39,12.73,25.21,16.59,28.69,2.94,2.65,11.23,8.98,21.74,16.98,48.78,37.18,65.7,51.89,67.05,58.29,1,4.73,.85,14.38-3.82,20.15-2.4,2.97-5.72,4.54-9.58,4.54ZM13.94,39.48c-3.87,8.44-12.98,52.71,3.61,73.24,7.96,9.85,30.03,16.48,41.88,20.05,2.86,.86,5.32,1.6,7.04,2.21,5.3,1.89,10.75,12.78,19.2,30.4,5.94,12.39,12.68,26.44,17.31,29.81,9.41,6.85,29.12,11.92,56.98,14.64,19.83,1.94,38.01,2.15,44.91,2.15,2.33,0,4.16-.86,5.6-2.64,3.33-4.11,3.64-11.9,2.79-15.86-.26-1.24-3.04-5.91-23.07-22.41-13.05-10.74-29.14-23.01-42.08-32.87-10.6-8.08-18.97-14.46-22.06-17.25-4.57-4.13-10.66-16.2-17.72-30.19-5.02-9.94-10.21-20.22-15.11-28.1-6.89-11.08-10.1-12.27-11.16-12.27-11.03,0-26.59-1.67-42.69-4.58-6.24-1.13-19.74-3.76-25.41-6.31Zm1.43-4.96s.02,.01,.02,.02c0,0-.01-.01-.02-.02Z"/><g><path class="cls-2" d="M12.39,36.19c-5.18,7.48,5.22,23.41,20.02,28.77,20.56,7.45,49.61,2,57.14-7.91,6.69-8.81-22.23-14.26-46.87-18.01-13.73-2.09-26.13-8.86-30.28-2.85Z"/><path class="cls-3" d="M53.96,70.76c-7.59,0-15.35-1.11-22.33-3.64-10.15-3.68-19.22-12.44-22.05-21.3-1.37-4.3-1.05-8.08,.93-10.94,3.74-5.4,11.32-3.35,20.11-.97,3.8,1.03,8.11,2.2,12.42,2.85,33.01,5.02,46.85,9.4,49.39,15.64,.56,1.39,.84,3.57-1.03,6.03-5.44,7.16-21.05,12.32-37.42,12.32ZM18.06,36.07c-1.75,0-3.07,.4-3.78,1.43h0c-1.43,2.07-.97,4.9-.33,6.92,2.05,6.41,9.31,14.78,19.23,18.37,9.16,3.32,20.94,4.21,32.32,2.44,10.43-1.62,18.94-5.29,22.2-9.58,.68-.9,.51-1.31,.43-1.52-.41-1.02-2.75-3.75-15.41-7.05-9.38-2.44-21.17-4.36-30.39-5.77-4.57-.69-9.01-1.9-12.93-2.96-4.42-1.2-8.46-2.29-11.33-2.29Zm-5.67,.12h0Z"/></g><path class="cls-3" d="M162.88,194.33c-.13,0-.26-.01-.39-.04-1.24-.28-30.4-6.81-39.56-11.83-13.26-7.26-22.3-18.59-23.32-50.24-1.24-38.58-20.56-67.09-20.76-67.38-.56-.82-.35-1.93,.46-2.49,.81-.56,1.93-.35,2.49,.46,.2,.29,20.11,29.68,21.38,69.29,1.07,33.31,11.64,41.83,21.46,47.21,8.71,4.77,38.32,11.4,38.62,11.47,.97,.22,1.57,1.17,1.36,2.14-.19,.83-.93,1.4-1.75,1.4Z"/><path class="cls-3" d="M218.76,243.58H2.79c-1.54,0-2.79-1.25-2.79-2.79s1.25-2.79,2.79-2.79H218.76c1.54,0,2.79,1.25,2.79,2.79s-1.25,2.79-2.79,2.79Z"/><g><circle class="cls-3" cx="211.86" cy="58.52" r="58.52"/><text class="cls-1" transform="translate(200.58 48.48)"><tspan class="cls-5"><tspan x="0" y="0">5</tspan></tspan><tspan class="cls-7"><tspan class="cls-8" x="-30.74" y="28.8">t</tspan><tspan class="cls-6" x="-21.81" y="28.8">y</tspan><tspan x="-9.6" y="28.8">g</tspan><tspan class="cls-4" x="4.44" y="28.8">o</tspan><tspan x="18.36" y="28.8">dni</tspan></tspan></text></g></g></svg>