<?xml version="1.0" encoding="UTF-8"?><svg id="Layer_2" xmlns="http://www.w3.org/2000/svg" xmlns:xlink="http://www.w3.org/1999/xlink" viewBox="0 0 298.08 266.4"><defs><style>.cls-1{fill:url(#New_Gradient_Swatch_copy);}.cls-2{font-family:MyriadPro-Bold, 'Myriad Pro';font-size:33.78px;}.cls-2,.cls-3{fill:#043a25;}.cls-4{letter-spacing:0em;}.cls-5{fill:url(#New_Gradient_Swatch_copy-2);}.cls-6{letter-spacing:0em;}</style><linearGradient id="New_Gradient_Swatch_copy" x1="5.31" y1="247.99" x2="293.48" y2="247.99" gradientUnits="userSpaceOnUse"><stop offset="0" stop-color="#f1e5b3"/><stop offset=".29" stop-color="#decb7c"/><stop offset="1" stop-color="#bba16b"/></linearGradient><linearGradient id="New_Gradient_Swatch_copy-2" x1="122.79" y1="54.37" x2="175.28" y2="54.37" xlink:href="#New_Gradient_Swatch_copy"/></defs><g id="ZAMOWIENIE"><g><rect class="cls-1" x="5.31" y="237.53" width="288.17" height="20.93"/><g><path class="cls-3" d="M102.51,58.57H33.8c-12.06,0-21.86,9.81-21.86,21.86V232.55H5.45c-3.01,0-5.45,2.45-5.45,5.46v7.33c0,11.61,9.45,21.06,21.06,21.06h255.96c11.61,0,21.06-9.45,21.06-21.06v-7.33c0-3.01-2.45-5.46-5.45-5.46h0s-6.48,0-6.48,0V125.56c0-2.41-1.96-4.37-4.37-4.37s-4.37,1.96-4.37,4.37v106.99H38.28c-2.41,0-2.41,8.74,0,8.74h251.06v4.05c0,6.8-5.53,12.32-12.32,12.32H21.06c-6.8,0-12.32-5.53-12.32-12.32v-4.05h31.85c2.41,0,2.41-8.74,0-8.74H20.67V80.43c0-7.24,5.89-13.12,13.12-13.12H106.66"/><path class="cls-3" d="M200.28,67.31h14.89s49.12,0,49.12,0c7.24,0,13.12,5.89,13.12,13.12v26.5c0,2.41,1.96,4.37,4.37,4.37s4.37-1.96,4.37-4.37v-26.5c0-12.05-9.81-21.86-21.86-21.86h-62.81"/><path class="cls-3" d="M105.02,76.06H33.78c-2.41,0-4.37,1.96-4.37,4.37h0s0,139.01,0,139.01c0,2.41,1.96,4.37,4.37,4.37h230.52c1.16,0,2.27-.46,3.09-1.28s1.28-1.93,1.28-3.09V80.42c-.01-2.41-1.97-4.37-4.38-4.37h-69.14c-2.41,0-5.14,8.74-2.73,8.74h67.49s.01,130.28,.01,130.28H38.15V84.8H105.59"/><path class="cls-3" d="M149.33,106.83c29.45,0,53.41-23.96,53.41-53.41,0-8.52-1.96-16.67-5.82-24.24-1.1-2.15-8.88,1.82-7.78,3.97,3.23,6.33,4.87,13.15,4.87,20.27,0,24.63-20.04,44.67-44.67,44.67s-44.67-20.04-44.67-44.67S124.7,8.74,149.33,8.74c10.75,0,21.15,3.89,29.27,10.94,1.82,1.58,7.55-5.02,5.73-6.6C174.62,4.65,162.19,0,149.33,0c-29.45,0-53.41,23.96-53.41,53.41s23.96,53.41,53.41,53.41h0Z"/><g><path class="cls-3" d="M183.57,37.29c1.09,1.08,1.69,2.53,1.69,4.07s-.6,2.98-1.69,4.07l-33.02,33.03c-2.48,2.47-5.77,3.84-9.27,3.84s-6.8-1.37-9.27-3.84l-17.51-17.51c-1.09-1.08-1.68-2.53-1.68-4.07s.59-2.98,1.68-4.07l10.4-10.39c2.25-2.25,5.9-2.25,8.14-.01l8.24,8.24,23.76-23.76c2.24-2.24,5.89-2.24,8.13,0l10.4,10.4Zm-8.29,4.07l-6.17-6.18-23.76,23.76c-2.25,2.24-5.9,2.24-8.14,0l-8.24-8.24-6.18,6.18,15.4,15.4c.82,.82,1.92,1.28,3.09,1.28s2.26-.46,3.09-1.28l30.91-30.92Z"/><path class="cls-5" d="M169.11,35.18l6.17,6.18-30.91,30.92c-.83,.82-1.93,1.28-3.09,1.28s-2.27-.46-3.09-1.28l-15.4-15.4,6.18-6.18,8.24,8.24c2.24,2.24,5.89,2.24,8.14,0l23.76-23.76Z"/></g></g><text class="cls-2" transform="translate(48.76 162.49)"><tspan class="cls-4" x="0" y="0">Z</tspan><tspan x="19.76" y="0">AM</tspan><tspan class="cls-6" x="70.49" y="0">Ó</tspan><tspan x="94.47" y="0">WIENIE</tspan></text></g></g></svg>