<?xml version="1.0" encoding="UTF-8"?><svg id="Layer_2" xmlns="http://www.w3.org/2000/svg" xmlns:xlink="http://www.w3.org/1999/xlink" viewBox="0 0 380.32 440.79"><defs><style>.cls-1{fill:url(#New_Gradient_Swatch_copy);}.cls-2{fill:#043a25;}.cls-3{fill:#fff;}</style><linearGradient id="New_Gradient_Swatch_copy" x1="173.09" y1="249.53" x2="371.88" y2="249.53" gradientUnits="userSpaceOnUse"><stop offset="0" stop-color="#f1e5b3"/><stop offset=".29" stop-color="#decb7c"/><stop offset="1" stop-color="#bba16b"/></linearGradient></defs><g id="Layer_14"><path class="cls-1" d="M191.14,151.94s40.99,14.36,63.07-19.58h39.07s27.08,39.35,62.76,15.77l15.85,30.29s-38.64,27.96-39.37,62.89c-1.06,50.8,39.24,74.03,39.24,74.03l-15.33,26.13s-61.97-17.28-82.71,25.23c0,0-37.57-54.4-83.15-19.35l-14.84-32.01s44.68-27.09,37.66-73.1c-7.02-46.02-40.3-61.34-40.3-61.34l18.05-28.96Z"/><g><path class="cls-2" d="M378.39,182.9c1.92-1.24,2.41-2.9,1.46-4.98l-19.05-32.47c-.97-1.65-3.07-2.24-4.76-1.33-12.06,6.51-25.79,8.04-36.71,4.11-9.32-3.36-16.19-10.35-20.4-20.77-.54-1.34-1.85-2.22-3.3-2.22h-43.76c-1.45,0-2.76,.88-3.3,2.23-3.3,8.16-8.28,14.26-14.81,18.13-3.96,2.35-.32,8.47,3.64,6.12,7.27-4.32,12.92-10.83,16.81-19.36h39.07c5.04,11.03,13.18,18.81,23.63,22.57,11.86,4.27,26.37,3.13,39.43-2.99l15.54,26.48c-56.85,34.27-54.22,107.95-.13,136.92l-15.33,26.13c-11.03-5.86-22.9-8.75-34.52-8.38-4.5,.14-4.17,7.28,.23,7.12,11.38-.36,23.06,2.8,33.79,9.14,1.64,.97,3.87,.46,4.88-1.26l19.05-32.47c.98-2.22,.4-3.92-1.72-5.1-41.8-18.89-56.51-75.17-20.48-111.56,10.23-10.64,20.64-16.01,20.74-16.06h0Z"/><path class="cls-2" d="M217.52,150.32c-8.57,.45-17.83-1.75-26.07-6.2-1.69-.91-3.79-.32-4.76,1.33l-19.05,32.47c-.95,2.08-.46,3.74,1.46,4.98,.41,.21,41.1,21.34,41.1,64.05,.89,29.34-19.38,54.08-40.84,63.56-2.12,1.18-2.7,2.87-1.72,5.1l19.05,32.47c1.28,1.77,2.91,2.19,4.88,1.26,28.73-17,61.3-9.86,79.2,17.35,1.98,2.14,3.97,2.14,5.95,0,7.33-11.14,17.3-19.22,28.84-23.36,4.33-1.55,1.93-8.26-2.4-6.7-11.49,4.12-21.57,11.66-29.4,21.95-9.65-12.72-22.46-21.04-37.29-24.2-14.86-3.16-30.85-.64-45.39,7.08l-15.33-26.13c54.15-29.02,56.66-102.69-.13-136.92l15.54-26.48c8.58,4.01,17.96,5.95,26.75,5.49,4.6-.24,4.22-7.36-.37-7.11h0Z"/><path class="cls-2" d="M273.74,337.8c-3.53-2.58-7.77,2.61-4.46,5.54,.68,.6,1.35,1.22,2,1.84,1.64,1.31,3.27,1.31,4.91,0,.66-.63,1.33-1.24,2-1.84,3.32-2.93-.93-8.13-4.46-5.54Z"/><path class="cls-2" d="M215.86,322.68c.1,1.77,1.97,3.45,3.76,3.35,2.07-.12,4.18-.14,6.23-.08,4.6,.18,4.83-6.97,.23-7.12-2.26-.07-4.58-.04-6.86,.09-1.96,.11-3.46,1.79-3.35,3.76Z"/><path class="cls-2" d="M246.17,329.72c1.95,.68,3.89,1.46,5.77,2.32,4.03,1.84,7.13-4.57,2.96-6.48-2.08-.95-4.22-1.81-6.38-2.56-4.35-1.52-6.7,5.2-2.35,6.72Z"/><path class="cls-2" d="M195.4,331.31c.43,0,.86-.08,1.28-.24,.84-.33,1.71-.64,2.56-.94,4.35-1.51,2.01-8.24-2.34-6.73-.93,.32-1.87,.67-2.79,1.02-3.68,1.42-2.46,6.88,1.29,6.88Z"/><path class="cls-2" d="M195.39,315.15c-1.18-1.58-3.41-1.9-4.98-.72-.73,.54-1.48,1.09-2.22,1.61-3.85,2.7,.44,8.39,4.09,5.83,.8-.56,1.61-1.15,2.39-1.73,1.58-1.18,1.9-3.41,.72-4.98h0Z"/><path class="cls-2" d="M230.25,231.77c-.79-4.53-7.81-3.31-7.01,1.23,.3,1.74,.55,3.51,.74,5.27,.48,4.48,7.57,3.88,7.08-.75-.21-1.92-.48-3.85-.81-5.74Z"/><path class="cls-2" d="M231.07,256.76c.46-4.58-6.62-5.3-7.08-.72-.18,1.77-.42,3.55-.7,5.29-.73,4.42,6.27,5.77,7.03,1.15,.31-1.88,.56-3.81,.76-5.73Z"/><path class="cls-2" d="M206.37,196.22c2.94,3.7,8.39-.88,5.58-4.42-1.18-1.49-2.43-2.97-3.7-4.41-3.05-3.44-8.38,1.28-5.33,4.73,1.19,1.34,2.35,2.73,3.45,4.11h0Z"/><path class="cls-2" d="M207.01,298.33c-1.09,1.39-2.25,2.76-3.44,4.09-3.05,3.4,2.19,8.22,5.3,4.75,1.29-1.43,2.54-2.93,3.73-4.43,2.85-3.62-2.74-8.02-5.59-4.41Z"/><path class="cls-2" d="M221.5,218.2c2.31,0,4.21-2.75,3.28-4.95-.75-1.76-1.57-3.53-2.44-5.26-2.07-4.11-8.43-.91-6.36,3.2,.8,1.59,1.55,3.22,2.24,4.84,.57,1.36,1.89,2.17,3.28,2.17h0Z"/><path class="cls-2" d="M218.07,288.05c1.67,.8,3.94,.01,4.75-1.67,.83-1.73,1.62-3.52,2.33-5.31,1.71-4.27-4.9-6.92-6.61-2.65-.66,1.64-1.38,3.28-2.14,4.87-.85,1.77-.1,3.9,1.67,4.75Z"/><path class="cls-2" d="M194.32,174.2c-.76-.61-1.54-1.21-2.32-1.8-3.67-2.78-7.97,2.9-4.3,5.68,.73,.55,1.46,1.12,2.18,1.69,3.52,2.81,8.09-2.65,4.44-5.56Z"/><path class="cls-2" d="M198.5,169.51c3.98,0,4.9-5.94,.91-7-.86-.23-1.74-.48-2.6-.75-4.4-1.36-6.5,5.44-2.11,6.8,.95,.29,1.92,.57,2.88,.83,.31,.08,.61,.12,.92,.12Z"/><path class="cls-2" d="M248.81,156.95c-1.13-1.61-3.35-2.01-4.96-.88-1.44,1.01-2.96,1.94-4.5,2.77-4.17,2.25-.49,8.35,3.38,6.27,1.79-.96,3.54-2.04,5.21-3.21,1.61-1.13,2-3.35,.88-4.96h0Z"/><path class="cls-2" d="M222.55,164.16c-1.74,.23-3.54,.37-5.34,.43-4.5,.15-4.16,7.27,.23,7.12,2.03-.07,4.06-.23,6.03-.48,4.57-.59,3.65-7.66-.91-7.06h0Z"/><path class="cls-2" d="M259.1,149c1.14,0,2.27-.55,2.96-1.57,.19-.27,.37-.55,.55-.83h.88c4.6,0,4.6-7.12,0-7.12h-2.85c-1.25,0-2.4,.65-3.05,1.72-.46,.76-.94,1.52-1.44,2.25-1.51,2.24,.33,5.55,2.95,5.55h0Z"/><path class="cls-2" d="M291.34,143.45c-.49-.73-.98-1.49-1.44-2.25-.64-1.07-1.8-1.72-3.05-1.72h-2.85c-4.6,0-4.6,7.12,0,7.12h.88c.18,.28,.37,.56,.55,.83,2.69,3.99,8.4-.28,5.9-3.98h0Z"/><path class="cls-2" d="M333.71,168.26c.06-1.97-1.48-3.61-3.44-3.67-1.8-.06-3.6-.2-5.34-.43-4.57-.6-5.48,6.47-.92,7.06,1.97,.26,4,.42,6.03,.48,1.79,.06,3.62-1.69,3.67-3.44h0Z"/><path class="cls-2" d="M306.44,165.53c3.76,0,4.61-5.12,1.69-6.7-1.55-.83-3.06-1.77-4.5-2.77-3.77-2.64-7.85,3.2-4.08,5.83,1.67,1.17,3.42,2.25,5.21,3.21,.54,.29,1.12,.43,1.69,.43Z"/><path class="cls-2" d="M350.67,161.76c-.86,.27-1.73,.52-2.59,.75-4.39,1.16-2.43,8.01,1.82,6.88,.96-.25,1.93-.53,2.88-.83,4.4-1.36,2.29-8.16-2.11-6.8h0Z"/><path class="cls-2" d="M352.6,179.21c1.59,1.57,3.26,1.76,5,.56,.71-.57,1.45-1.14,2.18-1.69,3.67-2.78-.63-8.46-4.3-5.68-.78,.59-1.56,1.2-2.32,1.8-1.54,1.23-1.79,3.47-.56,5Z"/><path class="cls-2" d="M329.94,206.38c-1.75-.88-3.9-.18-4.78,1.58-.87,1.73-1.69,3.5-2.44,5.26-1.75,4.13,4.76,7.02,6.56,2.78,.69-1.62,1.44-3.25,2.24-4.84,.88-1.76,.18-3.9-1.58-4.78h0Z"/><path class="cls-2" d="M344.29,187.06c-1.47-1.31-3.72-1.17-5.03,.3-1.28,1.44-2.52,2.92-3.71,4.41-2.81,3.54,2.64,8.13,5.58,4.43,1.1-1.39,2.26-2.77,3.45-4.11,1.31-1.47,1.17-3.72-.3-5.03h0Z"/><path class="cls-2" d="M324.31,276.42c-1.83,.73-2.71,2.8-1.98,4.63,.71,1.79,1.5,3.57,2.33,5.31,1.94,4.05,8.41,1.06,6.42-3.08-.76-1.59-1.48-3.23-2.14-4.88-.73-1.83-2.8-2.71-4.63-1.98h0Z"/><path class="cls-2" d="M341.25,308.34c2.88,0,4.59-3.77,2.65-5.94-1.19-1.33-2.34-2.7-3.43-4.09-2.85-3.62-8.44,.79-5.59,4.41,1.18,1.5,2.44,2.99,3.72,4.43,.7,.79,1.68,1.18,2.65,1.18Z"/><path class="cls-2" d="M317.24,231.73c-.33,1.89-.6,3.82-.81,5.74-.48,4.45,6.58,5.42,7.08,.76,.19-1.76,.44-3.54,.74-5.27,.8-4.53-6.22-5.77-7.01-1.23h0Z"/><path class="cls-2" d="M316.41,256.73c.19,1.92,.45,3.85,.76,5.74,.73,4.46,7.78,3.43,7.03-1.15-.29-1.74-.52-3.53-.7-5.3-.46-4.58-7.55-3.86-7.08,.71h0Z"/><path class="cls-2" d="M355.21,321.86c1.77,1.09,3.43,.8,4.96-.87,1.13-1.61,.74-3.83-.87-4.96-.74-.52-1.49-1.06-2.22-1.61-1.57-1.18-3.81-.85-4.98,.72-1.18,1.58-.85,3.81,.72,4.98,.79,.59,1.59,1.17,2.39,1.73Z"/><path class="cls-2" d="M346.05,325.6c-.65,1.86,.34,3.89,2.19,4.53,1.22,.61,2.5,1,3.84,1.18,1.43,0,2.78-.87,3.32-2.28,.71-1.83-.2-3.9-2.04-4.6-.93-.36-1.87-.7-2.79-1.02-1.86-.65-3.89,.34-4.53,2.19h0Z"/><path class="cls-2" d="M321.64,325.96c2.03-.07,4.15-.04,6.23,.08,4.48,.24,4.87-6.86,.4-7.11-2.29-.13-4.62-.16-6.86-.08-4.6,.15-4.37,7.28,.23,7.12h0Z"/><path class="cls-2" d="M294.07,332.36c.49,0,1-.1,1.47-.32,1.88-.86,3.82-1.64,5.77-2.32,4.35-1.52,2-8.24-2.35-6.72-2.15,.75-4.3,1.61-6.38,2.56-3.5,1.59-2.14,6.8,1.48,6.8h0Z"/></g><g id="outline"><path class="cls-2" d="M63.46,324.67v-77.9c0-11.3-2.97-40.12-4.12-50.83,6.97-2.69,10.44-10.53,7.74-17.5-1.54-3.99-4.88-7.02-9.01-8.16l-3.69-14.74v-21.03l4.53-9.07v-16.55l-9.52-9.52-5.07-20.34H28.19l-5.07,20.35-9.52,9.5v16.55l4.53,9.07v21.03l-3.69,14.74c-7.2,2-11.42,9.45-9.43,16.65,1.14,4.13,4.17,7.47,8.16,9.01-1.14,10.71-4.12,39.54-4.12,50.83v77.9c-7.07,2.49-10.78,10.24-8.29,17.31,1.92,5.44,7.06,9.07,12.82,9.06H58.93c7.49,.01,13.58-6.05,13.59-13.54,.01-5.77-3.62-10.91-9.06-12.82ZM35.27,88.1h1.99l2.27,9.07h-6.52l2.27-9.07Zm-12.61,24.54l6.41-6.41h14.38l6.41,6.41v10.65l-2.8,5.6H25.47l-2.8-5.6v-10.65Zm23.66,47.99l2.27,9.07H23.94l2.27-9.07h20.12Zm-19.13-9.07v-13.6h18.13v13.6H27.2Zm-9.07,27.2H54.4c2.5,0,4.53,2.03,4.53,4.53s-2.03,4.53-4.53,4.53H18.13c-2.5,0-4.53-2.03-4.53-4.53s2.03-4.53,4.53-4.53Zm36.27,68v77.07H18.13v-77.07c0-10.71,2.94-39.26,4.08-49.87h28.11c1.14,10.6,4.08,39.16,4.08,49.87h0Zm4.53,95.2H13.6c-2.5,0-4.53-2.03-4.53-4.53s2.03-4.53,4.53-4.53H58.93c2.5,0,4.53,2.03,4.53,4.53s-2.03,4.53-4.53,4.53Z"/><path class="cls-2" d="M31.73,205.97h9.07v9.07h-9.07v-9.07Z"/><path class="cls-2" d="M31.73,224.1h9.07v9.07h-9.07v-9.07Z"/><path class="cls-2" d="M131.46,276.47v-38.03l8.83-26.5c.38-1.14,.29-2.38-.24-3.46l-8.59-17.18v-21.6h-9.07V88.1c0-2.08-1.42-3.89-3.44-4.4l-18.13-4.53c-2.43-.61-4.89,.87-5.5,3.3-.09,.36-.13,.73-.13,1.1v86.13h-9.07v21.6l-8.61,17.18c-.54,1.08-.62,2.32-.24,3.46l8.85,26.5v38.03c-.47,5.94-1.89,11.77-4.21,17.26-2.78,6.69-4.42,13.8-4.86,21.04,0,31.56,19.88,36.27,31.73,36.27s31.73-4.71,31.73-36.27c-.43-7.24-2.07-14.35-4.86-21.04-2.32-5.49-3.74-11.32-4.21-17.26h0Zm-27.2-187.09l9.07,2.27v78.06h-9.07V89.37Zm-9.07,89.39h27.2v9.07h-27.2v-9.07Zm-1.73,18.13h30.66l6.97,13.95-7.44,22.32h-29.73l-7.44-22.32,6.97-13.95Zm15.33,145.07c-15.25,0-22.67-8.9-22.67-27.2,.46-6.21,1.93-12.3,4.35-18.04,2.69-6.45,4.28-13.29,4.72-20.26v-34.23h27.2v34.23c.44,6.97,2.03,13.82,4.72,20.26,2.42,5.74,3.89,11.83,4.35,18.04,0,18.3-7.42,27.2-22.67,27.2Z"/><path class="cls-2" d="M104.26,251.3h9.07v9.07h-9.07v-9.07Z"/><path class="cls-2" d="M104.26,269.43h9.07v9.07h-9.07v-9.07Z"/></g></g><g id="PRZYGOTOWANIE"><g><circle class="cls-2" cx="197.99" cy="66.87" r="66.87"/><g><path class="cls-3" d="M207.21,31.02h-11.71l-.65,4.65c.65-.09,1.21-.09,1.95-.09,2.88,0,5.81,.65,7.94,2.18,2.28,1.53,3.67,4.04,3.67,7.57,0,5.62-4.83,10.59-12.96,10.59-3.67,0-6.74-.84-8.41-1.72l1.25-5.3c1.35,.65,4.09,1.49,6.83,1.49,2.93,0,6.04-1.39,6.04-4.6s-2.46-5.02-8.5-5.02c-1.67,0-2.83,.09-4.09,.28l2-15.84h16.63v5.81Z"/><path class="cls-3" d="M156.3,71.07v3.84h2.99v3.07h-2.99v4.85c0,1.62,.38,2.36,1.65,2.36,.52,0,.93-.05,1.23-.11l.03,3.15c-.55,.22-1.54,.36-2.72,.36-1.34,0-2.47-.47-3.13-1.15-.77-.8-1.15-2.08-1.15-3.98v-5.49h-1.78v-3.07h1.78v-2.91l4.09-.93Z"/><path class="cls-3" d="M164.97,74.91l2,6.58c.22,.8,.49,1.78,.66,2.5h.08c.19-.71,.41-1.73,.6-2.5l1.65-6.58h4.47l-3.13,8.83c-1.92,5.32-3.21,7.46-4.72,8.81-1.45,1.26-2.99,1.7-4.03,1.84l-.88-3.54c.52-.08,1.18-.33,1.81-.71,.63-.33,1.32-.99,1.73-1.67,.14-.19,.22-.41,.22-.6,0-.14-.03-.36-.19-.69l-4.91-12.26h4.64Z"/><path class="cls-3" d="M188.61,74.91c-.05,.85-.11,1.98-.11,3.98v7.49c0,2.58-.52,4.69-2.03,6.03-1.48,1.26-3.48,1.65-5.46,1.65-1.76,0-3.62-.36-4.83-1.04l.82-3.16c.85,.49,2.33,1.02,3.9,1.02,1.97,0,3.48-1.07,3.48-3.54v-.88h-.05c-.8,1.12-2.08,1.76-3.62,1.76-3.32,0-5.68-2.69-5.68-6.56,0-4.31,2.8-7.05,6.09-7.05,1.84,0,2.99,.8,3.68,1.89h.05l.14-1.59h3.62Zm-4.28,5.46c0-.27-.03-.55-.08-.77-.3-1.1-1.1-1.84-2.25-1.84-1.51,0-2.74,1.37-2.74,3.81,0,2,.99,3.57,2.74,3.57,1.07,0,1.92-.71,2.19-1.7,.11-.3,.14-.74,.14-1.1v-1.98Z"/><path class="cls-3" d="M205.1,81.47c0,4.91-3.48,7.16-7.08,7.16-3.92,0-6.94-2.58-6.94-6.91s2.85-7.1,7.16-7.1,6.86,2.82,6.86,6.86Zm-9.71,.14c0,2.3,.96,4.03,2.74,4.03,1.62,0,2.66-1.62,2.66-4.03,0-2-.77-4.03-2.66-4.03-2,0-2.74,2.06-2.74,4.03Z"/><path class="cls-3" d="M220.76,68.85v15.47c0,1.51,.05,3.1,.11,4h-3.7l-.19-1.98h-.05c-.85,1.51-2.47,2.28-4.2,2.28-3.18,0-5.73-2.72-5.73-6.89-.03-4.53,2.8-7.13,6.01-7.13,1.65,0,2.94,.58,3.54,1.51h.05v-7.27h4.17Zm-4.17,11.74c0-.22-.03-.52-.05-.74-.25-1.12-1.15-2.06-2.44-2.06-1.89,0-2.88,1.7-2.88,3.81,0,2.28,1.13,3.7,2.85,3.7,1.21,0,2.17-.82,2.41-2,.08-.3,.11-.6,.11-.96v-1.76Z"/><path class="cls-3" d="M224.1,79.19c0-1.67-.06-3.1-.11-4.28h3.62l.19,1.84h.08c.55-.85,1.92-2.14,4.14-2.14,2.74,0,4.8,1.81,4.8,5.76v7.96h-4.17v-7.43c0-1.73-.6-2.91-2.11-2.91-1.15,0-1.84,.8-2.11,1.56-.11,.25-.16,.66-.16,1.04v7.74h-4.17v-9.14Z"/><path class="cls-3" d="M244.48,71.18c0,1.15-.88,2.08-2.25,2.08s-2.19-.93-2.17-2.08c-.03-1.21,.85-2.11,2.19-2.11s2.19,.91,2.22,2.11Zm-4.31,17.14v-13.41h4.17v13.41h-4.17Z"/></g></g></g><g id="WYBOR"><g><path class="cls-2" d="M55.31,399.89l-5.41-22.77h5.51l1.72,9.39c.51,2.7,.98,5.64,1.35,7.94h.07c.37-2.47,.91-5.2,1.49-8.01l1.93-9.32h5.47l1.82,9.59c.51,2.67,.88,5.1,1.22,7.64h.07c.34-2.53,.84-5.2,1.32-7.91l1.86-9.32h5.24l-5.88,22.77h-5.57l-1.93-9.8c-.44-2.3-.81-4.43-1.08-7.03h-.07c-.41,2.57-.78,4.73-1.32,7.03l-2.16,9.8h-5.64Z"/><path class="cls-2" d="M86.89,399.89v-9.32l-7.2-13.45h5.88l2.33,5.47c.71,1.66,1.18,2.87,1.76,4.36h.07c.51-1.42,1.05-2.74,1.72-4.36l2.3-5.47h5.78l-7.5,13.28v9.49h-5.13Z"/><path class="cls-2" d="M101.38,377.42c1.66-.27,4.12-.47,6.86-.47,3.38,0,5.74,.51,7.36,1.79,1.35,1.08,2.09,2.67,2.09,4.76,0,2.91-2.06,4.9-4.02,5.61v.1c1.59,.64,2.47,2.16,3.04,4.26,.71,2.57,1.42,5.54,1.86,6.42h-5.27c-.37-.64-.91-2.5-1.59-5.3-.61-2.84-1.59-3.62-3.68-3.65h-1.55v8.95h-5.1v-22.47Zm5.1,9.8h2.03c2.57,0,4.09-1.28,4.09-3.28,0-2.09-1.42-3.14-3.78-3.18-1.25,0-1.96,.1-2.33,.17v6.28Z"/><path class="cls-2" d="M142.12,388.26c0,7.47-4.53,11.99-11.18,11.99s-10.71-5.1-10.71-11.59c0-6.82,4.36-11.93,11.08-11.93s10.81,5.24,10.81,11.52Zm-16.45,.3c0,4.46,2.09,7.6,5.54,7.6s5.47-3.31,5.47-7.74c0-4.09-1.96-7.6-5.51-7.6s-5.51,3.31-5.51,7.74Zm11.38-16.86l-4.12,4.16h-4.12l2.84-4.16h5.41Z"/><path class="cls-2" d="M145.49,377.42c1.35-.27,4.09-.47,6.66-.47,3.14,0,5.07,.3,6.72,1.28,1.59,.84,2.74,2.4,2.74,4.46s-1.18,3.92-3.75,4.86v.07c2.6,.71,4.53,2.67,4.53,5.61,0,2.06-.95,3.68-2.36,4.83-1.66,1.32-4.43,2.06-8.95,2.06-2.53,0-4.43-.17-5.57-.34v-22.36Zm5.1,8.72h1.69c2.7,0,4.16-1.11,4.16-2.8s-1.32-2.63-3.65-2.63c-1.11,0-1.76,.07-2.2,.13v5.3Zm0,10.1c.51,.07,1.11,.07,1.99,.07,2.33,0,4.39-.88,4.39-3.28s-2.06-3.21-4.63-3.21h-1.76v6.42Z"/><path class="cls-2" d="M172.72,377.12h13.92v4.22h-8.75v5.2h8.18v4.19h-8.18v9.16h-5.17v-22.77Z"/><path class="cls-2" d="M195.68,377.12v22.77h-5.17v-22.77h5.17Z"/><path class="cls-2" d="M200.14,399.89v-22.77h6.01l4.73,8.34c1.35,2.4,2.7,5.24,3.72,7.8h.1c-.34-3.01-.44-6.08-.44-9.49v-6.66h4.73v22.77h-5.41l-4.86-8.78c-1.35-2.43-2.84-5.37-3.95-8.04l-.1,.03c.13,3.01,.2,6.22,.2,9.93v6.86h-4.73Z"/><path class="cls-2" d="M228.75,394.04l-1.62,5.84h-5.34l6.96-22.77h6.76l7.06,22.77h-5.54l-1.76-5.84h-6.52Zm5.78-3.85l-1.42-4.83c-.41-1.35-.81-3.04-1.15-4.39h-.07c-.34,1.35-.68,3.07-1.05,4.39l-1.35,4.83h5.03Z"/><path class="cls-2" d="M245.6,377.12h5.17v18.45h9.05v4.32h-14.22v-22.77Z"/><path class="cls-2" d="M262.86,399.89v-22.77h6.01l4.73,8.34c1.35,2.4,2.7,5.24,3.72,7.8h.1c-.34-3.01-.44-6.08-.44-9.49v-6.66h4.73v22.77h-5.41l-4.86-8.78c-1.35-2.43-2.84-5.37-3.95-8.04l-.1,.03c.13,3.01,.2,6.22,.2,9.93v6.86h-4.73Z"/><path class="cls-2" d="M299.71,390.26h-8.38v5.41h9.36v4.22h-14.53v-22.77h14.05v4.22h-8.88v4.73h8.38v4.19Z"/><path class="cls-2" d="M309.4,377.12h5.13v14.39c0,6.49-3.11,8.75-8.11,8.75-1.18,0-2.74-.2-3.75-.54l.58-4.16c.71,.24,1.62,.41,2.63,.41,2.16,0,3.51-.98,3.51-4.53v-14.32Z"/><path class="cls-2" d="M77.35,417.95c1.59-.27,3.82-.47,6.96-.47s5.44,.61,6.96,1.82c1.45,1.15,2.43,3.04,2.43,5.27s-.74,4.12-2.09,5.41c-1.76,1.66-4.36,2.4-7.4,2.4-.68,0-1.28-.03-1.76-.1v8.14h-5.1v-22.47Zm5.1,10.34c.44,.1,.98,.13,1.72,.13,2.74,0,4.43-1.38,4.43-3.72,0-2.09-1.45-3.34-4.02-3.34-1.05,0-1.76,.1-2.13,.2v6.72Z"/><path class="cls-2" d="M100.25,434.57l-1.62,5.84h-5.34l6.96-22.77h6.76l7.06,22.77h-5.54l-1.76-5.84h-6.52Zm5.78-3.85l-1.42-4.83c-.41-1.35-.81-3.04-1.15-4.39h-.07c-.34,1.35-.68,3.07-1.05,4.39l-1.35,4.83h5.03Z"/><path class="cls-2" d="M117.1,417.95c1.66-.27,4.12-.47,6.86-.47,3.38,0,5.74,.51,7.36,1.79,1.35,1.08,2.09,2.67,2.09,4.76,0,2.91-2.06,4.9-4.02,5.61v.1c1.59,.64,2.47,2.16,3.04,4.26,.71,2.57,1.42,5.54,1.86,6.42h-5.27c-.37-.64-.91-2.5-1.59-5.3-.61-2.84-1.59-3.62-3.68-3.65h-1.55v8.95h-5.1v-22.47Zm5.1,9.8h2.03c2.57,0,4.09-1.28,4.09-3.28,0-2.09-1.42-3.14-3.78-3.18-1.25,0-1.96,.1-2.33,.17v6.28Z"/><path class="cls-2" d="M141.76,440.42v-9.32l-7.2-13.45h5.88l2.33,5.47c.71,1.66,1.18,2.87,1.76,4.36h.07c.51-1.42,1.05-2.74,1.72-4.36l2.3-5.47h5.78l-7.5,13.28v9.49h-5.13Z"/><path class="cls-2" d="M184.52,428.8c0,7.47-4.53,11.99-11.18,11.99s-10.71-5.1-10.71-11.59c0-6.82,4.36-11.93,11.08-11.93s10.81,5.24,10.81,11.52Zm-16.45,.3c0,4.46,2.09,7.6,5.54,7.6s5.47-3.31,5.47-7.74c0-4.09-1.96-7.6-5.51-7.6s-5.51,3.31-5.51,7.74Z"/><path class="cls-2" d="M187.9,417.95c1.35-.27,4.09-.47,6.66-.47,3.14,0,5.07,.3,6.72,1.28,1.59,.84,2.74,2.4,2.74,4.46s-1.18,3.92-3.75,4.86v.07c2.6,.71,4.53,2.67,4.53,5.61,0,2.06-.95,3.68-2.37,4.83-1.66,1.32-4.42,2.06-8.95,2.06-2.53,0-4.43-.17-5.57-.34v-22.36Zm5.1,8.72h1.69c2.7,0,4.16-1.11,4.16-2.8s-1.32-2.63-3.65-2.63c-1.11,0-1.76,.07-2.2,.13v5.3Zm0,10.1c.51,.07,1.11,.07,1.99,.07,2.33,0,4.39-.88,4.39-3.28s-2.06-3.21-4.63-3.21h-1.76v6.42Z"/><path class="cls-2" d="M213.43,417.65v13.11c0,3.92,1.49,5.91,4.12,5.91s4.19-1.89,4.19-5.91v-13.11h5.13v12.77c0,7.03-3.55,10.37-9.49,10.37s-9.12-3.18-9.12-10.44v-12.7h5.17Z"/><path class="cls-2" d="M235.01,440.42l-5.41-22.77h5.51l1.72,9.39c.51,2.7,.98,5.64,1.35,7.94h.07c.37-2.47,.91-5.2,1.49-8.01l1.93-9.32h5.47l1.82,9.59c.51,2.67,.88,5.1,1.22,7.64h.07c.34-2.53,.84-5.2,1.32-7.91l1.86-9.32h5.24l-5.88,22.77h-5.57l-1.93-9.8c-.44-2.3-.81-4.43-1.08-7.03h-.07c-.41,2.57-.78,4.73-1.32,7.03l-2.16,9.8h-5.64Z"/><path class="cls-2" d="M266.49,417.65v22.77h-5.17v-22.77h5.17Z"/><path class="cls-2" d="M276.25,434.57l-1.62,5.84h-5.34l6.96-22.77h6.76l7.06,22.77h-5.54l-1.76-5.84h-6.52Zm5.78-3.85l-1.42-4.83c-.41-1.35-.81-3.04-1.15-4.39h-.07c-.34,1.35-.68,3.07-1.05,4.39l-1.35,4.83h5.03Z"/></g></g></svg>