<?xml version="1.0" encoding="UTF-8"?><svg id="Layer_2" xmlns="http://www.w3.org/2000/svg" xmlns:xlink="http://www.w3.org/1999/xlink" viewBox="0 0 364.58 307.37"><defs><style>.cls-1{fill:none;}.cls-2{fill:url(#New_Gradient_Swatch_copy);}.cls-3{fill:#043a25;}</style><linearGradient id="New_Gradient_Swatch_copy" x1="103.96" y1="87.1" x2="264.57" y2="87.1" gradientUnits="userSpaceOnUse"><stop offset="0" stop-color="#f1e5b3"/><stop offset=".29" stop-color="#decb7c"/><stop offset="1" stop-color="#bba16b"/></linearGradient></defs><g id="WYBOR"><g><path class="cls-3" d="M343.79,96.51c-1.56-2.27-3.75-3.99-6.32-4.97l-13.5-5.16h-4.92c-3.26,0-6.35-1.42-8.47-3.89l-21.8-25.41s-5.26-.72-9.22,3.43c-2.16,2.26-3.42,5.16-3.41,8.28l.24,2.32,8.62,35.09h9.29v-15.82c0-1.27,.2-2.39,.62-3.39,1.14,1.25,2.24,2.52,3.31,3.83l3.99,4.88c2.47,3.46,5.03,5.98,7.83,7.71,3.09,1.91,6.41,2.84,10.14,2.84h25.98v-2.05c0-2.75-.83-5.41-2.39-7.68Zm-53.59-6.59c0,.15,0,.31,0,.46v11.72h-1.97l-6.69-27.23c3.68,2.74,7.15,5.74,10.39,8.98-1.09,1.78-1.66,3.78-1.72,6.07h0Zm51.65,12.22h-21.65c-5.78,0-10.3-2.74-14.67-8.88l-.04-.06-4.08-4.98c-5.32-6.5-11.46-12.3-18.25-17.25l-2.91-2.12h0s0-.06,0-.06c0-.13,0-.25,0-.38,.09-1.89,.86-3.65,2.21-5,1.07-1.07,2.4-1.78,3.84-2.08,.21-.04,.42-.08,.63-.1l20.53,23.93c2.9,3.38,7.13,5.33,11.58,5.33h4.16l12.8,4.89c2.98,1.14,5.15,3.72,5.84,6.76h0Z"/><path class="cls-3" d="M307.67,142.55c-31.38,0-56.91-25.53-56.91-56.91s25.53-56.91,56.91-56.91,56.91,25.53,56.91,56.91-25.53,56.91-56.91,56.91Zm0-107.31c-27.79,0-50.4,22.61-50.4,50.4s22.61,50.4,50.4,50.4,50.4-22.61,50.4-50.4-22.61-50.4-50.4-50.4Z"/></g><g><path class="cls-3" d="M93.03,96.21c-1.56-2.27-3.75-3.99-6.32-4.97l-13.5-5.16h-4.92c-3.26,0-6.35-1.42-8.47-3.89l-21.8-25.41s-5.26-.72-9.22,3.43c-2.16,2.26-3.42,5.16-3.41,8.28l.24,2.32,8.62,35.09h9.29v-15.82c0-1.27,.2-2.39,.62-3.39,1.14,1.25,2.24,2.52,3.31,3.83l3.99,4.88c2.47,3.46,5.03,5.98,7.83,7.71,3.09,1.91,6.41,2.84,10.14,2.84h25.98v-2.05c0-2.75-.83-5.41-2.39-7.68Zm-53.59-6.59c0,.15,0,.31,0,.46v11.72h-1.97l-6.69-27.23c3.68,2.74,7.15,5.74,10.39,8.98-1.09,1.78-1.66,3.78-1.72,6.07h0Zm51.65,12.22h-21.65c-5.78,0-10.3-2.74-14.67-8.88l-.04-.06-4.08-4.98c-5.32-6.5-11.46-12.3-18.25-17.25l-2.91-2.12h0s0-.06,0-.06c0-.13,0-.25,0-.38,.09-1.89,.86-3.65,2.21-5,1.07-1.07,2.4-1.78,3.84-2.08,.21-.04,.42-.08,.63-.1l20.53,23.93c2.9,3.38,7.13,5.33,11.58,5.33h4.16l12.8,4.89c2.98,1.14,5.15,3.72,5.84,6.76h0Z"/><path class="cls-3" d="M56.91,142.25C25.53,142.25,0,116.72,0,85.34S25.53,28.43,56.91,28.43s56.91,25.53,56.91,56.91-25.53,56.91-56.91,56.91Zm0-107.31c-27.79,0-50.4,22.61-50.4,50.4s22.61,50.4,50.4,50.4,50.4-22.61,50.4-50.4-22.61-50.4-50.4-50.4Z"/></g><g><path class="cls-1" d="M246.74,187.62c-4.13,0-7.48,3.36-7.48,7.48v18.71c0,2.07-1.68,3.74-3.74,3.74s-3.74-1.68-3.74-3.74v-26.2c0-4.12-3.35-7.48-7.48-7.48s-7.48,3.36-7.48,7.48v26.2c0,2.07-1.68,3.74-3.74,3.74s-3.74-1.68-3.74-3.74v-33.68c0-3.65-2.63-6.7-6.09-7.35-1.78,.4-3.57,.75-5.39,1.04-2.09,1.33-3.48,3.66-3.48,6.31v33.68c0,2.07-1.68,3.74-3.74,3.74s-3.74-1.68-3.74-3.74v-39c-.87,.03-1.73,.07-2.6,.07-4.2,0-8.32-.32-12.37-.89v62.28c0,1.29-.67,2.5-1.77,3.18-1.09,.68-2.48,.74-3.64,.16l-25.99-12.99c-2.07-1.03-4.38-1.58-6.69-1.58-3.76,0-6.81,3.05-6.81,6.81,0,1.86,.71,3.58,2,4.86l48.4,48.39c9.52,9.53,22.18,14.78,35.66,14.78,22.7,0,41.17-18.46,41.17-41.16v-63.62c0-4.12-3.35-7.48-7.48-7.48Z"/><path class="cls-2" d="M261.71,87.44c0-42.7-34.74-77.44-77.44-77.44S106.82,44.74,106.82,87.44c0,35.84,24.48,66.06,57.59,74.85v-19.58c0-8.26,6.71-14.97,14.97-14.97s14.97,6.71,14.97,14.97v21.49c37.95-4.96,67.36-37.48,67.36-76.77Zm-109.71,6.87v26.05h-10.77l-11.74-46.34,5.3,3.51c6.38,4.22,12.19,9.19,17.35,14.8-.09,.65-.14,1.31-.14,1.98Zm30.44,21.44c-4.61-2.85-8.83-7-12.89-12.69l-8.86-10.82c-6.38-7.8-13.9-14.59-22.3-20.16l-11.29-7.48c-.28-1.28-.48-5.83-.48-5.83-.01-5.15,1.98-9.99,5.62-13.63,3.64-3.64,8.47-5.65,13.62-5.65h1.55l35.89,41.84c3.49,4.07,8.58,6.41,13.94,6.41h8.11l19.35,7.52h0c10.38,4.04,17.22,14.03,17.22,25.17h-42.77c-6.15,0-11.62-1.53-16.7-4.67Z"/><path class="cls-3" d="M201.84,172.65c-1.47,0-2.84,.43-4,1.17,1.82-.28,3.61-.64,5.39-1.04-.45-.08-.91-.13-1.39-.13Z"/><path class="cls-3" d="M164.42,162.29c-33.11-8.79-57.59-39.01-57.59-74.85,0-42.7,34.74-77.44,77.44-77.44s77.44,34.74,77.44,77.44c0,39.28-29.41,71.8-67.36,76.77v2.98c2.2-1.28,4.76-2.01,7.48-2.01,4.37,0,8.3,1.89,11.04,4.88,34.2-11.88,58.83-44.41,58.83-82.61C271.71,39.23,232.48,0,184.27,0S96.83,39.23,96.83,87.44c0,41.39,28.91,76.12,67.59,85.14v-10.29Z"/><path class="cls-3" d="M134.79,77.53l-5.3-3.51,11.74,46.34h10.77v-26.05c0-.66,.05-1.33,.14-1.98-5.16-5.62-10.98-10.58-17.35-14.8Z"/><path class="cls-3" d="M224.7,95.25h0s-19.35-7.52-19.35-7.52h-8.11c-5.37,0-10.45-2.34-13.94-6.41l-35.89-41.84h-1.55c-5.15,0-9.99,2.01-13.62,5.65-3.64,3.64-5.63,8.49-5.62,13.63,0,0,.2,4.55,.48,5.83l11.29,7.48c8.4,5.56,15.92,12.36,22.3,20.16l8.86,10.82c4.06,5.69,8.28,9.84,12.89,12.69,5.08,3.14,10.55,4.67,16.7,4.67h42.77c0-11.14-6.84-21.13-17.22-25.17Z"/><path class="cls-3" d="M246.74,180.14c-3.08,0-5.94,.94-8.32,2.53-2.05-5.82-7.61-10.01-14.13-10.01-3.08,0-5.94,.94-8.32,2.53-.68-1.92-1.74-3.66-3.09-5.13-2.74-2.99-6.67-4.88-11.04-4.88-2.72,0-5.28,.73-7.48,2.01v-24.47c0-8.26-6.71-14.97-14.97-14.97s-14.97,6.71-14.97,14.97v87.5l-20.57-10.29c-3.1-1.55-6.57-2.37-10.04-2.37-7.89,0-14.3,6.41-14.3,14.34,0,3.82,1.49,7.41,4.19,10.11l48.39,48.39c10.93,10.94,25.49,16.97,40.97,16.97,26.82,0,48.65-21.82,48.65-48.65v-63.62c0-8.26-6.71-14.97-14.97-14.97Zm7.48,78.58c0,22.7-18.47,41.16-41.17,41.16-13.48,0-26.14-5.25-35.66-14.78l-48.4-48.39c-1.29-1.28-2-2.99-2-4.86,0-3.76,3.05-6.81,6.81-6.81,2.31,0,4.62,.55,6.69,1.58l25.99,12.99c1.16,.58,2.54,.52,3.64-.16,1.1-.68,1.77-1.89,1.77-3.18v-93.55c0-4.12,3.35-7.48,7.48-7.48s7.48,3.36,7.48,7.48v71.1c0,2.07,1.68,3.74,3.74,3.74s3.74-1.68,3.74-3.74v-33.68c0-2.65,1.39-4.98,3.48-6.31,1.16-.74,2.53-1.17,4-1.17,.48,0,.94,.05,1.39,.13,3.47,.65,6.09,3.7,6.09,7.35v33.68c0,2.07,1.68,3.74,3.74,3.74s3.74-1.68,3.74-3.74v-26.2c0-4.12,3.35-7.48,7.48-7.48s7.48,3.36,7.48,7.48v26.2c0,2.07,1.68,3.74,3.74,3.74s3.74-1.68,3.74-3.74v-18.71c0-4.12,3.35-7.48,7.48-7.48s7.48,3.36,7.48,7.48v63.62Z"/></g></g></svg>