<?xml version="1.0" encoding="UTF-8"?><svg id="Layer_2" xmlns="http://www.w3.org/2000/svg" xmlns:xlink="http://www.w3.org/1999/xlink" viewBox="0 0 314.09 310.92"><defs><style>.cls-1{fill:none;}.cls-2{fill:url(#New_Gradient_Swatch_copy);}.cls-3{fill:#043a25;}</style><linearGradient id="New_Gradient_Swatch_copy" x1="89.57" y1="121.16" x2="227.93" y2="121.16" gradientUnits="userSpaceOnUse"><stop offset="0" stop-color="#f1e5b3"/><stop offset=".29" stop-color="#decb7c"/><stop offset="1" stop-color="#bba16b"/></linearGradient></defs><g id="Layer_14"><g><circle class="cls-1" cx="265.07" cy="119.64" r="45.03"/><path class="cls-3" d="M296.18,129.27c-1.35-1.95-3.23-3.43-5.45-4.28l-11.63-4.44h-4.24c-2.81,0-5.47-1.22-7.3-3.35l-18.78-21.89s-4.53-.62-7.94,2.96c-1.86,1.95-2.95,4.44-2.94,7.14l.21,2,7.43,30.23h8v-13.63c0-1.1,.17-2.06,.54-2.92,.98,1.07,1.93,2.17,2.85,3.3l3.44,4.2c2.12,2.98,4.33,5.15,6.75,6.64,2.66,1.64,5.52,2.44,8.74,2.44h22.38v-1.77c0-2.37-.71-4.66-2.06-6.61Zm-46.17-5.68c0,.13,0,.26,0,.4v10.1h-1.7l-5.76-23.46c3.17,2.36,6.16,4.95,8.95,7.74-.94,1.54-1.43,3.26-1.48,5.23h0Zm44.49,10.52h-18.65c-4.98,0-8.88-2.36-12.64-7.65l-.03-.05-3.51-4.29c-4.58-5.6-9.87-10.6-15.72-14.86l-2.51-1.83h0s0-.06,0-.06c0-.11,0-.22,0-.33,.08-1.63,.74-3.14,1.9-4.3,.92-.92,2.06-1.53,3.31-1.79,.18-.04,.36-.06,.54-.09l17.69,20.61c2.5,2.92,6.14,4.59,9.98,4.59h3.59l11.03,4.21c2.57,.98,4.44,3.21,5.03,5.83h0Z"/><path class="cls-3" d="M265.07,168.93c-27.03,0-49.03-21.99-49.03-49.03s21.99-49.03,49.03-49.03,49.03,21.99,49.03,49.03-21.99,49.03-49.03,49.03Zm0-92.45c-23.94,0-43.42,19.48-43.42,43.42s19.48,43.42,43.42,43.42,43.42-19.48,43.42-43.42-19.48-43.42-43.42-43.42Z"/></g><g><circle class="cls-1" cx="49.03" cy="119.38" r="45.03"/><path class="cls-3" d="M80.14,129.01c-1.35-1.95-3.23-3.43-5.45-4.28l-11.63-4.44h-4.24c-2.81,0-5.47-1.22-7.3-3.35l-18.78-21.89s-4.53-.62-7.94,2.96c-1.86,1.95-2.95,4.44-2.94,7.14l.21,2,7.43,30.23h8v-13.63c0-1.1,.17-2.06,.54-2.92,.98,1.07,1.93,2.17,2.85,3.3l3.44,4.2c2.12,2.98,4.33,5.15,6.75,6.64,2.66,1.64,5.52,2.44,8.74,2.44h22.38v-1.77c0-2.37-.71-4.66-2.06-6.61Zm-46.17-5.68c0,.13,0,.26,0,.4v10.1h-1.7l-5.76-23.46c3.17,2.36,6.16,4.95,8.95,7.74-.94,1.54-1.43,3.26-1.48,5.23h0Zm44.49,10.52h-18.65c-4.98,0-8.88-2.36-12.64-7.65l-.03-.05-3.51-4.29c-4.58-5.6-9.87-10.6-15.72-14.86l-2.51-1.83h0s0-.06,0-.06c0-.11,0-.22,0-.33,.08-1.63,.74-3.14,1.9-4.3,.92-.92,2.06-1.53,3.31-1.79,.18-.04,.36-.06,.54-.09l17.69,20.61c2.5,2.92,6.14,4.59,9.98,4.59h3.59l11.03,4.21c2.57,.98,4.44,3.21,5.03,5.83h0Z"/><path class="cls-3" d="M49.03,168.67C21.99,168.67,0,146.68,0,119.64s21.99-49.03,49.03-49.03,49.03,21.99,49.03,49.03-21.99,49.03-49.03,49.03Zm0-92.45c-23.94,0-43.42,19.48-43.42,43.42s19.48,43.42,43.42,43.42,43.42-19.48,43.42-43.42-19.48-43.42-43.42-43.42Z"/></g><g><path class="cls-1" d="M212.57,207.76c-3.56,0-6.45,2.89-6.45,6.45v16.12c0,1.78-1.44,3.22-3.22,3.22s-3.22-1.44-3.22-3.22v-22.57c0-3.55-2.89-6.45-6.45-6.45s-6.45,2.89-6.45,6.45v22.57c0,1.78-1.44,3.22-3.22,3.22s-3.22-1.44-3.22-3.22v-29.02c0-3.14-2.26-5.77-5.25-6.33-1.53,.34-3.08,.65-4.65,.89-1.8,1.15-3,3.15-3,5.44v29.02c0,1.78-1.44,3.22-3.22,3.22s-3.22-1.44-3.22-3.22v-33.6c-.75,.02-1.49,.06-2.24,.06-3.62,0-7.17-.27-10.65-.77v53.65c0,1.12-.58,2.15-1.53,2.74-.94,.59-2.13,.64-3.13,.14l-22.39-11.19c-1.79-.89-3.77-1.36-5.76-1.36-3.24,0-5.87,2.63-5.87,5.87,0,1.61,.61,3.08,1.72,4.18l41.7,41.69c8.2,8.21,19.11,12.73,30.72,12.73,19.56,0,35.47-15.91,35.47-35.46v-54.81c0-3.55-2.89-6.45-6.45-6.45Z"/><path class="cls-2" d="M225.47,121.45c0-36.79-29.93-66.72-66.72-66.72s-66.72,29.93-66.72,66.72c0,30.88,21.09,56.91,49.62,64.49v-16.87c0-7.11,5.78-12.9,12.9-12.9s12.9,5.78,12.9,12.9v18.51c32.7-4.27,58.03-32.29,58.03-66.14Zm-94.52,5.92v22.44h-9.28l-10.11-39.92,4.56,3.02c5.49,3.64,10.5,7.91,14.95,12.75-.08,.56-.12,1.13-.12,1.7Zm26.23,18.47c-3.97-2.46-7.61-6.03-11.11-10.94l-7.63-9.32c-5.5-6.72-11.98-12.57-19.22-17.36l-9.73-6.44c-.25-1.1-.42-5.03-.42-5.03-.01-4.43,1.71-8.61,4.84-11.75,3.13-3.14,7.3-4.87,11.73-4.87h1.34l30.92,36.04c3.01,3.51,7.39,5.52,12.01,5.52h6.98l16.67,6.48h0c8.94,3.48,14.83,12.09,14.83,21.68h-36.85c-5.3,0-10.01-1.32-14.39-4.02Z"/><path class="cls-3" d="M173.89,194.86c-1.27,0-2.45,.37-3.45,1.01,1.57-.25,3.11-.55,4.65-.89-.39-.07-.79-.12-1.2-.12Z"/><path class="cls-3" d="M141.65,185.94c-28.53-7.57-49.62-33.61-49.62-64.49,0-36.79,29.93-66.72,66.72-66.72s66.72,29.93,66.72,66.72c0,33.84-25.33,61.86-58.03,66.14v2.56c1.9-1.1,4.1-1.73,6.45-1.73,3.76,0,7.15,1.63,9.51,4.21,29.47-10.23,50.68-38.26,50.68-71.17,0-41.54-33.79-75.33-75.33-75.33s-75.33,33.79-75.33,75.33c0,35.65,24.91,65.58,58.23,73.35v-8.86Z"/><path class="cls-3" d="M116.12,112.91l-4.56-3.02,10.11,39.92h9.28v-22.44c0-.57,.04-1.14,.12-1.7-4.44-4.84-9.46-9.12-14.95-12.75Z"/><path class="cls-3" d="M193.58,128.18h0s-16.67-6.48-16.67-6.48h-6.98c-4.62,0-9-2.01-12.01-5.52l-30.92-36.04h-1.34c-4.43,0-8.6,1.73-11.73,4.87-3.13,3.14-4.85,7.31-4.84,11.75,0,0,.17,3.92,.42,5.03l9.73,6.44c7.24,4.79,13.72,10.65,19.22,17.36l7.63,9.32c3.5,4.9,7.13,8.48,11.11,10.94,4.38,2.71,9.09,4.02,14.39,4.02h36.85c0-9.59-5.89-18.21-14.83-21.68Z"/><path class="cls-3" d="M212.57,201.31c-2.65,0-5.12,.81-7.17,2.18-1.77-5.02-6.56-8.63-12.17-8.63-2.65,0-5.12,.81-7.17,2.18-.58-1.66-1.5-3.15-2.66-4.42-2.36-2.58-5.75-4.21-9.51-4.21-2.35,0-4.55,.63-6.45,1.73v-21.08c0-7.11-5.78-12.9-12.9-12.9s-12.9,5.78-12.9,12.9v75.38l-17.73-8.87c-2.67-1.34-5.66-2.04-8.65-2.04-6.8,0-12.32,5.53-12.32,12.35,0,3.29,1.28,6.38,3.61,8.71l41.69,41.69c9.42,9.43,21.96,14.62,35.3,14.62,23.11,0,41.91-18.8,41.91-41.91v-54.81c0-7.11-5.78-12.9-12.9-12.9Zm6.45,67.7c0,19.56-15.91,35.46-35.47,35.46-11.61,0-22.52-4.52-30.72-12.73l-41.7-41.69c-1.11-1.1-1.72-2.58-1.72-4.18,0-3.24,2.63-5.87,5.87-5.87,1.99,0,3.98,.47,5.76,1.36l22.39,11.19c1,.5,2.19,.44,3.13-.14,.95-.59,1.53-1.62,1.53-2.74v-80.6c0-3.55,2.89-6.45,6.45-6.45s6.45,2.9,6.45,6.45v61.25c0,1.78,1.44,3.22,3.22,3.22s3.22-1.44,3.22-3.22v-29.02c0-2.29,1.2-4.29,3-5.44,1-.64,2.18-1.01,3.45-1.01,.41,0,.81,.04,1.2,.12,2.99,.56,5.25,3.19,5.25,6.33v29.02c0,1.78,1.44,3.22,3.22,3.22s3.22-1.44,3.22-3.22v-22.57c0-3.55,2.89-6.45,6.45-6.45s6.45,2.9,6.45,6.45v22.57c0,1.78,1.44,3.22,3.22,3.22s3.22-1.44,3.22-3.22v-16.12c0-3.55,2.89-6.45,6.45-6.45s6.45,2.9,6.45,6.45v54.81Z"/></g></g><g id="WYBOR"><g><path class="cls-3" d="M31.84,28.17L26.44,5.41h5.51l1.72,9.39c.51,2.7,.98,5.64,1.35,7.94h.07c.37-2.47,.91-5.2,1.49-8.01l1.93-9.32h5.47l1.82,9.59c.51,2.67,.88,5.1,1.22,7.64h.07c.34-2.53,.84-5.2,1.32-7.91l1.86-9.32h5.24l-5.88,22.77h-5.57l-1.93-9.8c-.44-2.3-.81-4.43-1.08-7.03h-.07c-.41,2.57-.78,4.73-1.32,7.03l-2.16,9.8h-5.64Z"/><path class="cls-3" d="M63.42,28.17v-9.32l-7.2-13.45h5.88l2.33,5.47c.71,1.66,1.18,2.87,1.76,4.36h.07c.51-1.42,1.05-2.74,1.72-4.36l2.3-5.47h5.78l-7.5,13.28v9.49h-5.13Z"/><path class="cls-3" d="M77.91,5.71c1.35-.27,4.09-.47,6.66-.47,3.14,0,5.07,.3,6.72,1.28,1.59,.84,2.74,2.4,2.74,4.46s-1.18,3.92-3.75,4.86v.07c2.6,.71,4.53,2.67,4.53,5.61,0,2.06-.95,3.68-2.37,4.83-1.66,1.32-4.42,2.06-8.95,2.06-2.53,0-4.43-.17-5.57-.34V5.71Zm5.1,8.72h1.69c2.7,0,4.16-1.11,4.16-2.8s-1.32-2.63-3.65-2.63c-1.11,0-1.76,.07-2.2,.13v5.3Zm0,10.1c.51,.07,1.11,.07,1.99,.07,2.33,0,4.39-.88,4.39-3.28s-2.06-3.21-4.63-3.21h-1.76v6.42Z"/><path class="cls-3" d="M119.15,16.55c0,7.47-4.53,11.99-11.18,11.99s-10.71-5.1-10.71-11.59c0-6.82,4.36-11.93,11.08-11.93s10.81,5.24,10.81,11.52Zm-16.45,.3c0,4.46,2.09,7.6,5.54,7.6s5.47-3.31,5.47-7.74c0-4.09-1.96-7.6-5.51-7.6s-5.51,3.31-5.51,7.74ZM114.09,0l-4.12,4.16h-4.12l2.84-4.16h5.41Z"/><path class="cls-3" d="M122.53,5.71c1.66-.27,4.12-.47,6.86-.47,3.38,0,5.74,.51,7.36,1.79,1.35,1.08,2.09,2.67,2.09,4.76,0,2.91-2.06,4.9-4.02,5.61v.1c1.59,.64,2.47,2.16,3.04,4.26,.71,2.57,1.42,5.54,1.86,6.42h-5.27c-.37-.64-.91-2.5-1.59-5.3-.61-2.84-1.59-3.62-3.68-3.65h-1.55v8.95h-5.1V5.71Zm5.1,9.8h2.03c2.57,0,4.09-1.28,4.09-3.28,0-2.09-1.42-3.14-3.78-3.18-1.25,0-1.96,.1-2.33,.17v6.28Z"/><path class="cls-3" d="M168.63,19.46c-.1-2.74-.2-6.05-.2-9.36h-.1c-.71,2.91-1.66,6.15-2.53,8.82l-2.77,8.88h-4.02l-2.43-8.82c-.74-2.67-1.52-5.91-2.06-8.88h-.07c-.13,3.07-.24,6.59-.41,9.43l-.41,8.65h-4.76l1.45-22.77h6.86l2.23,7.6c.71,2.64,1.42,5.47,1.92,8.14h.1c.64-2.63,1.42-5.64,2.16-8.17l2.43-7.57h6.72l1.25,22.77h-5.03l-.34-8.72Z"/><path class="cls-3" d="M198.8,16.55c0,7.47-4.53,11.99-11.18,11.99s-10.71-5.1-10.71-11.59c0-6.82,4.36-11.93,11.08-11.93s10.81,5.24,10.81,11.52Zm-16.45,.3c0,4.46,2.09,7.6,5.54,7.6s5.47-3.31,5.47-7.74c0-4.09-1.96-7.6-5.51-7.6s-5.51,3.31-5.51,7.74Z"/><path class="cls-3" d="M202.17,5.71c1.89-.3,4.36-.47,6.96-.47,4.32,0,7.13,.78,9.32,2.43,2.37,1.76,3.85,4.56,3.85,8.58,0,4.36-1.59,7.37-3.78,9.22-2.4,1.99-6.05,2.94-10.51,2.94-2.67,0-4.56-.17-5.84-.34V5.71Zm5.17,18.58c.44,.1,1.15,.1,1.79,.1,4.66,.03,7.7-2.53,7.7-7.97,.03-4.73-2.74-7.23-7.16-7.23-1.15,0-1.89,.1-2.33,.2v14.9Z"/><path class="cls-3" d="M239.22,18.55h-8.38v5.41h9.36v4.22h-14.53V5.41h14.05v4.22h-8.88v4.73h8.38v4.19Z"/><path class="cls-3" d="M243.71,5.41h5.17V23.85h9.05v4.32h-14.22V5.41Z"/><path class="cls-3" d="M265.06,5.41v13.11c0,3.92,1.49,5.91,4.12,5.91s4.19-1.89,4.19-5.91V5.41h5.13v12.77c0,7.03-3.55,10.37-9.49,10.37s-9.12-3.18-9.12-10.44V5.41h5.17Z"/></g></g></svg>