<?xml version="1.0" encoding="UTF-8"?><svg id="Layer_2" xmlns="http://www.w3.org/2000/svg" viewBox="0 0 133.74 98.07"><defs><style>.cls-1{fill:#043a25;}</style></defs><g id="platnosc"><g><path class="cls-1" d="M132.6,46.06L92.48,1.48c-.86-.95-2.05-1.48-3.32-1.48h-26.75c-1.76,0-3.35,1.03-4.07,2.64-.71,1.61-.42,3.49,.76,4.8l37.44,41.6-37.44,41.59c-1.18,1.31-1.48,3.19-.76,4.8,.72,1.61,2.32,2.65,4.07,2.65h26.75c1.27,0,2.46-.54,3.32-1.47l40.12-44.58c1.52-1.69,1.52-4.28,0-5.96Z"/><path class="cls-1" d="M74.65,46.06L34.53,1.48c-.86-.95-2.05-1.48-3.32-1.48H4.46C2.71,0,1.11,1.03,.39,2.64-.32,4.25-.03,6.13,1.15,7.44L38.58,49.04,1.15,90.63c-1.18,1.31-1.48,3.19-.76,4.8,.72,1.61,2.32,2.65,4.07,2.65H31.21c1.27,0,2.46-.54,3.32-1.47l40.12-44.58c1.52-1.69,1.52-4.28,0-5.96Z"/></g></g></svg>