<?xml version="1.0" encoding="UTF-8"?><svg id="Layer_2" xmlns="http://www.w3.org/2000/svg" xmlns:xlink="http://www.w3.org/1999/xlink" viewBox="0 0 476.6 297.78"><defs><style>.cls-1{fill:url(#New_Gradient_Swatch_copy);}.cls-2{fill:#043a25;}.cls-3{fill:#fff;}.cls-4{fill:url(#New_Gradient_Swatch_copy-3);}.cls-5{fill:url(#New_Gradient_Swatch_copy-5);}.cls-6{fill:url(#New_Gradient_Swatch_copy-4);}.cls-7{fill:url(#New_Gradient_Swatch_copy-2);}</style><linearGradient id="New_Gradient_Swatch_copy" x1="16.7" y1="140.16" x2="222.98" y2="140.16" gradientUnits="userSpaceOnUse"><stop offset="0" stop-color="#f1e5b3"/><stop offset=".29" stop-color="#decb7c"/><stop offset="1" stop-color="#bba16b"/></linearGradient><linearGradient id="New_Gradient_Swatch_copy-2" x1="314.66" y1="117.1" x2="337.08" y2="117.1" xlink:href="#New_Gradient_Swatch_copy"/><linearGradient id="New_Gradient_Swatch_copy-3" x1="314.66" y1="161.56" x2="337.08" y2="161.56" xlink:href="#New_Gradient_Swatch_copy"/><linearGradient id="New_Gradient_Swatch_copy-4" x1="314.26" y1="205.31" x2="336.69" y2="205.31" xlink:href="#New_Gradient_Swatch_copy"/><linearGradient id="New_Gradient_Swatch_copy-5" x1="-1095.18" y1="699.01" x2="-1013.36" y2="699.01" gradientTransform="translate(1479.1 -529.5)" xlink:href="#New_Gradient_Swatch_copy"/></defs><g id="Layer_14"><g><path class="cls-1" d="M16.89,208.71c-4.4-13.25,69.92-40.51,69.92-40.51l22.09-.13s61.21-99.01,85.88-104.9c12.54-2.99,28.21,43.18,28.21,43.18,0,0-56.17,36.59-69.21,58.03-13.04,21.45-13.66,38.5-23.6,44.88-19.96,12.82-110.3,8.42-113.28-.57Z"/><path class="cls-2" d="M241.53,218.27c-2.11,0-3.81-1.71-3.81-3.82V58c0-2.11,1.71-3.82,3.82-3.82,2.11,0,3.82,1.71,3.82,3.82V214.45s0,0,0,0c0,2.11-1.71,3.81-3.82,3.81h0Z"/><path class="cls-2" d="M230.09,73.27c-1.01,0-1.98-.4-2.7-1.12-1.49-1.49-1.49-3.91,0-5.4l11.45-11.45c1.51-1.43,3.88-1.43,5.4,0l11.45,11.45c1.47,1.49,1.47,3.88,0,5.36-1.48,1.5-3.9,1.51-5.4,.03l-8.75-8.75-8.75,8.75c-.71,.72-1.69,1.12-2.7,1.12h0Z"/><path class="cls-2" d="M27.93,256.53c-1.01,0-1.98-.4-2.7-1.12l-11.54-11.54c-1.49-1.49-1.49-3.91,0-5.4,1.49-1.49,3.91-1.49,5.4,0l11.54,11.54c.72,.72,1.12,1.69,1.12,2.7,0,2.11-1.71,3.82-3.82,3.82h0Z"/><path class="cls-2" d="M12.58,241.18c0-2.11,1.71-3.82,3.82-3.82H214.82c2.11,0,3.82,1.71,3.82,3.82s-1.71,3.82-3.82,3.82H16.39c-2.11,0-3.82-1.71-3.82-3.82Z"/><path class="cls-2" d="M203.37,256.44c-1.01,0-1.98-.4-2.7-1.12-1.49-1.49-1.49-3.91,0-5.4l8.75-8.75-8.75-8.75c-1.49-1.49-1.49-3.91,0-5.4,1.49-1.49,3.91-1.49,5.4,0l11.45,11.45s0,0,0,0c1.49,1.49,1.49,3.91,0,5.39l-11.45,11.45c-.71,.72-1.69,1.12-2.7,1.12h0Z"/><path class="cls-2" d="M16.39,244.99c-1.01,0-1.98-.4-2.7-1.12-1.49-1.49-1.49-3.91,0-5.4l11.45-11.45c1.49-1.49,3.91-1.49,5.4,0s1.49,3.91,0,5.4l-11.45,11.45c-.71,.72-1.69,1.12-2.7,1.12h0Z"/><path class="cls-2" d="M241.54,218.26c-1.01,0-1.98-.4-2.7-1.11l-11.45-11.43c-1.48-1.49-1.49-3.9,0-5.39,1.49-1.5,3.9-1.5,5.4-.02l8.75,8.74,8.75-8.74s.02-.02,.03-.03c1.5-1.48,3.92-1.47,5.4,.03,1.48,1.5,1.47,3.92-.03,5.4l-11.45,11.43c-.71,.72-1.69,1.12-2.7,1.12h0Z"/><path class="cls-2" d="M96.06,168.67h-11.07c-2.11,0-3.82-1.71-3.82-3.82s1.71-3.82,3.82-3.82h8.45c4.48,.28,8.98,.17,13.44-.32,4.66-2,8.33-5.78,10.18-10.49,.06-.12,.13-.23,.19-.34l13.81-21.85c9.45-14.89,20.21-28.91,32.15-41.9l28.35-30.72c1.33-1.44,3.52-1.64,5.09-.47,3.46,2.59,6.69,5.47,9.66,8.6,4.16,4.44,7.78,9.37,10.78,14.66,5.23,9.79,8.38,20.56,9.27,31.62,.17,2.09-1.38,3.93-3.47,4.11-2.1,.18-3.95-1.37-4.13-3.47-.79-9.98-3.62-19.69-8.32-28.53-4.02-7.16-9.33-13.53-15.66-18.77l-25.95,28.12c-11.63,12.64-22.11,26.3-31.31,40.81l-13.71,21.68c-3.92,7.84-8.94,12.65-14.91,14.28-4.24,.77-8.55,.97-12.84,.59h0Z"/><path class="cls-2" d="M24.14,218.27c-6.46-.03-11.68-5.28-11.65-11.74,0-4.28,2.44-8.19,6.28-10.08l64.4-34.95h0c1.85-1,4.17-.32,5.17,1.54s.32,4.17-1.54,5.17L22.28,203.22c-1.38,.67-2.22,2.09-2.16,3.62,.11,2.2,1.97,3.89,4.17,3.8H108.22c10.65,.11,20.46-5.79,25.36-15.25l5.87-11.77c7.34-14.79,16.99-28.31,28.6-40.05,2.71-2.7,5.68-5.14,8.87-7.26l3.69-2.5c1.74-1.17,4.09-.72,5.28,1.01,1.19,1.74,.75,4.11-.99,5.3l-3.69,2.5c-2.77,1.84-5.36,3.96-7.72,6.31-11.04,11.16-20.22,24.02-27.2,38.08l-5.87,11.77c-6.19,12.05-18.64,19.59-32.19,19.49H24.29c-.05,0-.1,0-.15,0Z"/><path class="cls-2" d="M203.28,218.28c-2.02,0-3.69-1.58-3.8-3.6-.64-11.05-1.29-22.11-1.95-33.18l-.3-5.01c-.87-14.15-6.2-27.66-15.23-38.58-1.35-1.62-1.12-4.03,.5-5.37,1.62-1.35,4.03-1.12,5.37,.5,10.07,12.17,16.01,27.23,16.98,43l.3,5c.67,11.06,1.32,22.12,1.95,33.2,0,0,0,0,0,0,.12,2.1-1.49,3.9-3.59,4.02-.07,0-.15,0-.22,0h0Z"/><path class="cls-2" d="M203.3,218.29c-2.11,0-3.82-1.7-3.82-3.81s1.7-3.82,3.81-3.82h4.21s10.34-92.74,10.34-92.74l-32.97,22.2h0c-1.74,1.19-4.12,.73-5.3-1.01s-.73-4.12,1.01-5.3l39.84-26.81c.75-.5,1.66-.73,2.56-.63,2.09,.24,3.6,2.12,3.37,4.22l-11.64,104.3c-.22,1.93-1.85,3.39-3.79,3.39h-7.62s0,0,0,0h0Z"/></g><g><path class="cls-2" d="M416.95,245.08h-119.31c-6.59,0-11.93-5.34-11.93-11.93V82.02c0-1.05,.42-2.07,1.17-2.81l23.86-23.86c.75-.75,1.76-1.17,2.81-1.17h103.4c6.59,0,11.93,5.34,11.93,11.93v67.61h-7.95V66.11c0-2.2-1.78-3.98-3.98-3.98h-101.76l-21.53,21.53V233.15c0,2.2,1.78,3.98,3.98,3.98h119.31c2.2,0,3.98-1.78,3.98-3.98v-27.84h7.95v27.84c0,6.59-5.34,11.93-11.93,11.93Z"/><path class="cls-2" d="M313.54,86h-23.86v-7.95h19.88v-15.91h7.95v19.89c0,2.2-1.78,3.98-3.98,3.98Z"/><rect class="cls-7" x="314.66" y="105.88" width="22.42" height="22.42"/><rect class="cls-4" x="314.66" y="150.35" width="22.42" height="22.42"/><rect class="cls-6" x="314.26" y="194.1" width="22.42" height="22.42"/><rect class="cls-5" x="383.92" y="159.9" width="81.82" height="19.22" transform="translate(4.56 350.05) rotate(-45)"/><path class="cls-2" d="M337.41,133.72h-23.86c-2.2,0-3.98-1.78-3.98-3.98v-23.86c0-2.2,1.78-3.98,3.98-3.98h23.86c2.2,0,3.98,1.78,3.98,3.98v23.86c0,2.2-1.78,3.98-3.98,3.98Zm-19.89-7.95h15.91v-15.91h-15.91v15.91Z"/><path class="cls-2" d="M337.41,177.47h-23.86c-2.2,0-3.98-1.78-3.98-3.98v-23.86c0-2.2,1.78-3.98,3.98-3.98h23.86c2.2,0,3.98,1.78,3.98,3.98v23.86c0,2.2-1.78,3.98-3.98,3.98Zm-19.89-7.96h15.91v-15.91h-15.91v15.91Z"/><path class="cls-2" d="M337.41,221.22h-23.86c-2.2,0-3.98-1.78-3.98-3.98v-23.86c0-2.2,1.78-3.98,3.98-3.98h23.86c2.2,0,3.98,1.78,3.98,3.98v23.86c0,2.2-1.78,3.98-3.98,3.98Zm-19.89-7.95h15.91v-15.91h-15.91v15.91Z"/><path class="cls-2" d="M353.31,105.88h51.7v7.95h-51.7v-7.95Z"/><path class="cls-2" d="M353.31,121.79h51.7v7.96h-51.7v-7.96Z"/><path class="cls-2" d="M353.31,149.63h51.7v7.95h-51.7v-7.95Z"/><path class="cls-2" d="M353.31,165.54h35.79v7.95h-35.79v-7.95Z"/><path class="cls-2" d="M353.31,193.38h15.91v7.96h-15.91v-7.96Z"/><path class="cls-2" d="M353.31,209.29h15.91v7.95h-15.91v-7.95Z"/><path class="cls-2" d="M403.03,212.6c-1.05,0-2.07-.42-2.81-1.17l-17.23-17.23c-1.55-1.55-1.55-4.07,0-5.62l66.04-66.02c6.31-6.31,16.54-6.31,22.85,0,6.3,6.32,6.3,16.54,0,22.85l-66.04,66.02c-.75,.75-1.76,1.17-2.81,1.17Zm-11.61-21.21l11.61,11.61,63.23-63.24c3.2-3.21,3.2-8.4,0-11.6-3.25-3.09-8.35-3.09-11.6,0l-63.25,63.23Z"/><path class="cls-2" d="M377.18,221.22c-1.28,0-2.48-.62-3.22-1.65-.75-1.04-.95-2.37-.55-3.58l8.61-25.85,7.56,2.52-6.1,18.29,18.3-6.1,2.51,7.56-25.85,8.61c-.41,.13-.83,.2-1.26,.2Z"/><path class="cls-2" d="M443.27,133.92l5.62-5.62,17.23,17.23-5.62,5.62-17.23-17.23Z"/><path class="cls-2" d="M400.21,188.59l51.68-51.68,5.62,5.62-51.68,51.68-5.62-5.62Z"/></g></g><g id="TEST"><g><circle class="cls-2" cx="67.19" cy="67.19" r="67.19"/><g><path class="cls-3" d="M38.61,39.13v4.48l-12.51,25.86h-7.51l12.51-24.41v-.09h-13.91v-5.83h21.42Z"/><path class="cls-3" d="M75.21,36.33v26.33c0,2.57,.09,5.27,.19,6.81h-6.3l-.33-3.36h-.09c-1.45,2.57-4.2,3.87-7.14,3.87-5.41,0-9.76-4.62-9.76-11.72-.05-7.7,4.76-12.14,10.22-12.14,2.8,0,4.99,.98,6.02,2.57h.09v-12.37h7.09Zm-7.09,19.98c0-.37-.05-.89-.09-1.26-.42-1.91-1.96-3.5-4.15-3.5-3.22,0-4.9,2.89-4.9,6.49,0,3.87,1.91,6.3,4.85,6.3,2.05,0,3.69-1.4,4.11-3.41,.14-.51,.19-1.03,.19-1.63v-2.99Z"/><path class="cls-3" d="M80.9,53.93c0-2.85-.09-5.27-.19-7.28h6.16l.33,3.13h.14c.93-1.45,3.27-3.64,7.05-3.64,4.67,0,8.17,3.08,8.17,9.8v13.54h-7.09v-12.65c0-2.94-1.03-4.95-3.59-4.95-1.96,0-3.13,1.35-3.59,2.66-.19,.42-.28,1.12-.28,1.77v13.16h-7.09v-15.54Z"/><path class="cls-3" d="M115.59,40.3c0,1.96-1.49,3.55-3.83,3.55s-3.73-1.59-3.69-3.55c-.05-2.05,1.45-3.59,3.73-3.59s3.73,1.54,3.78,3.59Zm-7.33,29.17v-22.82h7.09v22.82h-7.09Z"/></g><g><path class="cls-3" d="M16.86,82.84c0-1.33-.02-2.48-.09-3.53h1.8l.07,2.22h.09c.51-1.52,1.75-2.48,3.13-2.48,.23,0,.4,.02,.58,.07v1.94c-.21-.05-.42-.07-.7-.07-1.45,0-2.48,1.1-2.76,2.64-.05,.28-.09,.61-.09,.96v6.03h-2.03v-7.78Z"/><path class="cls-3" d="M34.49,84.87c0,4.18-2.9,6-5.63,6-3.06,0-5.42-2.24-5.42-5.82,0-3.78,2.48-6,5.61-6s5.44,2.36,5.44,5.82Zm-8.97,.12c0,2.48,1.42,4.34,3.43,4.34s3.43-1.84,3.43-4.39c0-1.92-.96-4.34-3.39-4.34s-3.48,2.24-3.48,4.39Z"/><path class="cls-3" d="M36.99,90.61c.05-.77,.09-1.92,.09-2.92v-13.66h2.03v7.1h.05c.72-1.26,2.03-2.08,3.85-2.08,2.8,0,4.79,2.34,4.76,5.77,0,4.04-2.55,6.05-5.07,6.05-1.63,0-2.94-.63-3.78-2.12h-.07l-.09,1.87h-1.78Zm2.13-4.53c0,.26,.05,.51,.09,.75,.4,1.42,1.59,2.41,3.08,2.41,2.15,0,3.43-1.75,3.43-4.34,0-2.27-1.17-4.2-3.36-4.2-1.4,0-2.71,.96-3.13,2.52-.05,.23-.12,.51-.12,.84v2.03Z"/><path class="cls-3" d="M60.6,84.87c0,4.18-2.9,6-5.63,6-3.06,0-5.42-2.24-5.42-5.82,0-3.78,2.48-6,5.61-6s5.44,2.36,5.44,5.82Zm-8.97,.12c0,2.48,1.42,4.34,3.43,4.34s3.43-1.84,3.43-4.39c0-1.92-.96-4.34-3.39-4.34s-3.48,2.24-3.48,4.39Z"/><path class="cls-3" d="M71.25,90.19c-.54,.28-1.73,.65-3.25,.65-3.41,0-5.63-2.31-5.63-5.77s2.38-6,6.07-6c1.21,0,2.29,.3,2.85,.58l-.47,1.59c-.49-.28-1.26-.54-2.38-.54-2.59,0-3.99,1.92-3.99,4.27,0,2.62,1.68,4.23,3.92,4.23,1.17,0,1.94-.3,2.52-.56l.35,1.54Z"/><path class="cls-3" d="M72.37,89.42l5.12-6.66c.49-.61,.96-1.14,1.47-1.75v-.05h-6.12v-1.66h8.62l-.02,1.29-5.04,6.56c-.47,.63-.93,1.19-1.45,1.78v.05h6.61v1.63h-9.18v-1.19Z"/><path class="cls-3" d="M84.96,79.31l2.48,6.68c.26,.75,.54,1.63,.72,2.31h.05c.21-.68,.44-1.54,.72-2.36l2.24-6.63h2.17l-3.08,8.06c-1.47,3.88-2.48,5.86-3.88,7.08-1,.89-2.01,1.24-2.52,1.33l-.51-1.73c.51-.16,1.19-.49,1.8-1,.56-.44,1.26-1.24,1.73-2.29,.09-.21,.16-.37,.16-.49s-.05-.28-.14-.54l-4.18-10.42h2.24Z"/><path class="cls-3" d="M103.03,90.19c-.54,.28-1.73,.65-3.25,.65-3.41,0-5.63-2.31-5.63-5.77s2.38-6,6.07-6c1.21,0,2.29,.3,2.85,.58l-.47,1.59c-.49-.28-1.26-.54-2.38-.54-2.59,0-3.99,1.92-3.99,4.27,0,2.62,1.68,4.23,3.92,4.23,1.17,0,1.94-.3,2.52-.56l.35,1.54Z"/><path class="cls-3" d="M105.44,74.03h2.06v7.05h.05c.33-.58,.84-1.1,1.47-1.45,.61-.35,1.33-.58,2.1-.58,1.52,0,3.95,.93,3.95,4.84v6.73h-2.05v-6.49c0-1.82-.68-3.36-2.62-3.36-1.33,0-2.38,.93-2.76,2.05-.12,.28-.14,.58-.14,.98v6.82h-2.06v-16.58Z"/></g></g></g><g id="WYBOR"><g><path class="cls-2" d="M5.65,274.64h13.92v4.22H10.82v5.2h8.18v4.19H10.82v9.16H5.65v-22.77Z"/><path class="cls-2" d="M44.3,285.78c0,7.47-4.53,11.99-11.18,11.99s-10.71-5.1-10.71-11.59c0-6.82,4.36-11.93,11.08-11.93s10.81,5.24,10.81,11.52Zm-16.45,.3c0,4.46,2.09,7.6,5.54,7.6s5.47-3.31,5.47-7.74c0-4.09-1.96-7.6-5.51-7.6s-5.51,3.31-5.51,7.74Z"/><path class="cls-2" d="M47.67,274.94c1.66-.27,4.12-.47,6.86-.47,3.38,0,5.74,.51,7.36,1.79,1.35,1.08,2.09,2.67,2.09,4.76,0,2.91-2.06,4.9-4.02,5.61v.1c1.59,.64,2.47,2.16,3.04,4.26,.71,2.57,1.42,5.54,1.86,6.42h-5.27c-.37-.64-.91-2.5-1.59-5.3-.61-2.84-1.59-3.62-3.68-3.65h-1.55v8.95h-5.1v-22.47Zm5.1,9.8h2.03c2.57,0,4.09-1.28,4.09-3.28,0-2.09-1.42-3.14-3.78-3.18-1.25,0-1.96,.1-2.33,.17v6.28Z"/><path class="cls-2" d="M86.95,288.69c-.1-2.74-.2-6.05-.2-9.36h-.1c-.71,2.91-1.66,6.15-2.53,8.82l-2.77,8.88h-4.02l-2.43-8.82c-.74-2.67-1.52-5.91-2.06-8.88h-.07c-.13,3.07-.24,6.59-.41,9.43l-.41,8.65h-4.76l1.45-22.77h6.86l2.23,7.6c.71,2.64,1.42,5.47,1.92,8.14h.1c.64-2.63,1.42-5.64,2.16-8.17l2.43-7.57h6.72l1.25,22.77h-5.03l-.34-8.72Z"/><path class="cls-2" d="M101.41,274.64v13.11c0,3.92,1.49,5.91,4.12,5.91s4.19-1.89,4.19-5.91v-13.11h5.14v12.77c0,7.03-3.55,10.37-9.49,10.37s-9.12-3.18-9.12-10.44v-12.7h5.17Z"/><path class="cls-2" d="M119.31,274.64h5.17v18.45h9.05v4.32h-14.22v-22.77Z"/><path class="cls-2" d="M142.07,291.56l-1.62,5.84h-5.34l6.96-22.77h6.76l7.06,22.77h-5.54l-1.76-5.84h-6.52Zm5.78-3.85l-1.42-4.83c-.41-1.35-.81-3.04-1.15-4.39h-.07c-.34,1.35-.68,3.07-1.05,4.39l-1.35,4.83h5.03Z"/><path class="cls-2" d="M158.92,274.94c1.66-.27,4.12-.47,6.86-.47,3.38,0,5.74,.51,7.36,1.79,1.35,1.08,2.09,2.67,2.09,4.76,0,2.91-2.06,4.9-4.02,5.61v.1c1.59,.64,2.47,2.16,3.04,4.26,.71,2.57,1.42,5.54,1.86,6.42h-5.27c-.37-.64-.91-2.5-1.59-5.3-.61-2.84-1.59-3.62-3.68-3.65h-1.55v8.95h-5.1v-22.47Zm5.1,9.8h2.03c2.57,0,4.09-1.28,4.09-3.28,0-2.09-1.42-3.14-3.78-3.18-1.25,0-1.96,.1-2.33,.17v6.28Z"/><path class="cls-2" d="M177.5,294.63l10.84-15.61v-.13h-9.83v-4.26h16.52v2.97l-10.61,15.41v.13h10.78v4.26h-17.7v-2.77Z"/><path class="cls-2" d="M205.26,274.94c1.35-.27,4.09-.47,6.66-.47,3.14,0,5.07,.3,6.72,1.28,1.59,.84,2.74,2.4,2.74,4.46s-1.18,3.92-3.75,4.86v.07c2.6,.71,4.53,2.67,4.53,5.61,0,2.06-.95,3.68-2.36,4.83-1.66,1.32-4.43,2.06-8.95,2.06-2.53,0-4.43-.17-5.57-.34v-22.36Zm5.1,8.72h1.69c2.7,0,4.16-1.11,4.16-2.8s-1.32-2.63-3.65-2.63c-1.11,0-1.76,.07-2.2,.13v5.3Zm0,10.1c.51,.07,1.11,.07,1.99,.07,2.33,0,4.39-.88,4.39-3.28s-2.06-3.21-4.63-3.21h-1.76v6.42Z"/><path class="cls-2" d="M230.8,274.64v13.11c0,3.92,1.49,5.91,4.12,5.91s4.19-1.89,4.19-5.91v-13.11h5.14v12.77c0,7.03-3.55,10.37-9.49,10.37s-9.12-3.18-9.12-10.44v-12.7h5.17Z"/><path class="cls-2" d="M253.09,278.96h-6.11v-4.32h17.5v4.32h-6.22v18.45h-5.17v-18.45Z"/><path class="cls-2" d="M270.08,291.56l-1.62,5.84h-5.34l6.96-22.77h6.76l7.06,22.77h-5.54l-1.76-5.84h-6.52Zm5.78-3.85l-1.42-4.83c-.41-1.35-.81-3.04-1.15-4.39h-.07c-.34,1.35-.68,3.07-1.05,4.39l-1.35,4.83h5.03Z"/><path class="cls-2" d="M293.76,274.94c1.89-.3,4.36-.47,6.96-.47,4.32,0,7.13,.78,9.32,2.43,2.37,1.76,3.85,4.56,3.85,8.58,0,4.36-1.59,7.37-3.78,9.22-2.4,1.99-6.05,2.94-10.51,2.94-2.67,0-4.56-.17-5.84-.34v-22.36Zm5.17,18.58c.44,.1,1.15,.1,1.79,.1,4.66,.03,7.7-2.53,7.7-7.97,.03-4.73-2.74-7.23-7.16-7.23-1.15,0-1.89,.1-2.33,.2v14.9Z"/><path class="cls-2" d="M338.11,285.78c0,7.47-4.53,11.99-11.18,11.99s-10.71-5.1-10.71-11.59c0-6.82,4.36-11.93,11.08-11.93s10.81,5.24,10.81,11.52Zm-16.45,.3c0,4.46,2.09,7.6,5.54,7.6s5.47-3.31,5.47-7.74c0-4.09-1.96-7.6-5.51-7.6s-5.51,3.31-5.51,7.74Z"/><path class="cls-2" d="M367.56,288.69c-.1-2.74-.2-6.05-.2-9.36h-.1c-.71,2.91-1.66,6.15-2.53,8.82l-2.77,8.88h-4.02l-2.43-8.82c-.74-2.67-1.52-5.91-2.06-8.88h-.07c-.13,3.07-.24,6.59-.41,9.43l-.41,8.65h-4.76l1.45-22.77h6.86l2.23,7.6c.71,2.64,1.42,5.47,1.92,8.14h.1c.64-2.63,1.42-5.64,2.16-8.17l2.43-7.57h6.72l1.25,22.77h-5.03l-.34-8.72Z"/><path class="cls-2" d="M382.05,274.64v22.77h-5.17v-22.77h5.17Z"/><path class="cls-2" d="M391.81,291.56l-1.62,5.84h-5.34l6.96-22.77h6.76l7.06,22.77h-5.54l-1.76-5.84h-6.52Zm5.78-3.85l-1.42-4.83c-.41-1.35-.81-3.04-1.15-4.39h-.07c-.34,1.35-.68,3.07-1.05,4.39l-1.35,4.83h5.03Z"/><path class="cls-2" d="M408.66,274.94c1.66-.27,4.12-.47,6.86-.47,3.38,0,5.74,.51,7.36,1.79,1.35,1.08,2.09,2.67,2.09,4.76,0,2.91-2.06,4.9-4.02,5.61v.1c1.59,.64,2.47,2.16,3.04,4.26,.71,2.57,1.42,5.54,1.86,6.42h-5.27c-.37-.64-.91-2.5-1.59-5.3-.61-2.84-1.59-3.62-3.68-3.65h-1.55v8.95h-5.1v-22.47Zm5.1,9.8h2.03c2.57,0,4.09-1.28,4.09-3.28,0-2.09-1.42-3.14-3.78-3.18-1.25,0-1.96,.1-2.33,.17v6.28Z"/><path class="cls-2" d="M433.32,297.4v-9.32l-7.2-13.45h5.88l2.33,5.47c.71,1.66,1.18,2.87,1.76,4.36h.07c.51-1.42,1.05-2.74,1.72-4.36l2.3-5.47h5.78l-7.5,13.28v9.49h-5.13Z"/></g></g></svg>