<?xml version="1.0" encoding="UTF-8"?><svg id="Layer_2" xmlns="http://www.w3.org/2000/svg" xmlns:xlink="http://www.w3.org/1999/xlink" viewBox="0 0 244.44 301.91"><defs><style>.cls-1{fill:none;}.cls-2{fill:url(#New_Gradient_Swatch_copy);}.cls-3{fill:#043a25;}.cls-4{fill:url(#New_Gradient_Swatch_copy-3);}.cls-5{fill:url(#New_Gradient_Swatch_copy-4);}.cls-6{fill:url(#New_Gradient_Swatch_copy-2);}</style><linearGradient id="New_Gradient_Swatch_copy" x1="115.06" y1="126.81" x2="212.91" y2="126.81" gradientUnits="userSpaceOnUse"><stop offset="0" stop-color="#f1e5b3"/><stop offset=".29" stop-color="#decb7c"/><stop offset="1" stop-color="#bba16b"/></linearGradient><linearGradient id="New_Gradient_Swatch_copy-2" x1="59.38" y1="82.41" x2="80.67" y2="82.41" xlink:href="#New_Gradient_Swatch_copy"/><linearGradient id="New_Gradient_Swatch_copy-3" x1="60.08" y1="127.17" x2="81.37" y2="127.17" xlink:href="#New_Gradient_Swatch_copy"/><linearGradient id="New_Gradient_Swatch_copy-4" x1="60.08" y1="169.7" x2="81.37" y2="169.7" xlink:href="#New_Gradient_Swatch_copy"/></defs><g id="Layer_14"><g><path class="cls-1" d="M154.42,51.54h24.37l-27.43-27.42v24.37c0,1.68,1.37,3.05,3.06,3.05Z"/><path class="cls-1" d="M6.4,35.67l29.92,146.39V47.59s0,0,0,0V24.01l-25.69,5.25c-2.93,.6-4.83,3.47-4.23,6.41Z"/><path class="cls-1" d="M64.04,76.02h13.37c.4,0,.72,.32,.72,.72v13.36c0,.4-.32,.72-.72,.72h-13.37c-.4,0-.72-.32-.72-.72v-13.36c0-.4,.32-.72,.72-.72Z"/><path class="cls-1" d="M164.48,72.95s.06,0,.09,.01c6.29,.07,12.58,1.23,18.54,3.49v-18.8h-28.69c-5.05,0-9.17-4.11-9.17-9.16V19.8h-6.63l10.86,53.15h14.99Z"/><path class="cls-1" d="M125.31,5.94c-.36,0-.72,.04-1.09,.11l-37.37,7.64h44.47l-.7-3.41c-.52-2.57-2.79-4.34-5.32-4.34Z"/><path class="cls-1" d="M163.12,137.72l15.98-16.38c1.29-1.33,1.27-3.46-.06-4.76-1.33-1.29-3.46-1.27-4.76,.06l-11.5,11.79c-.49,.5-1.12,.79-1.76,.88l1.78,8.69c.11-.09,.23-.18,.33-.28Z"/><path class="cls-1" d="M135.87,154.8c-1.31-1.31-2.54-2.73-3.66-4.2-1.02-1.35-.75-3.26,.6-4.28,1.35-1.02,3.26-.75,4.28,.6h0c.94,1.25,1.99,2.45,3.1,3.56,5.71,5.71,13.11,9.11,21.08,9.74l-3.22-15.76c-1.47-.43-2.82-1.21-3.94-2.3l-8.42-8.19c-3.75-3.64-3.83-9.65-.19-13.4,1.93-1.98,4.52-2.93,7.09-2.85l-4.26-20.83c-2.93,1.54-5.67,3.53-8.13,5.99-8.95,8.95-12.11,22-8.26,34.06,.51,1.61-.37,3.33-1.98,3.84-1.61,.51-3.33-.37-3.84-1.98-4.55-14.25-.81-29.67,9.76-40.24,3.34-3.34,7.14-5.96,11.19-7.86l-1.61-7.9c-5.51,2.32-10.67,5.71-15.15,10.19-9,9-13.96,20.96-13.96,33.69s4.96,24.69,13.96,33.69c9.23,9.23,21.33,13.87,33.45,13.93h.24s.03,0,.05,0c.04,0,.07,0,.11,0l-1.61-7.89c-10.07-.36-19.5-4.45-26.66-11.61Z"/><path class="cls-1" d="M149.87,124.83c-1.29,1.33-1.26,3.46,.07,4.76l6.33,6.15-2.35-11.49c-1.3-.72-2.96-.53-4.05,.58Z"/><path class="cls-1" d="M160.53,121.98l9.37-9.61c3.65-3.74,9.66-3.81,13.4-.17,3.74,3.65,3.82,9.66,.17,13.4l-15.98,16.38c-.98,1.01-2.16,1.76-3.43,2.24l3.26,15.95c7.73-.75,14.91-4.13,20.47-9.7,6.36-6.36,9.86-14.81,9.86-23.8s-3.5-17.44-9.86-23.8c-9.15-9.15-22.3-11.91-33.88-8.3l5.35,26.16,1.27,1.23Z"/><rect class="cls-1" x="63.32" y="118.85" width="14.81" height="14.81" rx=".72" ry=".72"/><path class="cls-1" d="M44.1,212.19c1.21,.8,2.66,1.08,4.08,.79l113.59-23.21c1.42-.29,2.64-1.12,3.44-2.33,.8-1.21,1.08-2.66,.79-4.08l-.61-2.97c-.47,.01-.93,.03-1.4,.03H96.27c-1.69,0-3.06-1.37-3.06-3.05s1.37-3.05,3.06-3.05h42.77c-4.35-2.28-8.45-5.19-12.17-8.74h-30.6c-1.69,0-3.06-1.37-3.06-3.05s1.37-3.05,3.06-3.05h25.1c-5.17-6.69-8.65-14.44-10.2-22.71h-14.89c-1.69,0-3.06-1.37-3.06-3.05s1.37-3.05,3.06-3.05h14.1c-.09-1.31-.14-2.63-.14-3.96,0-1.62,.07-3.22,.22-4.82h-14.17c-1.69,0-3.06-1.37-3.06-3.05s1.37-3.05,3.06-3.05h15.06c1.63-7.94,5.04-15.38,10.03-21.84h-25.09c-1.69,0-3.06-1.37-3.06-3.05s1.37-3.05,3.06-3.05h30.59c3.72-3.55,7.83-6.47,12.19-8.75h-42.77c-1.69,0-3.06-1.37-3.06-3.05s1.37-3.05,3.06-3.05h47.16l-10.86-53.15H56.95l-14.52,2.97s0,.06,0,.09v25.68s0,0,0,0V210.43c.41,.7,.98,1.3,1.67,1.76Zm13.11-135.45c0-3.77,3.07-6.83,6.83-6.83h13.37c3.77,0,6.83,3.06,6.83,6.83v13.36c0,3.77-3.07,6.83-6.83,6.83h-13.37c-3.77,0-6.83-3.06-6.83-6.83v-13.36Zm0,42.83c0-3.77,3.07-6.83,6.83-6.83h13.37c3.77,0,6.83,3.06,6.83,6.83v13.36c0,3.77-3.07,6.83-6.83,6.83h-13.37c-3.77,0-6.83-3.06-6.83-6.83v-13.36Zm0,43.7c0-3.77,3.07-6.83,6.83-6.83h13.37c3.77,0,6.83,3.07,6.83,6.83v13.36c0,3.77-3.07,6.83-6.83,6.83h-13.37c-3.77,0-6.83-3.06-6.83-6.83v-13.36Z"/><path class="cls-1" d="M205.45,160.91c-1.08,1.31-2.23,2.58-3.44,3.79-1.22,1.22-2.49,2.36-3.79,3.44l6.75,6.75,7.23-7.23-6.75-6.75Z"/><path class="cls-1" d="M171.81,182.17c.61,2.97,.02,6.01-1.65,8.54-1.67,2.53-4.23,4.26-7.21,4.87l-98.45,20.12h115.56c1.68,0,3.06-1.37,3.06-3.05v-35.73c-3.82,1.45-7.76,2.44-11.76,2.99l.46,2.26Z"/><path class="cls-1" d="M218.8,169.7l-11.79,11.79,17.11,17.11c3.1,3.23,8.69,3.23,11.79,0,3.23-3.1,3.23-8.68,0-11.79l-17.11-17.11Z"/><path class="cls-1" d="M64.04,162.55h13.37c.4,0,.72,.32,.72,.72v13.36c0,.4-.32,.72-.72,.72h-13.37c-.4,0-.72-.32-.72-.72v-13.36c0-.4,.32-.72,.72-.72Z"/><path class="cls-3" d="M124.22,6.05c.37-.07,.73-.11,1.09-.11,2.52,0,4.79,1.78,5.32,4.34l.7,3.41h6.06l-.94-4.59c-1.25-6.14-7.27-10.12-13.41-8.86L57.19,13.69h29.65l37.37-7.64Z"/><path class="cls-3" d="M6.4,35.67c-.6-2.93,1.3-5.81,4.23-6.41l25.69-5.25v-1.16c0-1.95,.61-3.75,1.65-5.24l-28.53,5.83C3.3,24.7-.67,30.72,.58,36.86L35.95,209.94c.09,.45,.22,.89,.36,1.32v-29.2L6.4,35.67Z"/><circle class="cls-2" cx="163.98" cy="126.81" r="48.93"/><path class="cls-3" d="M164.06,144.22c1.28-.48,2.45-1.23,3.43-2.24l15.98-16.38c3.65-3.74,3.57-9.75-.17-13.4-3.74-3.65-9.75-3.57-13.4,.17l-9.37,9.61-1.27-1.23-.37-.36c-1.76-1.71-4.02-2.59-6.31-2.66-2.57-.08-5.16,.87-7.09,2.85-3.64,3.74-3.56,9.75,.19,13.4l8.42,8.19c1.12,1.09,2.48,1.87,3.94,2.3,.85,.25,1.75,.38,2.66,.38,1.17,0,2.29-.22,3.35-.62Zm-7.79-8.48l-6.33-6.15c-1.33-1.29-1.36-3.43-.07-4.76,1.08-1.11,2.75-1.3,4.05-.58,.25,.14,.5,.3,.71,.51l3.83,3.72c.7,.68,1.65,.95,2.55,.82,.65-.09,1.27-.38,1.76-.88l11.5-11.79c1.3-1.33,3.43-1.35,4.76-.06,1.33,1.3,1.35,3.43,.06,4.76l-15.98,16.38c-.1,.11-.22,.19-.33,.28-1.27,1.02-3.26,.96-4.42-.22l-2.1-2.04Z"/><path class="cls-3" d="M135.87,98.57c-10.57,10.57-14.31,25.99-9.76,40.24,.51,1.61,2.23,2.49,3.84,1.98,1.61-.51,2.49-2.23,1.98-3.84-3.85-12.06-.69-25.12,8.26-34.06,2.46-2.46,5.21-4.46,8.13-5.99,1.8-.95,3.68-1.71,5.59-2.31,11.57-3.61,24.73-.85,33.88,8.3,6.36,6.36,9.86,14.81,9.86,23.8s-3.5,17.44-9.86,23.8c-5.57,5.57-12.74,8.94-20.47,9.7-1.1,.11-2.21,.16-3.33,.16-.92,0-1.82-.05-2.73-.12-7.96-.63-15.37-4.03-21.08-9.74-1.11-1.12-2.16-2.31-3.1-3.56h0c-1.02-1.35-2.93-1.61-4.28-.6-1.35,1.02-1.61,2.93-.6,4.28,1.11,1.47,2.34,2.89,3.66,4.2,7.17,7.17,16.59,11.25,26.66,11.61,.49,.02,.97,.04,1.46,.04,1.53,0,3.05-.1,4.55-.27,8.9-1.01,17.14-4.95,23.57-11.38,7.51-7.51,11.65-17.5,11.65-28.12s-4.14-20.61-11.65-28.12c-10.66-10.65-25.9-13.99-39.43-10-1.92,.56-3.8,1.28-5.62,2.14-4.05,1.9-7.85,4.52-11.19,7.86Z"/><path class="cls-3" d="M240.24,182.49h0l-19.27-19.27c-1.19-1.19-3.13-1.19-4.32,0l-.12,.12-7.42-7.42c4.99-7.69,7.96-16.57,8.54-25.84,.11-1.68-1.17-3.13-2.86-3.24-1.68-.1-3.13,1.17-3.24,2.86-.73,11.57-5.65,22.47-13.86,30.67-7.73,7.73-17.48,12.23-27.56,13.53-1.98,.26-3.98,.4-5.98,.4-.04,0-.07,0-.11,0-.02,0-.03,0-.05,0h-.24c-12.12-.06-24.22-4.7-33.45-13.93-9-9-13.96-20.96-13.96-33.69s4.96-24.69,13.96-33.69c4.48-4.48,9.64-7.87,15.15-10.19,1.85-.78,3.74-1.44,5.66-1.97,16.04-4.48,33.99-.43,46.58,12.16,6.92,6.92,11.49,15.65,13.21,25.24,.3,1.66,1.89,2.76,3.55,2.47,1.66-.3,2.77-1.89,2.47-3.55-1.94-10.83-7.09-20.68-14.9-28.48-3.87-3.87-8.19-7.02-12.78-9.46v-24.62c0-.8-.33-1.59-.89-2.16L150.47,14.58c-.57-.57-1.36-.89-2.16-.89H45.48c-3.11,0-5.85,1.56-7.51,3.93-1.04,1.49-1.65,3.29-1.65,5.24v24.73s0,0,0,0V212.65c0,5.05,4.11,9.16,9.17,9.16H180.06c5.05,0,9.17-4.11,9.17-9.16v-38.49c1.36-.72,2.7-1.51,4.01-2.36l7.42,7.41c-1.28,1.12-1.35,3.26-.12,4.44l19.27,19.27c5.38,5.6,15.05,5.6,20.43,0,5.6-5.38,5.6-15.05,0-20.43ZM151.37,24.12l27.43,27.42h-24.37c-1.68,0-3.06-1.37-3.06-3.05V24.12Zm31.75,188.53c0,1.68-1.37,3.05-3.06,3.05H45.48c-1.68,0-3.06-1.37-3.06-3.05V48.53s0,0,0,0V22.85s0-.06,0-.09c.05-1.64,1.39-2.97,3.05-2.97h99.78v28.69c0,5.05,4.11,9.16,9.17,9.16h28.69v18.8c-5.96-2.26-12.25-3.42-18.54-3.49-.03,0-.06-.01-.09-.01H96.28c-1.69,0-3.06,1.37-3.06,3.05s1.37,3.05,3.06,3.05h42.77c-4.36,2.28-8.47,5.2-12.19,8.75h-30.59c-1.69,0-3.06,1.37-3.06,3.05s1.37,3.05,3.06,3.05h25.09c-4.99,6.46-8.39,13.9-10.03,21.84h-15.06c-1.69,0-3.06,1.37-3.06,3.05s1.37,3.05,3.06,3.05h14.17c-.14,1.59-.22,3.2-.22,4.82,0,1.33,.05,2.65,.14,3.96h-14.1c-1.69,0-3.06,1.37-3.06,3.05s1.37,3.05,3.06,3.05h14.89c1.56,8.27,5.03,16.02,10.2,22.71h-25.1c-1.69,0-3.06,1.37-3.06,3.05s1.37,3.05,3.06,3.05h30.6c3.71,3.55,7.82,6.46,12.17,8.74h-42.77c-1.69,0-3.06,1.37-3.06,3.05s1.37,3.05,3.06,3.05h67.72c.47,0,.93-.02,1.4-.03,1.99-.05,3.98-.2,5.96-.47,4-.55,7.95-1.54,11.76-2.99v35.73Zm15.1-44.51c1.3-1.08,2.57-2.22,3.79-3.44,1.21-1.21,2.36-2.48,3.44-3.79l6.75,6.75-7.23,7.23-6.75-6.75Zm37.7,30.46c-3.1,3.23-8.69,3.23-11.79,0l-17.11-17.11,11.79-11.79,17.11,17.11c3.23,3.1,3.23,8.68,0,11.79Z"/><rect class="cls-6" x="59.38" y="71.76" width="21.29" height="21.29"/><rect class="cls-4" x="60.08" y="116.52" width="21.29" height="21.29"/><rect class="cls-5" x="60.08" y="159.05" width="21.29" height="21.29"/><path class="cls-3" d="M64.04,96.94h13.37c3.77,0,6.83-3.06,6.83-6.83v-13.36c0-3.77-3.07-6.83-6.83-6.83h-13.37c-3.77,0-6.83,3.06-6.83,6.83v13.36c0,3.77,3.07,6.83,6.83,6.83Zm-.72-20.2c0-.4,.32-.72,.72-.72h13.37c.4,0,.72,.32,.72,.72v13.36c0,.4-.32,.72-.72,.72h-13.37c-.4,0-.72-.32-.72-.72v-13.36Z"/><path class="cls-3" d="M64.04,139.77h13.37c3.77,0,6.83-3.06,6.83-6.83v-13.36c0-3.77-3.07-6.83-6.83-6.83h-13.37c-3.77,0-6.83,3.06-6.83,6.83v13.36c0,3.77,3.07,6.83,6.83,6.83Zm-.72-20.2c0-.4,.32-.72,.72-.72h13.37c.4,0,.72,.32,.72,.72v13.36c0,.4-.32,.72-.72,.72h-13.37c-.4,0-.72-.32-.72-.72v-13.36Z"/><path class="cls-3" d="M64.04,183.47h13.37c3.77,0,6.83-3.06,6.83-6.83v-13.36c0-3.77-3.07-6.83-6.83-6.83h-13.37c-3.77,0-6.83,3.07-6.83,6.83v13.36c0,3.77,3.07,6.83,6.83,6.83Zm-.72-20.2c0-.4,.32-.72,.72-.72h13.37c.4,0,.72,.32,.72,.72v13.36c0,.4-.32,.72-.72,.72h-13.37c-.4,0-.72-.32-.72-.72v-13.36Z"/></g></g><g id="WYBOR"><g><path class="cls-3" d="M5.41,261.01L0,238.24H5.51l1.72,9.39c.51,2.7,.98,5.64,1.35,7.94h.07c.37-2.47,.91-5.2,1.49-8.01l1.93-9.32h5.47l1.82,9.59c.51,2.67,.88,5.1,1.22,7.64h.07c.34-2.53,.84-5.2,1.32-7.91l1.86-9.32h5.24l-5.88,22.77h-5.57l-1.93-9.8c-.44-2.3-.81-4.43-1.08-7.03h-.07c-.41,2.57-.78,4.73-1.32,7.03l-2.16,9.8H5.41Z"/><path class="cls-3" d="M45.26,251.38h-8.38v5.41h9.36v4.22h-14.53v-22.77h14.05v4.22h-8.88v4.73h8.38v4.19Z"/><path class="cls-3" d="M49.75,238.55c1.66-.27,4.12-.47,6.86-.47,3.38,0,5.74,.51,7.36,1.79,1.35,1.08,2.09,2.67,2.09,4.76,0,2.91-2.06,4.9-4.02,5.61v.1c1.59,.64,2.47,2.16,3.04,4.26,.71,2.57,1.42,5.54,1.86,6.42h-5.27c-.37-.64-.91-2.5-1.59-5.3-.61-2.84-1.59-3.62-3.68-3.65h-1.55v8.95h-5.1v-22.47Zm5.1,9.8h2.03c2.57,0,4.09-1.28,4.09-3.28,0-2.09-1.42-3.14-3.78-3.18-1.25,0-1.96,.1-2.33,.17v6.28Z"/><path class="cls-3" d="M74.41,261.01v-9.32l-7.2-13.45h5.88l2.33,5.47c.71,1.66,1.18,2.87,1.76,4.36h.07c.51-1.42,1.05-2.74,1.72-4.36l2.3-5.47h5.78l-7.5,13.28v9.49h-5.13Z"/><path class="cls-3" d="M88.9,238.24h13.92v4.22h-8.75v5.2h8.17v4.19h-8.17v9.16h-5.17v-22.77Z"/><path class="cls-3" d="M111.87,238.24v22.77h-5.17v-22.77h5.17Z"/><path class="cls-3" d="M116.32,238.24h5.1v10.07h.1c.51-.88,1.05-1.69,1.55-2.5l5.17-7.57h6.32l-7.53,9.7,7.94,13.07h-6.01l-5.57-9.83-1.96,2.4v7.43h-5.1v-22.77Z"/><path class="cls-3" d="M142.8,255.17l-1.62,5.84h-5.34l6.96-22.77h6.76l7.06,22.77h-5.54l-1.76-5.84h-6.52Zm5.78-3.85l-1.42-4.83c-.41-1.35-.81-3.04-1.15-4.39h-.07c-.34,1.35-.68,3.07-1.05,4.39l-1.35,4.83h5.03Z"/><path class="cls-3" d="M175.53,260.37c-.95,.47-3.07,.98-5.84,.98-7.87,0-11.92-4.9-11.92-11.38,0-7.77,5.54-12.09,12.43-12.09,2.67,0,4.7,.54,5.61,1.01l-1.05,4.09c-1.05-.44-2.5-.84-4.32-.84-4.09,0-7.26,2.47-7.26,7.53,0,4.56,2.7,7.43,7.3,7.43,1.55,0,3.28-.34,4.29-.74l.78,4.02Z"/><path class="cls-3" d="M183.71,238.24h5.13v14.39c0,6.49-3.11,8.75-8.11,8.75-1.18,0-2.74-.2-3.75-.54l.57-4.16c.71,.24,1.62,.41,2.64,.41,2.16,0,3.51-.98,3.51-4.53v-14.32Z"/><path class="cls-3" d="M198.43,255.17l-1.62,5.84h-5.34l6.96-22.77h6.76l7.06,22.77h-5.54l-1.76-5.84h-6.52Zm5.78-3.85l-1.42-4.83c-.41-1.35-.81-3.04-1.15-4.39h-.07c-.34,1.35-.68,3.07-1.05,4.39l-1.35,4.83h5.03Z"/><path class="cls-3" d="M20.25,301.54l-5.41-22.77h5.51l1.72,9.39c.51,2.7,.98,5.64,1.35,7.94h.07c.37-2.47,.91-5.2,1.49-8.01l1.93-9.32h5.47l1.82,9.59c.51,2.67,.88,5.1,1.22,7.64h.07c.34-2.53,.84-5.2,1.32-7.91l1.86-9.32h5.24l-5.88,22.77h-5.57l-1.93-9.8c-.44-2.3-.81-4.43-1.08-7.03h-.07c-.41,2.57-.78,4.73-1.32,7.03l-2.16,9.8h-5.64Z"/><path class="cls-3" d="M51.83,301.54v-9.32l-7.2-13.45h5.88l2.33,5.47c.71,1.66,1.18,2.87,1.76,4.36h.07c.51-1.42,1.05-2.74,1.72-4.36l2.3-5.47h5.78l-7.5,13.28v9.49h-5.13Z"/><path class="cls-3" d="M85.47,292.83c-.1-2.74-.2-6.05-.2-9.36h-.1c-.71,2.91-1.66,6.15-2.53,8.82l-2.77,8.88h-4.02l-2.43-8.82c-.74-2.67-1.52-5.91-2.06-8.88h-.07c-.14,3.07-.24,6.59-.41,9.43l-.41,8.65h-4.76l1.45-22.77h6.86l2.23,7.6c.71,2.64,1.42,5.47,1.93,8.14h.1c.64-2.63,1.42-5.64,2.16-8.17l2.43-7.57h6.72l1.25,22.77h-5.03l-.34-8.72Z"/><path class="cls-3" d="M99.96,278.77v22.77h-5.17v-22.77h5.17Z"/><path class="cls-3" d="M109.72,295.7l-1.62,5.84h-5.34l6.96-22.77h6.76l7.06,22.77h-5.54l-1.76-5.84h-6.52Zm5.78-3.85l-1.42-4.83c-.41-1.35-.81-3.04-1.15-4.39h-.07c-.34,1.35-.68,3.07-1.05,4.39l-1.35,4.83h5.03Z"/><path class="cls-3" d="M126.57,279.08c1.66-.27,4.12-.47,6.86-.47,3.38,0,5.74,.51,7.36,1.79,1.35,1.08,2.09,2.67,2.09,4.76,0,2.91-2.06,4.9-4.02,5.61v.1c1.59,.64,2.47,2.16,3.04,4.26,.71,2.57,1.42,5.54,1.86,6.42h-5.27c-.37-.64-.91-2.5-1.59-5.3-.61-2.84-1.59-3.62-3.68-3.65h-1.55v8.95h-5.1v-22.47Zm5.1,9.8h2.03c2.57,0,4.09-1.28,4.09-3.28,0-2.09-1.42-3.14-3.78-3.18-1.25,0-1.96,.1-2.33,.17v6.28Z"/><path class="cls-3" d="M167.31,289.92c0,7.47-4.53,11.99-11.18,11.99s-10.71-5.1-10.71-11.59c0-6.82,4.36-11.93,11.08-11.93s10.81,5.24,10.81,11.52Zm-16.45,.3c0,4.46,2.09,7.6,5.54,7.6s5.47-3.31,5.47-7.74c0-4.09-1.96-7.6-5.51-7.6s-5.51,3.31-5.51,7.74Zm11.38-16.86l-4.12,4.16h-4.12l2.84-4.16h5.41Z"/><path class="cls-3" d="M174.13,301.54l-5.41-22.77h5.51l1.72,9.39c.51,2.7,.98,5.64,1.35,7.94h.07c.37-2.47,.91-5.2,1.49-8.01l1.93-9.32h5.47l1.82,9.59c.51,2.67,.88,5.1,1.22,7.64h.07c.34-2.53,.84-5.2,1.32-7.91l1.86-9.32h5.24l-5.88,22.77h-5.57l-1.93-9.8c-.44-2.3-.81-4.43-1.08-7.03h-.07c-.41,2.57-.78,4.73-1.32,7.03l-2.16,9.8h-5.64Z"/></g></g></svg>