<?xml version="1.0" encoding="UTF-8"?><svg id="Layer_2" xmlns="http://www.w3.org/2000/svg" xmlns:xlink="http://www.w3.org/1999/xlink" viewBox="0 0 275.86 250.68"><defs><style>.cls-1{fill:none;}.cls-2{fill:url(#New_Gradient_Swatch_copy);}.cls-3{fill:#043a25;}.cls-4{fill:url(#New_Gradient_Swatch_copy-3);}.cls-5{fill:url(#New_Gradient_Swatch_copy-4);}.cls-6{fill:url(#New_Gradient_Swatch_copy-2);}</style><linearGradient id="New_Gradient_Swatch_copy" x1="129.64" y1="143.32" x2="240.23" y2="143.32" gradientUnits="userSpaceOnUse"><stop offset="0" stop-color="#f1e5b3"/><stop offset=".29" stop-color="#decb7c"/><stop offset="1" stop-color="#bba16b"/></linearGradient><linearGradient id="New_Gradient_Swatch_copy-2" x1="66.71" y1="93.13" x2="90.78" y2="93.13" xlink:href="#New_Gradient_Swatch_copy"/><linearGradient id="New_Gradient_Swatch_copy-3" x1="67.5" y1="143.72" x2="91.57" y2="143.72" xlink:href="#New_Gradient_Swatch_copy"/><linearGradient id="New_Gradient_Swatch_copy-4" x1="67.5" y1="191.79" x2="91.57" y2="191.79" xlink:href="#New_Gradient_Swatch_copy"/></defs><g id="WERYFIKACJA"><g><path class="cls-1" d="M174.13,58.25h27.54l-31-30.99v27.54c0,1.9,1.55,3.45,3.45,3.45Z"/><path class="cls-1" d="M6.84,40.31L40.65,205.75V53.78s0,0,0,0V27.14l-29.03,5.93c-3.31,.68-5.46,3.93-4.78,7.24Z"/><path class="cls-1" d="M71.98,85.91h15.1c.45,0,.82,.37,.82,.82v15.1c0,.45-.37,.82-.82,.82h-15.11c-.45,0-.82-.37-.82-.82v-15.1c0-.45,.37-.82,.82-.82Z"/><path class="cls-1" d="M185.5,82.45s.07,0,.1,.01c7.11,.08,14.22,1.39,20.95,3.94v-21.25h-32.43c-5.71,0-10.36-4.65-10.36-10.36V22.37h-7.49l12.28,60.07h16.94Z"/><path class="cls-1" d="M141.22,6.71c-.41,0-.82,.04-1.23,.12l-42.24,8.63h50.26l-.79-3.85c-.59-2.9-3.16-4.91-6.01-4.91Z"/><path class="cls-1" d="M183.95,155.64l18.06-18.52c1.46-1.5,1.43-3.91-.07-5.38-1.5-1.46-3.91-1.43-5.38,.07l-13,13.33c-.56,.57-1.26,.89-1.99,.99l2.01,9.82c.13-.1,.26-.2,.37-.32Z"/><path class="cls-1" d="M153.16,174.95c-1.48-1.48-2.88-3.08-4.13-4.75-1.15-1.52-.85-3.69,.68-4.84,1.52-1.15,3.69-.85,4.84,.68h0c1.06,1.41,2.24,2.77,3.5,4.03,6.45,6.45,14.82,10.29,23.82,11.01l-3.64-17.81c-1.66-.48-3.19-1.37-4.46-2.6l-9.52-9.26c-4.23-4.12-4.33-10.91-.21-15.14,2.18-2.24,5.11-3.31,8.02-3.22l-4.81-23.54c-3.31,1.74-6.41,3.99-9.19,6.77-10.11,10.11-13.69,24.86-9.34,38.5,.58,1.82-.42,3.76-2.24,4.34-1.82,.58-3.76-.42-4.34-2.24-5.14-16.11-.91-33.53,11.03-45.48,3.78-3.78,8.07-6.73,12.65-8.88l-1.82-8.93c-6.23,2.62-12.06,6.45-17.12,11.51-10.17,10.17-15.77,23.69-15.77,38.08s5.6,27.91,15.77,38.08c10.43,10.43,24.11,15.67,37.81,15.74h.27s.03,0,.05,0c.04,0,.08,0,.12,0l-1.82-8.92c-11.39-.41-22.03-5.02-30.13-13.12Z"/><path class="cls-1" d="M168.98,141.08c-1.46,1.5-1.43,3.92,.08,5.38l7.15,6.95-2.65-12.99c-1.46-.82-3.35-.6-4.57,.66Z"/><path class="cls-1" d="M181.03,137.86l10.59-10.86c4.12-4.23,10.92-4.31,15.14-.19,4.23,4.12,4.31,10.91,.19,15.14l-18.06,18.52c-1.11,1.14-2.44,1.99-3.88,2.53l3.69,18.03c8.74-.85,16.85-4.67,23.14-10.96,7.19-7.18,11.14-16.74,11.14-26.9s-3.96-19.71-11.14-26.9c-10.34-10.34-25.21-13.46-38.29-9.38l6.04,29.56,1.43,1.39Z"/><path class="cls-1" d="M71.98,134.32h15.11c.45,0,.82,.37,.82,.82v15.1c0,.45-.37,.82-.82,.82h-15.11c-.45,0-.82-.37-.82-.82v-15.1c0-.45,.37-.82,.82-.82Z"/><path class="cls-1" d="M49.44,239.81c1.37,.9,3.01,1.22,4.61,.89l128.37-26.24c1.61-.33,2.99-1.26,3.89-2.63,.9-1.37,1.22-3,.89-4.61l-.69-3.36c-.53,.01-1.05,.04-1.58,.04H108.41c-1.91,0-3.45-1.55-3.45-3.45s1.55-3.45,3.45-3.45h48.33c-4.92-2.57-9.55-5.86-13.75-9.87h-34.58c-1.91,0-3.45-1.55-3.45-3.45s1.55-3.45,3.45-3.45h28.36c-5.84-7.57-9.77-16.32-11.53-25.67h-16.83c-1.91,0-3.45-1.55-3.45-3.45s1.55-3.45,3.45-3.45h15.93c-.11-1.48-.16-2.97-.16-4.47,0-1.83,.08-3.64,.24-5.44h-16.01c-1.91,0-3.45-1.55-3.45-3.45s1.55-3.45,3.45-3.45h17.02c1.84-8.98,5.7-17.38,11.33-24.68h-28.35c-1.91,0-3.45-1.55-3.45-3.45s1.55-3.45,3.45-3.45h34.57c4.2-4.02,8.85-7.31,13.77-9.89h-48.34c-1.91,0-3.45-1.55-3.45-3.45s1.55-3.45,3.45-3.45h53.29l-12.28-60.07H63.97l-16.41,3.35s-.01,.06-.01,.1v29.02s0,0,0,0V237.82c.47,.79,1.1,1.47,1.89,1.99Zm14.82-153.08c0-4.26,3.46-7.72,7.72-7.72h15.11c4.26,0,7.72,3.46,7.72,7.72v15.1c0,4.26-3.46,7.72-7.72,7.72h-15.11c-4.26,0-7.72-3.46-7.72-7.72v-15.1Zm0,48.41c0-4.26,3.46-7.72,7.72-7.72h15.11c4.26,0,7.72,3.46,7.72,7.72v15.1c0,4.26-3.46,7.72-7.72,7.72h-15.11c-4.26,0-7.72-3.46-7.72-7.72v-15.1Zm0,49.39c0-4.26,3.46-7.72,7.72-7.72h15.11c4.26,0,7.72,3.46,7.72,7.72v15.1c0,4.26-3.46,7.72-7.72,7.72h-15.11c-4.26,0-7.72-3.46-7.72-7.72v-15.1Z"/><path class="cls-1" d="M231.8,181.85c-1.22,1.48-2.52,2.91-3.89,4.28-1.38,1.38-2.81,2.67-4.28,3.89l7.63,7.63,8.17-8.17-7.63-7.63Z"/><path class="cls-1" d="M193.78,205.88c.69,3.36,.02,6.79-1.87,9.65-1.89,2.86-4.78,4.82-8.15,5.5l-111.27,22.74H203.1c1.9,0,3.45-1.55,3.45-3.45v-40.38c-4.31,1.63-8.77,2.76-13.29,3.38l.52,2.55Z"/><path class="cls-1" d="M246.89,191.79l-13.32,13.32,19.34,19.34c3.51,3.65,9.82,3.65,13.32,0,3.66-3.51,3.65-9.81,0-13.32l-19.34-19.34Z"/><path class="cls-1" d="M71.98,183.71h15.1c.45,0,.82,.37,.82,.82v15.1c0,.45-.37,.82-.82,.82h-15.11c-.45,0-.82-.37-.82-.82v-15.1c0-.45,.37-.82,.82-.82Z"/><path class="cls-3" d="M139.99,6.84c.41-.08,.82-.12,1.23-.12,2.85,0,5.42,2.01,6.01,4.91l.79,3.85h6.85l-1.06-5.19c-1.42-6.94-8.22-11.44-15.16-10.01L64.24,15.47h33.51l42.24-8.63Z"/><path class="cls-3" d="M6.84,40.31c-.68-3.31,1.47-6.56,4.78-7.24l29.03-5.93v-1.31c0-2.2,.69-4.24,1.87-5.92L10.28,26.5C3.34,27.92-1.16,34.72,.26,41.66L40.24,237.26c.1,.51,.25,1.01,.41,1.5v-33.01L6.84,40.31Z"/><circle class="cls-2" cx="184.93" cy="143.32" r="55.29"/><path class="cls-3" d="M185.02,163c1.44-.54,2.77-1.39,3.88-2.53l18.06-18.52c4.12-4.23,4.04-11.02-.19-15.14-4.23-4.12-11.02-4.04-15.14,.19l-10.59,10.86-1.43-1.39-.42-.41c-1.99-1.94-4.55-2.93-7.13-3.01-2.9-.09-5.84,.98-8.02,3.22-4.12,4.23-4.02,11.02,.21,15.14l9.52,9.26c1.27,1.24,2.8,2.12,4.46,2.6,.97,.28,1.98,.43,3.01,.43,1.32,0,2.59-.25,3.79-.7Zm-8.81-9.59l-7.15-6.95c-1.5-1.46-1.54-3.87-.08-5.38,1.22-1.26,3.11-1.47,4.57-.66,.29,.16,.56,.34,.81,.58l4.33,4.21c.79,.77,1.87,1.07,2.89,.93,.73-.1,1.44-.43,1.99-.99l13-13.33c1.46-1.5,3.88-1.53,5.38-.07,1.5,1.46,1.53,3.88,.07,5.38l-18.06,18.52c-.11,.12-.25,.22-.37,.32-1.44,1.15-3.68,1.09-5-.25l-2.37-2.31Z"/><path class="cls-3" d="M153.16,111.4c-11.95,11.95-16.18,29.37-11.03,45.48,.58,1.82,2.52,2.82,4.34,2.24,1.82-.58,2.82-2.52,2.24-4.34-4.35-13.63-.77-28.39,9.34-38.5,2.78-2.78,5.88-5.04,9.19-6.77,2.04-1.07,4.15-1.93,6.32-2.61,13.08-4.08,27.95-.96,38.29,9.38,7.19,7.18,11.14,16.74,11.14,26.9s-3.96,19.71-11.14,26.9c-6.29,6.29-14.4,10.11-23.14,10.96-1.24,.12-2.5,.18-3.76,.18-1.03,0-2.06-.05-3.08-.13-9-.72-17.37-4.55-23.82-11.01-1.26-1.26-2.44-2.61-3.5-4.03h0c-1.15-1.52-3.31-1.83-4.84-.68-1.52,1.15-1.82,3.31-.68,4.84,1.26,1.67,2.65,3.26,4.13,4.75,8.1,8.1,18.75,12.71,30.13,13.12,.55,.02,1.1,.04,1.65,.04,1.73,0,3.45-.11,5.15-.3,10.06-1.14,19.37-5.6,26.64-12.86,8.49-8.49,13.16-19.77,13.16-31.78s-4.68-23.29-13.16-31.78c-12.04-12.04-29.27-15.81-44.56-11.3-2.16,.64-4.29,1.45-6.36,2.42-4.58,2.15-8.87,5.11-12.65,8.88Z"/><path class="cls-3" d="M271.11,206.25h0l-21.78-21.78c-1.35-1.35-3.53-1.35-4.88,0l-.13,.13-8.38-8.38c5.64-8.69,8.99-18.73,9.65-29.2,.12-1.9-1.33-3.54-3.23-3.66-1.9-.12-3.54,1.33-3.66,3.23-.82,13.08-6.39,25.39-15.67,34.67-8.74,8.74-19.75,13.82-31.15,15.29-2.24,.29-4.5,.45-6.76,.45-.04,0-.08,0-.12,0-.02,0-.03,0-.05,0h-.27c-13.7-.07-27.38-5.32-37.81-15.74-10.17-10.17-15.77-23.69-15.77-38.08s5.6-27.91,15.77-38.08c5.06-5.06,10.9-8.89,17.12-11.51,2.09-.88,4.23-1.62,6.39-2.23,18.13-5.06,38.41-.49,52.65,13.74,7.82,7.82,12.98,17.68,14.93,28.53,.34,1.88,2.13,3.12,4.01,2.79,1.88-.34,3.13-2.13,2.79-4.01-2.19-12.24-8.02-23.37-16.84-32.19-4.37-4.37-9.25-7.93-14.45-10.69v-27.82c0-.91-.37-1.8-1.01-2.44l-42.78-42.78c-.64-.64-1.53-1.01-2.44-1.01H51.01c-3.51,0-6.62,1.76-8.49,4.44-1.17,1.68-1.87,3.72-1.87,5.92v27.95s0,0,0,0V240.33c0,5.71,4.65,10.35,10.36,10.35H203.1c5.71,0,10.36-4.65,10.36-10.36v-43.5c1.54-.82,3.05-1.71,4.53-2.67l8.38,8.38c-1.45,1.27-1.53,3.68-.13,5.02l21.78,21.78c6.08,6.33,17.01,6.33,23.09,0,6.33-6.08,6.33-17.01,0-23.09ZM170.68,27.26l31,30.99h-27.54c-1.9,0-3.45-1.55-3.45-3.45V27.26Zm35.88,213.07c0,1.9-1.55,3.45-3.45,3.45H51.01c-1.9,0-3.45-1.55-3.45-3.45V54.84s0,0,0,0V25.83s0-.07,.01-.1c.05-1.86,1.57-3.35,3.44-3.35h112.76V54.8c0,5.71,4.65,10.36,10.36,10.36h32.43v21.25c-6.74-2.55-13.84-3.86-20.95-3.94-.03,0-.07-.01-.1-.01H108.41c-1.91,0-3.45,1.55-3.45,3.45s1.55,3.45,3.45,3.45h48.34c-4.93,2.58-9.57,5.87-13.77,9.89h-34.57c-1.91,0-3.45,1.55-3.45,3.45s1.55,3.45,3.45,3.45h28.35c-5.64,7.3-9.49,15.71-11.33,24.68h-17.02c-1.91,0-3.45,1.55-3.45,3.45s1.55,3.45,3.45,3.45h16.01c-.16,1.8-.24,3.61-.24,5.44,0,1.5,.05,2.99,.16,4.47h-15.93c-1.91,0-3.45,1.55-3.45,3.45s1.55,3.45,3.45,3.45h16.83c1.76,9.34,5.69,18.1,11.53,25.67h-28.36c-1.91,0-3.45,1.55-3.45,3.45s1.55,3.45,3.45,3.45h34.58c4.2,4.01,8.83,7.3,13.75,9.87h-48.33c-1.91,0-3.45,1.55-3.45,3.45s1.55,3.45,3.45,3.45h76.53c.53,0,1.05-.02,1.58-.04,2.25-.06,4.5-.23,6.74-.53,4.52-.62,8.98-1.75,13.29-3.38v40.38Zm17.07-50.31c1.47-1.22,2.9-2.51,4.28-3.89,1.37-1.37,2.67-2.8,3.89-4.28l7.63,7.63-8.17,8.17-7.63-7.63Zm42.6,34.43c-3.51,3.65-9.82,3.65-13.32,0l-19.34-19.34,13.32-13.32,19.34,19.34c3.65,3.51,3.65,9.82,0,13.32Z"/><rect class="cls-6" x="66.71" y="81.1" width="24.06" height="24.06"/><rect class="cls-4" x="67.5" y="131.69" width="24.06" height="24.06"/><rect class="cls-5" x="67.5" y="179.76" width="24.06" height="24.06"/><path class="cls-3" d="M71.98,109.56h15.11c4.26,0,7.72-3.46,7.72-7.72v-15.1c0-4.26-3.46-7.72-7.72-7.72h-15.11c-4.26,0-7.72,3.46-7.72,7.72v15.1c0,4.26,3.46,7.72,7.72,7.72Zm-.82-22.82c0-.45,.37-.82,.82-.82h15.11c.45,0,.82,.37,.82,.82v15.1c0,.45-.37,.82-.82,.82h-15.11c-.45,0-.82-.37-.82-.82v-15.1Z"/><path class="cls-3" d="M71.98,157.96h15.11c4.26,0,7.72-3.46,7.72-7.72v-15.1c0-4.26-3.46-7.72-7.72-7.72h-15.11c-4.26,0-7.72,3.46-7.72,7.72v15.1c0,4.26,3.46,7.72,7.72,7.72Zm-.82-22.83c0-.45,.37-.82,.82-.82h15.11c.45,0,.82,.37,.82,.82v15.1c0,.45-.37,.82-.82,.82h-15.11c-.45,0-.82-.37-.82-.82v-15.1Z"/><path class="cls-3" d="M71.98,207.35h15.11c4.26,0,7.72-3.46,7.72-7.72v-15.1c0-4.26-3.46-7.72-7.72-7.72h-15.11c-4.26,0-7.72,3.46-7.72,7.72v15.1c0,4.26,3.46,7.72,7.72,7.72Zm-.82-22.83c0-.45,.37-.82,.82-.82h15.11c.45,0,.82,.37,.82,.82v15.1c0,.45-.37,.82-.82,.82h-15.11c-.45,0-.82-.37-.82-.82v-15.1Z"/></g></g></svg>