<svg width="17" height="12" viewBox="0 0 17 12" fill="none" xmlns="http://www.w3.org/2000/svg">
<path d="M11.1355 0V0.897423H12.7336C13.2934 0.898433 13.8462 0.806363 14.35 0.628196L14.4238 0.601274L0.902011 10.4729V10.446C1.15758 10.0787 1.29426 9.67338 1.30152 9.26141V8.07681H0.0722656V11.6665H4.98928V10.7691H3.36666C2.82276 10.7686 2.28546 10.8559 1.79322 11.0248L1.72561 11.0473L15.2474 1.17562V1.2205C14.9796 1.59175 14.8344 2.00355 14.8233 2.42304V3.58969H16.0526V0H11.1355Z" fill="#FAF9F8"/>
<path d="M7.20197 4.61737L1.73176 0.623727H1.76864C2.26265 0.800159 2.80445 0.893662 3.35439 0.897448H4.9893V0H0.0722656V3.58979H1.30152V2.39619C1.30141 2.00397 1.18398 1.61653 0.957332 1.26091L0.9266 1.21156L6.3968 5.2052L7.20197 4.61737Z" fill="#FAF9F8"/>
<path d="M14.8232 8.07677V9.27485C14.8234 9.66705 14.9408 10.0545 15.1674 10.4101L15.192 10.446L9.72801 6.45691L8.92285 7.04473L14.3869 11.0338H14.3377C13.8502 10.8631 13.3172 10.7727 12.7765 10.7691H11.1355V11.6665H16.0525V8.07677H14.8232Z" fill="#FAF9F8"/>
</svg>
