<?xml version="1.0"?>
<svg xmlns="http://www.w3.org/2000/svg" xmlns:xlink="http://www.w3.org/1999/xlink" xmlnsSvgjs="http://svgjs.com/svgjs" version="1.1" width="512" height="512" x="0" y="0" viewBox="0 0 512.048 512.048" style="enable-background:new 0 0 512 512" xml:space="preserve" class=""><g><g xmlns="http://www.w3.org/2000/svg"><path d="m504.947 206.765c-.833-2.564-2.646-4.952-4.674-6.69l-61.687-52.865v-83.364c0-10.15-8.258-18.407-18.408-18.407h-100.347l-44.731-38.334c-11.054-9.473-27.099-9.473-38.151 0l-44.731 38.334h-45.858c-4.142 0-7.5 3.358-7.5 7.5s3.358 7.5 7.5 7.5h273.818c1.879 0 3.408 1.528 3.408 3.407v198.974l-97.797 83.81-51.87-44.451c-10.369-8.887-25.421-8.887-35.789 0l-51.87 44.451-97.797-83.81v-198.974c0-1.879 1.529-3.407 3.408-3.407h21.804c4.142 0 7.5-3.358 7.5-7.5s-3.358-7.5-7.5-7.5h-21.805c-10.15 0-18.408 8.257-18.408 18.407v83.364l-61.686 52.864c-3.598 3.082-5.764 7.788-5.764 12.53v154.272c0 4.142 3.358 7.5 7.5 7.5s7.5-3.358 7.5-7.5v-142.105l153.721 131.736-153.721 131.735v-88.575c0-4.142-3.358-7.5-7.5-7.5s-7.5 3.358-7.5 7.5v95.881c0 4.662 1.952 8.87 5.071 11.873.151.15.307.291.468.426 2.918 2.604 6.752 4.201 10.961 4.201h467.023c4.209 0 8.043-1.598 10.961-4.201.161-.135.317-.275.468-.426 3.119-3.004 5.071-7.211 5.071-11.873v-282.944c.001-2.023-.389-3.993-1.088-5.839zm-258.238-188.271c5.397-4.626 13.232-4.626 18.63 0l31.441 26.944h-81.512zm-173.246 231.471-48.426-41.5 48.426-41.501zm365.123-83.001 48.426 41.501-48.426 41.5zm-190.696 146.603c4.713-4.039 11.555-4.039 16.268 0l115.166 98.694c3.144 2.695 7.88 2.331 10.575-.815 2.695-3.145 2.331-7.88-.815-10.575l-51.77-44.365 153.721-131.736v263.471l-77.125-66.094c-3.146-2.696-7.88-2.331-10.575.815-2.695 3.145-2.331 7.88.814 10.575l74.11 63.511h-444.472z" fill="#ffffff" data-original="#000000" class=""/><path d="m374.959 195.72h-86.265c-4.142 0-7.5 3.358-7.5 7.5s3.358 7.5 7.5 7.5h86.265c4.142 0 7.5-3.358 7.5-7.5s-3.358-7.5-7.5-7.5z" fill="#ffffff" data-original="#000000" class=""/><path d="m374.959 245.091h-86.265c-4.142 0-7.5 3.358-7.5 7.5s3.358 7.5 7.5 7.5h86.265c4.142 0 7.5-3.358 7.5-7.5s-3.358-7.5-7.5-7.5z" fill="#ffffff" data-original="#000000" class=""/><path d="m142.089 161.349h227.87c6.892 0 12.5-5.607 12.5-12.5v-39.372c0-6.893-5.608-12.5-12.5-12.5h-227.87c-6.893 0-12.5 5.607-12.5 12.5v39.372c0 6.893 5.608 12.5 12.5 12.5zm2.5-49.371h222.87v34.372h-222.87z" fill="#ffffff" data-original="#000000" class=""/><path d="m142.089 260.091h88.938c6.893 0 12.5-5.607 12.5-12.5v-39.371c0-6.893-5.607-12.5-12.5-12.5h-88.938c-6.893 0-12.5 5.607-12.5 12.5v39.371c0 6.893 5.608 12.5 12.5 12.5zm2.5-49.371h83.938v34.371h-83.938z" fill="#ffffff" data-original="#000000" class=""/></g></g></svg>
